<mxfile host="app.diagrams.net" modified="2022-12-09T03:36:30.949Z" agent="5.0 (Windows NT 10.0; Win64; x64) AppleWebKit/537.36 (KHTML, like Gecko) Chrome/107.0.0.0 Safari/537.36" version="20.6.0" etag="1kIR5nXqpwHJg5cZHUhA" type="github">
  <diagram id="TjI9uXYWidK9GOjejnDS" name="Page-1">
    <mxGraphModel dx="1483" dy="699" grid="1" gridSize="10" guides="1" tooltips="1" connect="1" arrows="1" fold="1" page="1" pageScale="1" pageWidth="850" pageHeight="1100" math="0" shadow="0">
      <root>
        <mxCell id="0" />
        <mxCell id="1" parent="0" />
        <mxCell id="thXLSm3wJikO7Sc-p7p8-1" value="" style="whiteSpace=wrap;html=1;aspect=fixed;" vertex="1" parent="1">
          <mxGeometry x="230" y="120" width="80" height="80" as="geometry" />
        </mxCell>
        <mxCell id="thXLSm3wJikO7Sc-p7p8-2" value="" style="curved=1;endArrow=classic;html=1;rounded=0;" edge="1" parent="1">
          <mxGeometry width="50" height="50" relative="1" as="geometry">
            <mxPoint x="310" y="160" as="sourcePoint" />
            <mxPoint x="570" y="170" as="targetPoint" />
          </mxGeometry>
        </mxCell>
        <mxCell id="thXLSm3wJikO7Sc-p7p8-5" value="" style="shape=image;verticalLabelPosition=bottom;labelBackgroundColor=default;verticalAlign=top;aspect=fixed;imageAspect=0;image=data:image/svg+xml,PHN2ZyB4bWxuczp4bGluaz0iaHR0cDovL3d3dy53My5vcmcvMTk5OS94bGluayIgeG1sbnM9Imh0dHA6Ly93d3cudzMub3JnLzIwMDAvc3ZnIiBzdHlsZT0iZmlsbC1ydWxlOmV2ZW5vZGQ7Y2xpcC1ydWxlOmV2ZW5vZGQ7c3Ryb2tlLWxpbmVqb2luOnJvdW5kO3N0cm9rZS1taXRlcmxpbWl0OjEuNDE0MjE7IiB4bWw6c3BhY2U9InByZXNlcnZlIiB2ZXJzaW9uPSIxLjEiIHZpZXdCb3g9IjAgMCAzMDAgMzAwIiBoZWlnaHQ9IjEwMCUiIHdpZHRoPSIxMDAlIj4mI3hhOyAgICA8Zz4mI3hhOyAgICAgICAgPGcgaWQ9IkJhY2tncm91bmQiPiYjeGE7ICAgICAgICAgICAgPHBhdGggc3R5bGU9ImZpbGw6cmdiKDI1NSwyNTQsMjU0KTsiIGQ9Ik0zMDAsMzAuMjcxQzMwMCwxMy41NjQgMjg2LjQzNiwwIDI2OS43MjksMEwzMC4yNzEsMEMxMy41NjQsMCAwLDEzLjU2NCAwLDMwLjI3MUwwLDI2OS43MjlDMCwyODYuNDM2IDEzLjU2NCwzMDAgMzAuMjcxLDMwMEwyNjkuNzI5LDMwMEMyODYuNDM2LDMwMCAzMDAsMjg2LjQzNiAzMDAsMjY5LjcyOUwzMDAsMzAuMjcxWiIvPiYjeGE7ICAgICAgICAgICAgPHBhdGggc3R5bGU9ImZpbGw6cmdiKDIyNyw0MSw0Nik7IiBkPSJNMjY5LjkyNSwwLjAwMUwyNzAuMTIsMC4wMDJMMjcwLjUxLDAuMDFMMjcwLjcwNSwwLjAxNUwyNzAuODk5LDAuMDIyTDI3MS4wOTMsMC4wM0wyNzEuMjg2LDAuMDM5TDI3MS42NzIsMC4wNjFMMjcxLjg2NSwwLjA3NEwyNzIuMDU3LDAuMDg4TDI3Mi4yNDksMC4xMDRMMjcyLjQ0LDAuMTJMMjcyLjYzMiwwLjEzOEwyNzIuODIzLDAuMTU2TDI3My4wMTMsMC4xNzZMMjczLjM5MywwLjIyTDI3My41ODMsMC4yNDNMMjczLjc3MiwwLjI2OEwyNzMuOTYsMC4yOTRMMjc0LjE0OSwwLjMyMUwyNzQuMzM3LDAuMzQ5TDI3NC41MjQsMC4zNzhMMjc0LjcxMiwwLjQwOUwyNzQuODk4LDAuNDRMMjc1LjA4NSwwLjQ3M0wyNzUuMjcxLDAuNTA3TDI3NS40NTcsMC41NDJMMjc1LjY0MiwwLjU3OEwyNzUuODI3LDAuNjE1TDI3Ni4xOTUsMC42OTNMMjc2LjM3OSwwLjczNEwyNzYuNTYyLDAuNzc2TDI3Ni43NDUsMC44MTlMMjc2LjkyNywwLjg2MkwyNzcuMjkxLDAuOTU0TDI3Ny40NzIsMS4wMDFMMjc3LjY1MiwxLjA0OUwyNzcuODMzLDEuMDk5TDI3OC4wMTIsMS4xNDlMMjc4LjE5MiwxLjIwMUwyNzguMzcxLDEuMjUzTDI3OC41NDksMS4zMDdMMjc4LjcyNywxLjM2MkwyNzguOTA0LDEuNDE4TDI3OS4wODEsMS40NzVMMjc5LjI1OCwxLjUzM0wyNzkuNDM0LDEuNTkyTDI3OS42MDksMS42NTJMMjc5Ljc4NCwxLjcxM0wyNzkuOTU5LDEuNzc1TDI4MC4xMzMsMS44MzhMMjgwLjMwNywxLjkwMkwyODAuNDgsMS45NjhMMjgwLjY1MiwyLjAzNEwyODAuODI0LDIuMTAxTDI4MC45OTYsMi4xNjlMMjgxLjE2NywyLjIzOUwyODEuMzM3LDIuMzA5TDI4MS41MDcsMi4zOEwyODEuNjc3LDIuNDUzTDI4MS44NDYsMi41MjZMMjgyLjAxNCwyLjZMMjgyLjE4MiwyLjY3NkwyODIuMzQ5LDIuNzUyTDI4Mi41MTYsMi44MjlMMjgyLjg0OCwyLjk4N0wyODMuMDEzLDMuMDY3TDI4My4xNzgsMy4xNDhMMjgzLjM0MiwzLjIzMUwyODMuNTA1LDMuMzE0TDI4My42NjgsMy4zOThMMjgzLjgzLDMuNDgzTDI4My45OTIsMy41NjlMMjg0LjE1MywzLjY1NkwyODQuMzE0LDMuNzQ0TDI4NC40NzQsMy44MzJMMjg0LjYzMywzLjkyMkwyODQuNzkyLDQuMDEzTDI4NS4xMDgsNC4xOTdMMjg1LjI2NSw0LjI5MUwyODUuNDIxLDQuMzg1TDI4NS41NzcsNC40OEwyODUuNzMyLDQuNTc2TDI4Ni4wNCw0Ljc3MkwyODYuMzQ2LDQuOTdMMjg2LjQ5OCw1LjA3MUwyODYuOCw1LjI3NUwyODYuOTUsNS4zNzlMMjg3LjA5OSw1LjQ4M0wyODcuMjQ4LDUuNTg4TDI4Ny4zOTYsNS42OTRMMjg3LjY5LDUuOTA4TDI4Ny44MzYsNi4wMTdMMjg3Ljk4MSw2LjEyNkwyODguMTI2LDYuMjM3TDI4OC4yNyw2LjM0OEwyODguNDEzLDYuNDZMMjg4LjU1Niw2LjU3M0wyODguNjk4LDYuNjg2TDI4OC45OCw2LjkxNkwyODkuMTE5LDcuMDMyTDI4OS4yNTksNy4xNDlMMjg5LjUzNSw3LjM4NUwyODkuNjcyLDcuNTA1TDI4OS44MDgsNy42MjVMMjg5Ljk0Myw3Ljc0NkwyOTAuMDc4LDcuODY4TDI5MC4yMTIsNy45OUwyOTAuMzQ2LDguMTE0TDI5MC40NzgsOC4yMzhMMjkwLjYxLDguMzYzTDI5MC43NDEsOC40ODhMMjkxLjAwMSw4Ljc0MkwyOTEuMTMsOC44N0wyOTEuMjU4LDguOTk5TDI5MS41MTIsOS4yNTlMMjkxLjYzNyw5LjM5TDI5MS43NjIsOS41MjJMMjkxLjg4Niw5LjY1NEwyOTIuMDEsOS43ODhMMjkyLjEzMiw5LjkyMkwyOTIuMjU0LDEwLjA1N0wyOTIuMzc1LDEwLjE5MkwyOTIuNDk1LDEwLjMyOEwyOTIuNjE1LDEwLjQ2NUwyOTIuODUxLDEwLjc0MUwyOTIuOTY4LDEwLjg4MUwyOTMuMDg0LDExLjAyTDI5My4zMTQsMTEuMzAyTDI5My40MjcsMTEuNDQ0TDI5My41NCwxMS41ODdMMjkzLjY1MiwxMS43M0wyOTMuNzYzLDExLjg3NEwyOTMuODc0LDEyLjAxOUwyOTMuOTgzLDEyLjE2NEwyOTQuMDkyLDEyLjMxTDI5NC4zMDYsMTIuNjA0TDI5NC40MTIsMTIuNzUyTDI5NC41MTcsMTIuOTAxTDI5NC42MjEsMTMuMDVMMjk0LjcyNSwxMy4yTDI5NC45MjksMTMuNTAyTDI5NS4wMywxMy42NTRMMjk1LjIyOCwxMy45NkwyOTUuNDI0LDE0LjI2OEwyOTUuNTIsMTQuNDIzTDI5NS42MTUsMTQuNTc5TDI5NS43MDksMTQuNzM1TDI5NS44MDMsMTQuODkyTDI5NS45ODcsMTUuMjA4TDI5Ni4wNzgsMTUuMzY3TDI5Ni4xNjgsMTUuNTI2TDI5Ni4yNTYsMTUuNjg2TDI5Ni4zNDQsMTUuODQ3TDI5Ni40MzEsMTYuMDA4TDI5Ni41MTcsMTYuMTdMMjk2LjYwMiwxNi4zMzJMMjk2LjY4NiwxNi40OTVMMjk2Ljc2OSwxNi42NThMMjk2Ljg1MiwxNi44MjJMMjk2LjkzMywxNi45ODdMMjk3LjAxMywxNy4xNTJMMjk3LjE3MSwxNy40ODRMMjk3LjI0OCwxNy42NTFMMjk3LjMyNCwxNy44MThMMjk3LjQsMTcuOTg2TDI5Ny40NzQsMTguMTU0TDI5Ny41NDcsMTguMzIzTDI5Ny42MiwxOC40OTNMMjk3LjY5MSwxOC42NjNMMjk3Ljc2MSwxOC44MzNMMjk3LjgzMSwxOS4wMDRMMjk3Ljg5OSwxOS4xNzZMMjk3Ljk2NiwxOS4zNDhMMjk4LjAzMiwxOS41MkwyOTguMDk4LDE5LjY5M0wyOTguMTYyLDE5Ljg2N0wyOTguMjI1LDIwLjA0MUwyOTguMjg3LDIwLjIxNkwyOTguMzQ4LDIwLjM5MUwyOTguNDA4LDIwLjU2NkwyOTguNDY3LDIwLjc0MkwyOTguNTI1LDIwLjkxOUwyOTguNTgyLDIxLjA5NkwyOTguNjM4LDIxLjI3M0wyOTguNjkzLDIxLjQ1MUwyOTguNzQ3LDIxLjYyOUwyOTguNzk5LDIxLjgwOEwyOTguODUxLDIxLjk4OEwyOTguOTAxLDIyLjE2N0wyOTguOTUxLDIyLjM0OEwyOTguOTk5LDIyLjUyOEwyOTkuMDQ2LDIyLjcwOUwyOTkuMTM4LDIzLjA3M0wyOTkuMTgxLDIzLjI1NUwyOTkuMjI0LDIzLjQzOEwyOTkuMjY2LDIzLjYyMUwyOTkuMzA3LDIzLjgwNUwyOTkuMzg1LDI0LjE3M0wyOTkuNDIyLDI0LjM1OEwyOTkuNDU4LDI0LjU0M0wyOTkuNDkzLDI0LjcyOUwyOTkuNTI3LDI0LjkxNUwyOTkuNTYsMjUuMTAyTDI5OS41OTEsMjUuMjg4TDI5OS42MjIsMjUuNDc2TDI5OS42NTEsMjUuNjYzTDI5OS42NzksMjUuODUxTDI5OS43MDYsMjYuMDRMMjk5LjczMiwyNi4yMjhMMjk5Ljc1NywyNi40MTdMMjk5Ljc4LDI2LjYwN0wyOTkuODI0LDI2Ljk4N0wyOTkuODQ0LDI3LjE3N0wyOTkuODYyLDI3LjM2OEwyOTkuODgsMjcuNTZMMjk5Ljg5NiwyNy43NTFMMjk5LjkxMiwyNy45NDNMMjk5LjkyNiwyOC4xMzVMMjk5LjkzOSwyOC4zMjhMMjk5Ljk2MSwyOC43MTRMMjk5Ljk3LDI4LjkwN0wyOTkuOTc4LDI5LjEwMUwyOTkuOTg1LDI5LjI5NUwyOTkuOTksMjkuNDlMMjk5Ljk5OCwyOS44OEwzMDAsMzAuMjcxTDMwMCwyNjkuNzI5TDI5OS45OTksMjY5LjkyNUwyOTkuOTk4LDI3MC4xMkwyOTkuOTk0LDI3MC4zMTVMMjk5Ljk5LDI3MC41MUwyOTkuOTg1LDI3MC43MDVMMjk5Ljk3OCwyNzAuODk5TDI5OS45NywyNzEuMDkzTDI5OS45NjEsMjcxLjI4NkwyOTkuOTUsMjcxLjQ3OUwyOTkuOTM5LDI3MS42NzJMMjk5LjkyNiwyNzEuODY1TDI5OS45MTIsMjcyLjA1N0wyOTkuODk2LDI3Mi4yNDlMMjk5Ljg4LDI3Mi40NEwyOTkuODYyLDI3Mi42MzJMMjk5Ljg0NCwyNzIuODIzTDI5OS44MjQsMjczLjAxM0wyOTkuODAyLDI3My4yMDNMMjk5Ljc4LDI3My4zOTNMMjk5Ljc1NywyNzMuNTgzTDI5OS43MzIsMjczLjc3MkwyOTkuNzA2LDI3My45NkwyOTkuNjc5LDI3NC4xNDlMMjk5LjY1MSwyNzQuMzM3TDI5OS42MjIsMjc0LjUyNEwyOTkuNTkxLDI3NC43MTJMMjk5LjU2LDI3NC44OThMMjk5LjUyNywyNzUuMDg1TDI5OS40OTMsMjc1LjI3MUwyOTkuNDU4LDI3NS40NTdMMjk5LjQyMiwyNzUuNjQyTDI5OS4zODUsMjc1LjgyN0wyOTkuMzQ2LDI3Ni4wMTFMMjk5LjMwNywyNzYuMTk1TDI5OS4yNjYsMjc2LjM3OUwyOTkuMjI0LDI3Ni41NjJMMjk5LjE4MSwyNzYuNzQ1TDI5OS4xMzgsMjc2LjkyN0wyOTkuMDkyLDI3Ny4xMDlMMjk5LjA0NiwyNzcuMjkxTDI5OC45OTksMjc3LjQ3MkwyOTguOTUxLDI3Ny42NTJMMjk4LjkwMSwyNzcuODMzTDI5OC44NTEsMjc4LjAxMkwyOTguNzk5LDI3OC4xOTJMMjk4Ljc0NywyNzguMzcxTDI5OC42OTMsMjc4LjU0OUwyOTguNjM4LDI3OC43MjdMMjk4LjU4MiwyNzguOTA0TDI5OC41MjUsMjc5LjA4MUwyOTguNDY3LDI3OS4yNThMMjk4LjQwOCwyNzkuNDM0TDI5OC4zNDgsMjc5LjYwOUwyOTguMjg3LDI3OS43ODRMMjk4LjIyNSwyNzkuOTU5TDI5OC4xNjIsMjgwLjEzM0wyOTguMDk4LDI4MC4zMDdMMjk4LjAzMiwyODAuNDhMMjk3Ljk2NiwyODAuNjUyTDI5Ny44OTksMjgwLjgyNEwyOTcuODMxLDI4MC45OTZMMjk3Ljc2MSwyODEuMTY3TDI5Ny42OTEsMjgxLjMzN0wyOTcuNjIsMjgxLjUwN0wyOTcuNTQ3LDI4MS42NzdMMjk3LjQ3NCwyODEuODQ2TDI5Ny40LDI4Mi4wMTRMMjk3LjMyNCwyODIuMTgyTDI5Ny4yNDgsMjgyLjM0OUwyOTcuMTcxLDI4Mi41MTZMMjk3LjA5MiwyODIuNjgyTDI5Ny4wMTMsMjgyLjg0OEwyOTYuOTMzLDI4My4wMTNMMjk2Ljg1MiwyODMuMTc4TDI5Ni43NjksMjgzLjM0MkwyOTYuNjg2LDI4My41MDVMMjk2LjYwMiwyODMuNjY4TDI5Ni41MTcsMjgzLjgzTDI5Ni40MzEsMjgzLjk5MkwyOTYuMzQ0LDI4NC4xNTNMMjk2LjI1NiwyODQuMzE0TDI5Ni4xNjgsMjg0LjQ3NEwyOTYuMDc4LDI4NC42MzNMMjk1Ljk4NywyODQuNzkyTDI5NS44OTUsMjg0Ljk1TDI5NS44MDMsMjg1LjEwOEwyOTUuNzA5LDI4NS4yNjVMMjk1LjYxNSwyODUuNDIxTDI5NS41MiwyODUuNTc3TDI5NS40MjQsMjg1LjczMkwyOTUuMzI2LDI4NS44ODZMMjk1LjIyOCwyODYuMDRMMjk1LjEyOSwyODYuMTkzTDI5NS4wMywyODYuMzQ2TDI5NC45MjksMjg2LjQ5OEwyOTQuODI3LDI4Ni42NDlMMjk0LjcyNSwyODYuOEwyOTQuNjIxLDI4Ni45NUwyOTQuNTE3LDI4Ny4wOTlMMjk0LjQxMiwyODcuMjQ4TDI5NC4zMDYsMjg3LjM5NkwyOTQuMTk5LDI4Ny41NDNMMjk0LjA5MiwyODcuNjlMMjkzLjk4MywyODcuODM2TDI5My44NzQsMjg3Ljk4MUwyOTMuNzYzLDI4OC4xMjZMMjkzLjY1MiwyODguMjdMMjkzLjU0LDI4OC40MTNMMjkzLjQyNywyODguNTU2TDI5My4zMTQsMjg4LjY5OEwyOTMuMTk5LDI4OC44MzlMMjkzLjA4NCwyODguOThMMjkyLjk2OCwyODkuMTE5TDI5Mi44NTEsMjg5LjI1OUwyOTIuNzMzLDI4OS4zOTdMMjkyLjYxNSwyODkuNTM1TDI5Mi40OTUsMjg5LjY3MkwyOTIuMzc1LDI4OS44MDhMMjkyLjI1NCwyODkuOTQzTDI5Mi4xMzIsMjkwLjA3OEwyOTIuMDEsMjkwLjIxMkwyOTEuODg2LDI5MC4zNDZMMjkxLjc2MiwyOTAuNDc4TDI5MS42MzcsMjkwLjYxTDI5MS41MTIsMjkwLjc0MUwyOTEuMzg1LDI5MC44NzFMMjkxLjI1OCwyOTEuMDAxTDI5MS4xMywyOTEuMTNMMjkxLjAwMSwyOTEuMjU4TDI5MC44NzEsMjkxLjM4NUwyOTAuNzQxLDI5MS41MTJMMjkwLjYxLDI5MS42MzdMMjkwLjQ3OCwyOTEuNzYyTDI5MC4zNDYsMjkxLjg4NkwyOTAuMjEyLDI5Mi4wMUwyOTAuMDc4LDI5Mi4xMzJMMjg5Ljk0MywyOTIuMjU0TDI4OS44MDgsMjkyLjM3NUwyODkuNjcyLDI5Mi40OTVMMjg5LjUzNSwyOTIuNjE1TDI4OS4zOTcsMjkyLjczM0wyODkuMjU5LDI5Mi44NTFMMjg5LjExOSwyOTIuOTY4TDI4OC45OCwyOTMuMDg0TDI4OC44MzksMjkzLjE5OUwyODguNjk4LDI5My4zMTRMMjg4LjU1NiwyOTMuNDI3TDI4OC40MTMsMjkzLjU0TDI4OC4yNywyOTMuNjUyTDI4OC4xMjYsMjkzLjc2M0wyODcuOTgxLDI5My44NzRMMjg3LjgzNiwyOTMuOTgzTDI4Ny42OSwyOTQuMDkyTDI4Ny41NDMsMjk0LjE5OUwyODcuMzk2LDI5NC4zMDZMMjg3LjI0OCwyOTQuNDEyTDI4Ny4wOTksMjk0LjUxN0wyODYuOTUsMjk0LjYyMUwyODYuOCwyOTQuNzI1TDI4Ni42NDksMjk0LjgyN0wyODYuNDk4LDI5NC45MjlMMjg2LjM0NiwyOTUuMDNMMjg2LjE5MywyOTUuMTI5TDI4Ni4wNCwyOTUuMjI4TDI4NS44ODYsMjk1LjMyNkwyODUuNzMyLDI5NS40MjRMMjg1LjU3NywyOTUuNTJMMjg1LjQyMSwyOTUuNjE1TDI4NS4yNjUsMjk1LjcwOUwyODUuMTA4LDI5NS44MDNMMjg0Ljk1LDI5NS44OTVMMjg0Ljc5MiwyOTUuOTg3TDI4NC42MzMsMjk2LjA3OEwyODQuNDc0LDI5Ni4xNjhMMjg0LjMxNCwyOTYuMjU2TDI4NC4xNTMsMjk2LjM0NEwyODMuOTkyLDI5Ni40MzFMMjgzLjgzLDI5Ni41MTdMMjgzLjY2OCwyOTYuNjAyTDI4My41MDUsMjk2LjY4NkwyODMuMzQyLDI5Ni43NjlMMjgzLjE3OCwyOTYuODUyTDI4My4wMTMsMjk2LjkzM0wyODIuODQ4LDI5Ny4wMTNMMjgyLjY4MiwyOTcuMDkyTDI4Mi41MTYsMjk3LjE3MUwyODIuMzQ5LDI5Ny4yNDhMMjgyLjE4MiwyOTcuMzI0TDI4Mi4wMTQsMjk3LjRMMjgxLjg0NiwyOTcuNDc0TDI4MS42NzcsMjk3LjU0N0wyODEuNTA3LDI5Ny42MkwyODEuMzM3LDI5Ny42OTFMMjgxLjE2NywyOTcuNzYxTDI4MC45OTYsMjk3LjgzMUwyODAuODI0LDI5Ny44OTlMMjgwLjY1MiwyOTcuOTY2TDI4MC40OCwyOTguMDMyTDI4MC4zMDcsMjk4LjA5OEwyODAuMTMzLDI5OC4xNjJMMjc5Ljk1OSwyOTguMjI1TDI3OS43ODQsMjk4LjI4N0wyNzkuNjA5LDI5OC4zNDhMMjc5LjQzNCwyOTguNDA4TDI3OS4yNTgsMjk4LjQ2N0wyNzkuMDgxLDI5OC41MjVMMjc4LjkwNCwyOTguNTgyTDI3OC43MjcsMjk4LjYzOEwyNzguNTQ5LDI5OC42OTNMMjc4LjM3MSwyOTguNzQ3TDI3OC4xOTIsMjk4Ljc5OUwyNzguMDEyLDI5OC44NTFMMjc3LjgzMywyOTguOTAxTDI3Ny42NTIsMjk4Ljk1MUwyNzcuNDcyLDI5OC45OTlMMjc3LjI5MSwyOTkuMDQ2TDI3Ny4xMDksMjk5LjA5MkwyNzYuOTI3LDI5OS4xMzhMMjc2Ljc0NSwyOTkuMTgxTDI3Ni41NjIsMjk5LjIyNEwyNzYuMzc5LDI5OS4yNjZMMjc2LjE5NSwyOTkuMzA3TDI3Ni4wMTEsMjk5LjM0NkwyNzUuODI3LDI5OS4zODVMMjc1LjY0MiwyOTkuNDIyTDI3NS40NTcsMjk5LjQ1OEwyNzUuMjcxLDI5OS40OTNMMjc1LjA4NSwyOTkuNTI3TDI3NC44OTgsMjk5LjU2TDI3NC43MTIsMjk5LjU5MUwyNzQuNTI0LDI5OS42MjJMMjc0LjMzNywyOTkuNjUxTDI3NC4xNDksMjk5LjY3OUwyNzMuOTYsMjk5LjcwNkwyNzMuNzcyLDI5OS43MzJMMjczLjU4MywyOTkuNzU3TDI3My4zOTMsMjk5Ljc4TDI3My4yMDMsMjk5LjgwMkwyNzMuMDEzLDI5OS44MjRMMjcyLjgyMywyOTkuODQ0TDI3Mi42MzIsMjk5Ljg2MkwyNzIuNDQsMjk5Ljg4TDI3Mi4yNDksMjk5Ljg5NkwyNzIuMDU3LDI5OS45MTJMMjcxLjg2NSwyOTkuOTI2TDI3MS42NzIsMjk5LjkzOUwyNzEuNDc5LDI5OS45NUwyNzEuMjg2LDI5OS45NjFMMjcxLjA5MywyOTkuOTdMMjcwLjg5OSwyOTkuOTc4TDI3MC43MDUsMjk5Ljk4NUwyNzAuNTEsMjk5Ljk5TDI3MC4zMTUsMjk5Ljk5NEwyNzAuMTIsMjk5Ljk5OEwyNjkuOTI1LDI5OS45OTlMMjY5LjcyOSwzMDBMMzAuMjcxLDMwMEwzMC4wNzUsMjk5Ljk5OUwyOS44OCwyOTkuOTk4TDI5LjY4NSwyOTkuOTk0TDI5LjQ5LDI5OS45OUwyOS4yOTUsMjk5Ljk4NUwyOS4xMDEsMjk5Ljk3OEwyOC45MDcsMjk5Ljk3TDI4LjcxNCwyOTkuOTYxTDI4LjUyMSwyOTkuOTVMMjguMzI4LDI5OS45MzlMMjguMTM1LDI5OS45MjZMMjcuOTQzLDI5OS45MTJMMjcuNzUxLDI5OS44OTZMMjcuNTYsMjk5Ljg4TDI3LjM2OCwyOTkuODYyTDI3LjE3NywyOTkuODQ0TDI2Ljk4NywyOTkuODI0TDI2Ljc5NywyOTkuODAyTDI2LjYwNywyOTkuNzhMMjYuNDE3LDI5OS43NTdMMjYuMjI4LDI5OS43MzJMMjYuMDQsMjk5LjcwNkwyNS44NTEsMjk5LjY3OUwyNS42NjMsMjk5LjY1MUwyNS40NzYsMjk5LjYyMkwyNS4yODgsMjk5LjU5MUwyNS4xMDIsMjk5LjU2TDI0LjkxNSwyOTkuNTI3TDI0LjcyOSwyOTkuNDkzTDI0LjU0MywyOTkuNDU4TDI0LjM1OCwyOTkuNDIyTDI0LjE3MywyOTkuMzg1TDIzLjk4OSwyOTkuMzQ2TDIzLjgwNSwyOTkuMzA3TDIzLjYyMSwyOTkuMjY2TDIzLjQzOCwyOTkuMjI0TDIzLjI1NSwyOTkuMTgxTDIzLjA3MywyOTkuMTM4TDIyLjg5MSwyOTkuMDkyTDIyLjcwOSwyOTkuMDQ2TDIyLjUyOCwyOTguOTk5TDIyLjM0OCwyOTguOTUxTDIyLjE2NywyOTguOTAxTDIxLjk4OCwyOTguODUxTDIxLjgwOCwyOTguNzk5TDIxLjYyOSwyOTguNzQ3TDIxLjQ1MSwyOTguNjkzTDIxLjI3MywyOTguNjM4TDIxLjA5NiwyOTguNTgyTDIwLjkxOSwyOTguNTI1TDIwLjc0MiwyOTguNDY3TDIwLjU2NiwyOTguNDA4TDIwLjM5MSwyOTguMzQ4TDIwLjIxNiwyOTguMjg3TDIwLjA0MSwyOTguMjI1TDE5Ljg2NywyOTguMTYyTDE5LjY5MywyOTguMDk4TDE5LjUyLDI5OC4wMzJMMTkuMzQ4LDI5Ny45NjZMMTkuMTc2LDI5Ny44OTlMMTkuMDA0LDI5Ny44MzFMMTguODMzLDI5Ny43NjFMMTguNjYzLDI5Ny42OTFMMTguNDkzLDI5Ny42MkwxOC4zMjMsMjk3LjU0N0wxOC4xNTQsMjk3LjQ3NEwxNy45ODYsMjk3LjRMMTcuODE4LDI5Ny4zMjRMMTcuNjUxLDI5Ny4yNDhMMTcuNDg0LDI5Ny4xNzFMMTcuMzE4LDI5Ny4wOTJMMTcuMTUyLDI5Ny4wMTNMMTYuOTg3LDI5Ni45MzNMMTYuODIyLDI5Ni44NTJMMTYuNjU4LDI5Ni43NjlMMTYuNDk1LDI5Ni42ODZMMTYuMzMyLDI5Ni42MDJMMTYuMTcsMjk2LjUxN0wxNi4wMDgsMjk2LjQzMUwxNS44NDcsMjk2LjM0NEwxNS42ODYsMjk2LjI1NkwxNS41MjYsMjk2LjE2OEwxNS4zNjcsMjk2LjA3OEwxNS4yMDgsMjk1Ljk4N0wxNS4wNSwyOTUuODk1TDE0Ljg5MiwyOTUuODAzTDE0LjczNSwyOTUuNzA5TDE0LjU3OSwyOTUuNjE1TDE0LjQyMywyOTUuNTJMMTQuMjY4LDI5NS40MjRMMTQuMTE0LDI5NS4zMjZMMTMuOTYsMjk1LjIyOEwxMy44MDcsMjk1LjEyOUwxMy42NTQsMjk1LjAzTDEzLjUwMiwyOTQuOTI5TDEzLjM1MSwyOTQuODI3TDEzLjIsMjk0LjcyNUwxMy4wNSwyOTQuNjIxTDEyLjkwMSwyOTQuNTE3TDEyLjc1MiwyOTQuNDEyTDEyLjYwNCwyOTQuMzA2TDEyLjQ1NywyOTQuMTk5TDEyLjMxLDI5NC4wOTJMMTIuMTY0LDI5My45ODNMMTIuMDE5LDI5My44NzRMMTEuODc0LDI5My43NjNMMTEuNzMsMjkzLjY1MkwxMS41ODcsMjkzLjU0TDExLjQ0NCwyOTMuNDI3TDExLjMwMiwyOTMuMzE0TDExLjE2MSwyOTMuMTk5TDExLjAyLDI5My4wODRMMTAuODgxLDI5Mi45NjhMMTAuNzQxLDI5Mi44NTFMMTAuNjAzLDI5Mi43MzNMMTAuNDY1LDI5Mi42MTVMMTAuMzI4LDI5Mi40OTVMMTAuMTkyLDI5Mi4zNzVMMTAuMDU3LDI5Mi4yNTRMOS45MjIsMjkyLjEzMkw5Ljc4OCwyOTIuMDFMOS42NTQsMjkxLjg4Nkw5LjUyMiwyOTEuNzYyTDkuMzksMjkxLjYzN0w5LjI1OSwyOTEuNTEyTDkuMTI5LDI5MS4zODVMOC45OTksMjkxLjI1OEw4Ljg3LDI5MS4xM0w4Ljc0MiwyOTEuMDAxTDguNjE1LDI5MC44NzFMOC40ODgsMjkwLjc0MUw4LjM2MywyOTAuNjFMOC4yMzgsMjkwLjQ3OEw4LjExNCwyOTAuMzQ2TDcuOTksMjkwLjIxMkw3Ljg2OCwyOTAuMDc4TDcuNzQ2LDI4OS45NDNMNy42MjUsMjg5LjgwOEw3LjUwNSwyODkuNjcyTDcuMzg1LDI4OS41MzVMNy4yNjcsMjg5LjM5N0w3LjE0OSwyODkuMjU5TDcuMDMyLDI4OS4xMTlMNi45MTYsMjg4Ljk4TDYuODAxLDI4OC44MzlMNi42ODYsMjg4LjY5OEw2LjU3MywyODguNTU2TDYuNDYsMjg4LjQxM0w2LjM0OCwyODguMjdMNi4yMzcsMjg4LjEyNkw2LjEyNiwyODcuOTgxTDYuMDE3LDI4Ny44MzZMNS45MDgsMjg3LjY5TDUuODAxLDI4Ny41NDNMNS42OTQsMjg3LjM5Nkw1LjU4OCwyODcuMjQ4TDUuNDgzLDI4Ny4wOTlMNS4zNzksMjg2Ljk1TDUuMjc1LDI4Ni44TDUuMTczLDI4Ni42NDlMNS4wNzEsMjg2LjQ5OEw0Ljk3LDI4Ni4zNDZMNC44NzEsMjg2LjE5M0w0Ljc3MiwyODYuMDRMNC42NzQsMjg1Ljg4Nkw0LjU3NiwyODUuNzMyTDQuNDgsMjg1LjU3N0w0LjM4NSwyODUuNDIxTDQuMjkxLDI4NS4yNjVMNC4xOTcsMjg1LjEwOEw0LjEwNSwyODQuOTVMNC4wMTMsMjg0Ljc5MkwzLjkyMiwyODQuNjMzTDMuODMyLDI4NC40NzRMMy43NDQsMjg0LjMxNEwzLjY1NiwyODQuMTUzTDMuNTY5LDI4My45OTJMMy40ODMsMjgzLjgzTDMuMzk4LDI4My42NjhMMy4zMTQsMjgzLjUwNUwzLjIzMSwyODMuMzQyTDMuMTQ4LDI4My4xNzhMMy4wNjcsMjgzLjAxM0wyLjk4NywyODIuODQ4TDIuOTA4LDI4Mi42ODJMMi44MjksMjgyLjUxNkwyLjc1MiwyODIuMzQ5TDIuNjc2LDI4Mi4xODJMMi42LDI4Mi4wMTRMMi41MjYsMjgxLjg0NkwyLjQ1MywyODEuNjc3TDIuMzgsMjgxLjUwN0wyLjMwOSwyODEuMzM3TDIuMjM5LDI4MS4xNjdMMi4xNjksMjgwLjk5NkwyLjEwMSwyODAuODI0TDIuMDM0LDI4MC42NTJMMS45NjgsMjgwLjQ4TDEuOTAyLDI4MC4zMDdMMS44MzgsMjgwLjEzM0wxLjc3NSwyNzkuOTU5TDEuNzEzLDI3OS43ODRMMS42NTIsMjc5LjYwOUwxLjU5MiwyNzkuNDM0TDEuNTMzLDI3OS4yNThMMS40NzUsMjc5LjA4MUwxLjQxOCwyNzguOTA0TDEuMzYyLDI3OC43MjdMMS4zMDcsMjc4LjU0OUwxLjI1MywyNzguMzcxTDEuMjAxLDI3OC4xOTJMMS4xNDksMjc4LjAxMkwxLjA5OSwyNzcuODMzTDEuMDQ5LDI3Ny42NTJMMS4wMDEsMjc3LjQ3MkwwLjk1NCwyNzcuMjkxTDAuOTA4LDI3Ny4xMDlMMC44NjIsMjc2LjkyN0wwLjgxOSwyNzYuNzQ1TDAuNzc2LDI3Ni41NjJMMC43MzQsMjc2LjM3OUwwLjY5MywyNzYuMTk1TDAuNjU0LDI3Ni4wMTFMMC42MTUsMjc1LjgyN0wwLjU3OCwyNzUuNjQyTDAuNTQyLDI3NS40NTdMMC41MDcsMjc1LjI3MUwwLjQ3MywyNzUuMDg1TDAuNDQsMjc0Ljg5OEwwLjQwOSwyNzQuNzEyTDAuMzc4LDI3NC41MjRMMC4zNDksMjc0LjMzN0wwLjMyMSwyNzQuMTQ5TDAuMjk0LDI3My45NkwwLjI2OCwyNzMuNzcyTDAuMjQzLDI3My41ODNMMC4yMiwyNzMuMzkzTDAuMTk4LDI3My4yMDNMMC4xNzYsMjczLjAxM0wwLjE1NiwyNzIuODIzTDAuMTM4LDI3Mi42MzJMMC4xMiwyNzIuNDRMMC4xMDQsMjcyLjI0OUwwLjA4OCwyNzIuMDU3TDAuMDc0LDI3MS44NjVMMC4wNjEsMjcxLjY3MkwwLjA1LDI3MS40NzlMMC4wMzksMjcxLjI4NkwwLjAzLDI3MS4wOTNMMC4wMjIsMjcwLjg5OUwwLjAxNSwyNzAuNzA1TDAuMDEsMjcwLjUxTDAuMDA2LDI3MC4zMTVMMC4wMDIsMjcwLjEyTDAuMDAxLDI2OS45MjVMMCwyNjkuNzI5TDAsMzAuMjcxTDAuMDAxLDMwLjA3NUwwLjAwMiwyOS44OEwwLjAwNiwyOS42ODVMMC4wMSwyOS40OUwwLjAxNSwyOS4yOTVMMC4wMjIsMjkuMTAxTDAuMDMsMjguOTA3TDAuMDM5LDI4LjcxNEwwLjA1LDI4LjUyMUwwLjA2MSwyOC4zMjhMMC4wNzQsMjguMTM1TDAuMDg4LDI3Ljk0M0wwLjEwNCwyNy43NTFMMC4xMiwyNy41NkwwLjEzOCwyNy4zNjhMMC4xNTYsMjcuMTc3TDAuMTc2LDI2Ljk4N0wwLjE5OCwyNi43OTdMMC4yMiwyNi42MDdMMC4yNDMsMjYuNDE3TDAuMjY4LDI2LjIyOEwwLjI5NCwyNi4wNEwwLjMyMSwyNS44NTFMMC4zNDksMjUuNjYzTDAuMzc4LDI1LjQ3NkwwLjQwOSwyNS4yODhMMC40NCwyNS4xMDJMMC40NzMsMjQuOTE1TDAuNTA3LDI0LjcyOUwwLjU0MiwyNC41NDNMMC41NzgsMjQuMzU4TDAuNjE1LDI0LjE3M0wwLjY1NCwyMy45ODlMMC42OTMsMjMuODA1TDAuNzM0LDIzLjYyMUwwLjc3NiwyMy40MzhMMC44MTksMjMuMjU1TDAuODYyLDIzLjA3M0wwLjkwOCwyMi44OTFMMC45NTQsMjIuNzA5TDEuMDAxLDIyLjUyOEwxLjA0OSwyMi4zNDhMMS4wOTksMjIuMTY3TDEuMTQ5LDIxLjk4OEwxLjIwMSwyMS44MDhMMS4yNTMsMjEuNjI5TDEuMzA3LDIxLjQ1MUwxLjM2MiwyMS4yNzNMMS40MTgsMjEuMDk2TDEuNDc1LDIwLjkxOUwxLjUzMywyMC43NDJMMS41OTIsMjAuNTY2TDEuNjUyLDIwLjM5MUwxLjcxMywyMC4yMTZMMS43NzUsMjAuMDQxTDEuODM4LDE5Ljg2N0wxLjkwMiwxOS42OTNMMS45NjgsMTkuNTJMMi4wMzQsMTkuMzQ4TDIuMTAxLDE5LjE3NkwyLjE2OSwxOS4wMDRMMi4yMzksMTguODMzTDIuMzA5LDE4LjY2M0wyLjM4LDE4LjQ5M0wyLjQ1MywxOC4zMjNMMi41MjYsMTguMTU0TDIuNiwxNy45ODZMMi42NzYsMTcuODE4TDIuNzUyLDE3LjY1MUwyLjgyOSwxNy40ODRMMi45MDgsMTcuMzE4TDIuOTg3LDE3LjE1MkwzLjA2NywxNi45ODdMMy4xNDgsMTYuODIyTDMuMjMxLDE2LjY1OEwzLjMxNCwxNi40OTVMMy4zOTgsMTYuMzMyTDMuNDgzLDE2LjE3TDMuNTY5LDE2LjAwOEwzLjY1NiwxNS44NDdMMy43NDQsMTUuNjg2TDMuODMyLDE1LjUyNkwzLjkyMiwxNS4zNjdMNC4wMTMsMTUuMjA4TDQuMTA1LDE1LjA1TDQuMTk3LDE0Ljg5Mkw0LjI5MSwxNC43MzVMNC4zODUsMTQuNTc5TDQuNDgsMTQuNDIzTDQuNTc2LDE0LjI2OEw0LjY3NCwxNC4xMTRMNC43NzIsMTMuOTZMNC44NzEsMTMuODA3TDQuOTcsMTMuNjU0TDUuMDcxLDEzLjUwMkw1LjE3MywxMy4zNTFMNS4yNzUsMTMuMkw1LjM3OSwxMy4wNUw1LjQ4MywxMi45MDFMNS41ODgsMTIuNzUyTDUuNjk0LDEyLjYwNEw1LjgwMSwxMi40NTdMNS45MDgsMTIuMzFMNi4wMTcsMTIuMTY0TDYuMTI2LDEyLjAxOUw2LjIzNywxMS44NzRMNi4zNDgsMTEuNzNMNi40NiwxMS41ODdMNi41NzMsMTEuNDQ0TDYuNjg2LDExLjMwMkw2LjgwMSwxMS4xNjFMNi45MTYsMTEuMDJMNy4wMzIsMTAuODgxTDcuMTQ5LDEwLjc0MUw3LjI2NywxMC42MDNMNy4zODUsMTAuNDY1TDcuNTA1LDEwLjMyOEw3LjYyNSwxMC4xOTJMNy43NDYsMTAuMDU3TDcuODY4LDkuOTIyTDcuOTksOS43ODhMOC4xMTQsOS42NTRMOC4yMzgsOS41MjJMOC4zNjMsOS4zOUw4LjQ4OCw5LjI1OUw4LjYxNSw5LjEyOUw4Ljc0Miw4Ljk5OUw4Ljg3LDguODdMOC45OTksOC43NDJMOS4xMjksOC42MTVMOS4yNTksOC40ODhMOS4zOSw4LjM2M0w5LjUyMiw4LjIzOEw5LjY1NCw4LjExNEw5Ljc4OCw3Ljk5TDkuOTIyLDcuODY4TDEwLjA1Nyw3Ljc0NkwxMC4xOTIsNy42MjVMMTAuMzI4LDcuNTA1TDEwLjQ2NSw3LjM4NUwxMC42MDMsNy4yNjdMMTAuNzQxLDcuMTQ5TDEwLjg4MSw3LjAzMkwxMS4wMiw2LjkxNkwxMS4xNjEsNi44MDFMMTEuMzAyLDYuNjg2TDExLjQ0NCw2LjU3M0wxMS41ODcsNi40NkwxMS43Myw2LjM0OEwxMS44NzQsNi4yMzdMMTIuMDE5LDYuMTI2TDEyLjE2NCw2LjAxN0wxMi4zMSw1LjkwOEwxMi40NTcsNS44MDFMMTIuNjA0LDUuNjk0TDEyLjc1Miw1LjU4OEwxMi45MDEsNS40ODNMMTMuMDUsNS4zNzlMMTMuMiw1LjI3NUwxMy4zNTEsNS4xNzNMMTMuNTAyLDUuMDcxTDEzLjY1NCw0Ljk3TDEzLjgwNyw0Ljg3MUwxMy45Niw0Ljc3MkwxNC4xMTQsNC42NzRMMTQuMjY4LDQuNTc2TDE0LjQyMyw0LjQ4TDE0LjU3OSw0LjM4NUwxNC43MzUsNC4yOTFMMTQuODkyLDQuMTk3TDE1LjA1LDQuMTA1TDE1LjIwOCw0LjAxM0wxNS4zNjcsMy45MjJMMTUuNTI2LDMuODMyTDE1LjY4NiwzLjc0NEwxNS44NDcsMy42NTZMMTYuMDA4LDMuNTY5TDE2LjE3LDMuNDgzTDE2LjMzMiwzLjM5OEwxNi40OTUsMy4zMTRMMTYuNjU4LDMuMjMxTDE2LjgyMiwzLjE0OEwxNi45ODcsMy4wNjdMMTcuMTUyLDIuOTg3TDE3LjMxOCwyLjkwOEwxNy40ODQsMi44MjlMMTcuNjUxLDIuNzUyTDE3LjgxOCwyLjY3NkwxNy45ODYsMi42TDE4LjE1NCwyLjUyNkwxOC4zMjMsMi40NTNMMTguNDkzLDIuMzhMMTguNjYzLDIuMzA5TDE4LjgzMywyLjIzOUwxOS4wMDQsMi4xNjlMMTkuMTc2LDIuMTAxTDE5LjM0OCwyLjAzNEwxOS41MiwxLjk2OEwxOS42OTMsMS45MDJMMTkuODY3LDEuODM4TDIwLjA0MSwxLjc3NUwyMC4yMTYsMS43MTNMMjAuMzkxLDEuNjUyTDIwLjU2NiwxLjU5MkwyMC43NDIsMS41MzNMMjAuOTE5LDEuNDc1TDIxLjA5NiwxLjQxOEwyMS4yNzMsMS4zNjJMMjEuNDUxLDEuMzA3TDIxLjYyOSwxLjI1M0wyMS44MDgsMS4yMDFMMjEuOTg4LDEuMTQ5TDIyLjE2NywxLjA5OUwyMi4zNDgsMS4wNDlMMjIuNTI4LDEuMDAxTDIyLjcwOSwwLjk1NEwyMi44OTEsMC45MDhMMjMuMDczLDAuODYyTDIzLjI1NSwwLjgxOUwyMy40MzgsMC43NzZMMjMuNjIxLDAuNzM0TDIzLjgwNSwwLjY5M0wyMy45ODksMC42NTRMMjQuMTczLDAuNjE1TDI0LjM1OCwwLjU3OEwyNC41NDMsMC41NDJMMjQuNzI5LDAuNTA3TDI0LjkxNSwwLjQ3M0wyNS4xMDIsMC40NEwyNS4yODgsMC40MDlMMjUuNDc2LDAuMzc4TDI1LjY2MywwLjM0OUwyNS44NTEsMC4zMjFMMjYuMDQsMC4yOTRMMjYuMjI4LDAuMjY4TDI2LjQxNywwLjI0M0wyNi42MDcsMC4yMkwyNi43OTcsMC4xOThMMjYuOTg3LDAuMTc2TDI3LjE3NywwLjE1NkwyNy4zNjgsMC4xMzhMMjcuNTYsMC4xMkwyNy43NTEsMC4xMDRMMjcuOTQzLDAuMDg4TDI4LjEzNSwwLjA3NEwyOC4zMjgsMC4wNjFMMjguNTIxLDAuMDVMMjguNzE0LDAuMDM5TDI4LjkwNywwLjAzTDI5LjEwMSwwLjAyMkwyOS4yOTUsMC4wMTVMMjkuNDksMC4wMUwyOS42ODUsMC4wMDZMMjkuODgsMC4wMDJMMzAuMDc1LDAuMDAxTDMwLjI3MSwwTDI2OS43MjksMEwyNjkuOTI1LDAuMDAxWk0zMC4yOTYsMTZMMzAuMTc2LDE2TDMwLjA4MywxNi4wMDFMMjkuOTg5LDE2LjAwM0wyOS44OTYsMTYuMDA1TDI5LjgwMywxNi4wMDdMMjkuNzEsMTYuMDExTDI5LjYxNywxNi4wMTVMMjkuNTI1LDE2LjAxOUwyOS40MzMsMTYuMDI0TDI5LjM0MSwxNi4wMjlMMjkuMjUsMTYuMDM2TDI5LjE1OSwxNi4wNDJMMjkuMDY4LDE2LjA0OUwyOC45NzcsMTYuMDU3TDI4Ljg4NiwxNi4wNjZMMjguNzk2LDE2LjA3NEwyOC43MDYsMTYuMDg0TDI4LjYxNiwxNi4wOTRMMjguNTI3LDE2LjEwNEwyOC40MzgsMTYuMTE1TDI4LjM0OCwxNi4xMjdMMjguMjYsMTYuMTM5TDI4LjE3MSwxNi4xNTJMMjguMDgzLDE2LjE2NUwyNy45OTUsMTYuMTc5TDI3LjkwNywxNi4xOTNMMjcuODE5LDE2LjIwOEwyNy43MzIsMTYuMjIzTDI3LjY0NCwxNi4yMzlMMjcuNTU3LDE2LjI1NkwyNy40NzEsMTYuMjczTDI3LjM4NCwxNi4yOUwyNy4yOTgsMTYuMzA4TDI3LjIxMiwxNi4zMjZMMjcuMTI2LDE2LjM0NUwyNy4wNCwxNi4zNjVMMjYuOTU1LDE2LjM4NUwyNi44NywxNi40MDZMMjYuNzg1LDE2LjQyN0wyNi43LDE2LjQ0OEwyNi42MTUsMTYuNDdMMjYuNTMxLDE2LjQ5M0wyNi40NDcsMTYuNTE2TDI2LjM2MywxNi41MzlMMjYuMjc5LDE2LjU2NEwyNi4xOTUsMTYuNTg4TDI2LjExMiwxNi42MTNMMjYuMDI5LDE2LjYzOUwyNS45NDYsMTYuNjY1TDI1Ljg2NCwxNi42OTFMMjUuNzgxLDE2LjcxOUwyNS42OTksMTYuNzQ2TDI1LjYxNywxNi43NzRMMjUuNTM1LDE2LjgwM0wyNS40NTQsMTYuODMyTDI1LjM3MiwxNi44NjFMMjUuMjkxLDE2Ljg5MUwyNS4yMSwxNi45MjJMMjUuMTI5LDE2Ljk1M0wyNS4wNDksMTYuOTg0TDI0Ljk2OSwxNy4wMTZMMjQuODg5LDE3LjA0OUwyNC44MDksMTcuMDgyTDI0LjcyOSwxNy4xMTVMMjQuNjUsMTcuMTQ5TDI0LjU3MSwxNy4xODNMMjQuNDkyLDE3LjIxOEwyNC40MTMsMTcuMjUzTDI0LjMzNSwxNy4yODlMMjQuMjU3LDE3LjMyNUwyNC4xNzksMTcuMzYyTDI0LjEwMSwxNy4zOTlMMjQuMDIzLDE3LjQzN0wyMy45NDYsMTcuNDc1TDIzLjg2OSwxNy41MTRMMjMuNzkyLDE3LjU1M0wyMy43MTYsMTcuNTkyTDIzLjYzOSwxNy42MzJMMjMuNTYzLDE3LjY3M0wyMy40ODcsMTcuNzE0TDIzLjQxMiwxNy43NTVMMjMuMzM3LDE3Ljc5N0wyMy4yNjIsMTcuODM5TDIzLjE4NywxNy44ODJMMjMuMTEyLDE3LjkyNUwyMy4wMzgsMTcuOTY5TDIyLjk2NCwxOC4wMTNMMjIuODksMTguMDU3TDIyLjgxNywxOC4xMDJMMjIuNzQ0LDE4LjE0OEwyMi42NzEsMTguMTkzTDIyLjU5OCwxOC4yNEwyMi41MjYsMTguMjg2TDIyLjQ1MywxOC4zMzRMMjIuMzgyLDE4LjM4MUwyMi4zMSwxOC40MjlMMjIuMjM5LDE4LjQ3OEwyMi4xNjgsMTguNTI3TDIyLjA5NywxOC41NzZMMjIuMDI3LDE4LjYyNkwyMS45NTcsMTguNjc2TDIxLjg4NywxOC43MjdMMjEuODE3LDE4Ljc3OEwyMS43NDgsMTguODI5TDIxLjY3OSwxOC44ODFMMjEuNjExLDE4LjkzM0wyMS41NDIsMTguOTg2TDIxLjQ3NCwxOS4wMzlMMjEuNDA3LDE5LjA5MkwyMS4zMzksMTkuMTQ2TDIxLjI3MiwxOS4yMDFMMjEuMjA2LDE5LjI1NUwyMS4xMzksMTkuMzExTDIxLjA3MywxOS4zNjZMMjEuMDA3LDE5LjQyMkwyMC45NDIsMTkuNDc4TDIwLjg3NywxOS41MzVMMjAuODEyLDE5LjU5MkwyMC43NDgsMTkuNjVMMjAuNjg0LDE5LjcwN0wyMC42MiwxOS43NjZMMjAuNTU3LDE5LjgyNEwyMC40OTQsMTkuODgzTDIwLjQzMSwxOS45NDNMMjAuMzY5LDIwLjAwM0wyMC4zMDcsMjAuMDYzTDIwLjI0NSwyMC4xMjNMMjAuMTg0LDIwLjE4NEwyMC4xMjMsMjAuMjQ1TDIwLjA2MywyMC4zMDdMMjAuMDAzLDIwLjM2OUwxOS45NDMsMjAuNDMxTDE5Ljg4MywyMC40OTRMMTkuODI0LDIwLjU1N0wxOS43NjYsMjAuNjJMMTkuNzA3LDIwLjY4NEwxOS42NSwyMC43NDhMMTkuNTkyLDIwLjgxMkwxOS41MzUsMjAuODc3TDE5LjQ3OCwyMC45NDJMMTkuNDIyLDIxLjAwN0wxOS4zNjYsMjEuMDczTDE5LjMxMSwyMS4xMzlMMTkuMjU1LDIxLjIwNkwxOS4yMDEsMjEuMjcyTDE5LjE0NiwyMS4zMzlMMTkuMDkyLDIxLjQwN0wxOS4wMzksMjEuNDc0TDE4Ljk4NiwyMS41NDJMMTguOTMzLDIxLjYxMUwxOC44ODEsMjEuNjc5TDE4LjgyOSwyMS43NDhMMTguNzc4LDIxLjgxN0wxOC43MjcsMjEuODg3TDE4LjY3NiwyMS45NTdMMTguNjI2LDIyLjAyN0wxOC41NzYsMjIuMDk3TDE4LjUyNywyMi4xNjhMMTguNDc4LDIyLjIzOUwxOC40MjksMjIuMzFMMTguMzgxLDIyLjM4MkwxOC4zMzQsMjIuNDUzTDE4LjI4NiwyMi41MjZMMTguMjQsMjIuNTk4TDE4LjE5MywyMi42NzFMMTguMTQ4LDIyLjc0NEwxOC4xMDIsMjIuODE3TDE4LjA1NywyMi44OUwxOC4wMTMsMjIuOTY0TDE3Ljk2OSwyMy4wMzhMMTcuOTI1LDIzLjExMkwxNy44ODIsMjMuMTg3TDE3LjgzOSwyMy4yNjJMMTcuNzk3LDIzLjMzN0wxNy43NTUsMjMuNDEyTDE3LjcxNCwyMy40ODdMMTcuNjczLDIzLjU2M0wxNy42MzIsMjMuNjM5TDE3LjU5MiwyMy43MTZMMTcuNTUzLDIzLjc5MkwxNy41MTQsMjMuODY5TDE3LjQ3NSwyMy45NDZMMTcuNDM3LDI0LjAyM0wxNy4zOTksMjQuMTAxTDE3LjM2MiwyNC4xNzlMMTcuMzI1LDI0LjI1N0wxNy4yODksMjQuMzM1TDE3LjI1MywyNC40MTNMMTcuMjE4LDI0LjQ5MkwxNy4xODMsMjQuNTcxTDE3LjE0OSwyNC42NUwxNy4xMTUsMjQuNzI5TDE3LjA4MiwyNC44MDlMMTcuMDQ5LDI0Ljg4OUwxNy4wMTYsMjQuOTY5TDE2Ljk4NCwyNS4wNDlMMTYuOTUzLDI1LjEyOUwxNi45MjIsMjUuMjFMMTYuODkxLDI1LjI5MUwxNi44NjEsMjUuMzcyTDE2LjgzMiwyNS40NTRMMTYuODAzLDI1LjUzNUwxNi43NzQsMjUuNjE3TDE2Ljc0NiwyNS42OTlMMTYuNzE5LDI1Ljc4MUwxNi42OTEsMjUuODY0TDE2LjY2NSwyNS45NDZMMTYuNjM5LDI2LjAyOUwxNi42MTMsMjYuMTEyTDE2LjU4OCwyNi4xOTVMMTYuNTY0LDI2LjI3OUwxNi41MzksMjYuMzYzTDE2LjUxNiwyNi40NDdMMTYuNDkzLDI2LjUzMUwxNi40NywyNi42MTVMMTYuNDQ4LDI2LjdMMTYuNDI3LDI2Ljc4NUwxNi40MDYsMjYuODdMMTYuMzg1LDI2Ljk1NUwxNi4zNjUsMjcuMDRMMTYuMzQ1LDI3LjEyNkwxNi4zMjYsMjcuMjEyTDE2LjMwOCwyNy4yOThMMTYuMjksMjcuMzg0TDE2LjI3MywyNy40NzFMMTYuMjU2LDI3LjU1N0wxNi4yMzksMjcuNjQ0TDE2LjIyMywyNy43MzJMMTYuMjA4LDI3LjgxOUwxNi4xOTMsMjcuOTA3TDE2LjE3OSwyNy45OTVMMTYuMTY1LDI4LjA4M0wxNi4xNTIsMjguMTcxTDE2LjEzOSwyOC4yNkwxNi4xMjcsMjguMzQ4TDE2LjExNSwyOC40MzhMMTYuMTA0LDI4LjUyN0wxNi4wOTQsMjguNjE2TDE2LjA4NCwyOC43MDZMMTYuMDc0LDI4Ljc5NkwxNi4wNjYsMjguODg2TDE2LjA1NywyOC45NzdMMTYuMDQ5LDI5LjA2OEwxNi4wNDIsMjkuMTU5TDE2LjAzNiwyOS4yNUwxNi4wMjksMjkuMzQxTDE2LjAyNCwyOS40MzNMMTYuMDE5LDI5LjUyNUwxNi4wMTUsMjkuNjE3TDE2LjAxMSwyOS43MUwxNi4wMDcsMjkuODAzTDE2LjAwNSwyOS44OTZMMTYuMDAzLDI5Ljk4OUwxNi4wMDEsMzAuMDgzTDE2LDMwLjE3NkwxNiwyNjkuODI0TDE2LjAwMSwyNjkuOTE3TDE2LjAwNSwyNzAuMTA0TDE2LjAwNywyNzAuMTk3TDE2LjAxNSwyNzAuMzgzTDE2LjAxOSwyNzAuNDc1TDE2LjAyOSwyNzAuNjU5TDE2LjAzNiwyNzAuNzVMMTYuMDQyLDI3MC44NDFMMTYuMDQ5LDI3MC45MzJMMTYuMDU3LDI3MS4wMjNMMTYuMDY2LDI3MS4xMTRMMTYuMDc0LDI3MS4yMDRMMTYuMDk0LDI3MS4zODRMMTYuMTA0LDI3MS40NzNMMTYuMTE1LDI3MS41NjJMMTYuMTI3LDI3MS42NTJMMTYuMTM5LDI3MS43NEwxNi4xNTIsMjcxLjgyOUwxNi4xNjUsMjcxLjkxN0wxNi4xOTMsMjcyLjA5M0wxNi4yMDgsMjcyLjE4MUwxNi4yMjMsMjcyLjI2OEwxNi4yMzksMjcyLjM1NUwxNi4yOSwyNzIuNjE2TDE2LjMwOCwyNzIuNzAyTDE2LjMyNywyNzIuNzg4TDE2LjM0NSwyNzIuODc0TDE2LjM2NSwyNzIuOTZMMTYuMzg1LDI3My4wNDVMMTYuNDA2LDI3My4xM0wxNi40MjcsMjczLjIxNkwxNi40NDgsMjczLjNMMTYuNDcsMjczLjM4NUwxNi41MzksMjczLjYzN0wxNi41NjQsMjczLjcyMUwxNi41ODgsMjczLjgwNUwxNi42MTMsMjczLjg4OEwxNi42OTEsMjc0LjEzN0wxNi43MTksMjc0LjIxOUwxNi43NDYsMjc0LjMwMUwxNi43NzQsMjc0LjM4M0wxNi44MDMsMjc0LjQ2NUwxNi44MzIsMjc0LjU0NkwxNi44NjEsMjc0LjYyOEwxNi44OTEsMjc0LjcwOUwxNi45NTMsMjc0Ljg3MUwxNi45ODQsMjc0Ljk1MUwxNy4wMTYsMjc1LjAzMUwxNy4xMTUsMjc1LjI3MUwxNy4xNDksMjc1LjM1MUwxNy4xODMsMjc1LjQyOUwxNy4yNTMsMjc1LjU4N0wxNy4zMjUsMjc1Ljc0M0wxNy4zOTksMjc1Ljg5OUwxNy40MzcsMjc1Ljk3N0wxNy40NzUsMjc2LjA1NEwxNy41OTIsMjc2LjI4NUwxNy42MzIsMjc2LjM2MUwxNy42NzIsMjc2LjQzNkwxNy43MTMsMjc2LjUxMkwxNy43NTUsMjc2LjU4OUwxNy43OTcsMjc2LjY2M0wxNy44MzksMjc2LjczOEwxNy44ODIsMjc2LjgxM0wxNy45MjUsMjc2Ljg4N0wxNy45NjksMjc2Ljk2MkwxOC4wNTcsMjc3LjExTDE4LjE0NywyNzcuMjU2TDE4LjE5NCwyNzcuMzNMMTguMjg2LDI3Ny40NzRMMTguMzM0LDI3Ny41NDdMMTguMzgyLDI3Ny42MTlMMTguNDI5LDI3Ny42OUwxOC40NzgsMjc3Ljc2MUwxOC41MjYsMjc3LjgzMkwxOC41NzYsMjc3LjkwM0wxOC42MjYsMjc3Ljk3M0wxOC42NzYsMjc4LjA0NEwxOC43MjcsMjc4LjExM0wxOC43NzcsMjc4LjE4MkwxOC44MjksMjc4LjI1MkwxOC44ODEsMjc4LjMyMUwxOC45MzMsMjc4LjM4OUwxOC45ODYsMjc4LjQ1OEwxOS4wMzksMjc4LjUyNkwxOS4wOTIsMjc4LjU5M0wxOS4xNDcsMjc4LjY2MUwxOS4yMDEsMjc4LjcyOEwxOS4yNTYsMjc4Ljc5NUwxOS4zMSwyNzguODZMMTkuMzY2LDI3OC45MjdMMTkuNDIyLDI3OC45OTNMMTkuNDc4LDI3OS4wNThMMTkuNTkyLDI3OS4xODhMMTkuNjQ5LDI3OS4yNTJMMTkuNzA3LDI3OS4zMTZMMTkuODI1LDI3OS40NDRMMTkuODg0LDI3OS41MDZMMTkuOTQyLDI3OS41NjhMMjAuMDAzLDI3OS42MzJMMjAuMDYzLDI3OS42OTNMMjAuMTIzLDI3OS43NTVMMjAuMjQ1LDI3OS44NzdMMjAuMzA3LDI3OS45MzhMMjAuMzY4LDI3OS45OTdMMjAuNDk0LDI4MC4xMTdMMjAuNTU3LDI4MC4xNzZMMjAuNjIsMjgwLjIzNEwyMC42ODQsMjgwLjI5M0wyMC43NDgsMjgwLjM1TDIwLjgxMiwyODAuNDA4TDIwLjk0MiwyODAuNTIyTDIxLjAwNywyODAuNTc4TDIxLjA3MywyODAuNjM0TDIxLjEzOSwyODAuNjg5TDIxLjIwNiwyODAuNzQ1TDIxLjI3MiwyODAuNzk5TDIxLjM0LDI4MC44NTRMMjEuNDA3LDI4MC45MDhMMjEuNDc0LDI4MC45NjFMMjEuNjEsMjgxLjA2N0wyMS42NzgsMjgxLjExOUwyMS43NDgsMjgxLjE3MUwyMS44MTcsMjgxLjIyM0wyMS44ODYsMjgxLjI3M0wyMS45NTcsMjgxLjMyNEwyMi4wOTcsMjgxLjQyNEwyMi4xNjgsMjgxLjQ3NEwyMi4yMzksMjgxLjUyMkwyMi4zMSwyODEuNTcxTDIyLjM4MSwyODEuNjE5TDIyLjQ1NCwyODEuNjY2TDIyLjUyNiwyODEuNzE0TDIyLjU5OCwyODEuNzYxTDIyLjY3LDI4MS44MDZMMjIuNzQzLDI4MS44NTJMMjIuODE3LDI4MS44OThMMjIuODksMjgxLjk0M0wyMi45NjQsMjgxLjk4N0wyMy4wMzgsMjgyLjAzMkwyMy4xODYsMjgyLjExOEwyMy4yNjIsMjgyLjE2MUwyMy4zMzYsMjgyLjIwM0wyMy40MTEsMjgyLjI0NUwyMy41NjMsMjgyLjMyN0wyMy42NCwyODIuMzY4TDIzLjcxNiwyODIuNDA4TDIzLjc5MywyODIuNDQ3TDIzLjg2OSwyODIuNDg3TDI0LjEsMjgyLjYwMUwyNC4xNzgsMjgyLjYzOEwyNC4yNTYsMjgyLjY3NEwyNC4zMzUsMjgyLjcxMUwyNC40MTQsMjgyLjc0N0wyNC41NywyODIuODE3TDI0LjY0OSwyODIuODUxTDI0LjcyOSwyODIuODg1TDI0LjgxLDI4Mi45MTlMMjQuODg4LDI4Mi45NTFMMjQuOTY5LDI4Mi45ODRMMjUuMDUsMjgzLjAxNkwyNS4xMjksMjgzLjA0N0wyNS4yOTEsMjgzLjEwOUwyNS4zNzMsMjgzLjEzOUwyNS40NTQsMjgzLjE2OEwyNS41MzQsMjgzLjE5N0wyNS42MTcsMjgzLjIyNkwyNS43ODEsMjgzLjI4MkwyNS44NjQsMjgzLjMwOUwyNi4wMjgsMjgzLjM2MUwyNi4xMTMsMjgzLjM4N0wyNi4xOTYsMjgzLjQxMkwyNi4yNzgsMjgzLjQzNkwyNi4zNjIsMjgzLjQ2TDI2LjQ0NywyODMuNDg0TDI2LjYxNSwyODMuNTNMMjYuNywyODMuNTUyTDI2Ljc4NiwyODMuNTc0TDI2Ljg2OSwyODMuNTk0TDI2Ljk1NSwyODMuNjE1TDI3LjA0LDI4My42MzVMMjcuMTI1LDI4My42NTRMMjcuMjEyLDI4My42NzRMMjcuMzg0LDI4My43MUwyNy40NywyODMuNzI3TDI3LjU1OCwyODMuNzQ0TDI3LjY0NSwyODMuNzYxTDI3LjczMiwyODMuNzc3TDI3LjkwNiwyODMuODA3TDI3Ljk5NCwyODMuODIxTDI4LjA4MywyODMuODM1TDI4LjI1OSwyODMuODYxTDI4LjM1LDI4My44NzNMMjguNDM4LDI4My44ODVMMjguNTI3LDI4My44OTZMMjguNjE2LDI4My45MDZMMjguNzk2LDI4My45MjZMMjguODg2LDI4My45MzRMMjguOTc2LDI4My45NDNMMjkuMDY3LDI4My45NTFMMjkuMjUxLDI4My45NjVMMjkuMzQyLDI4My45NzFMMjkuNDMyLDI4My45NzZMMjkuNTI1LDI4My45ODFMMjkuNjE4LDI4My45ODVMMjkuNzEsMjgzLjk4OUwyOS44MDMsMjgzLjk5M0wyOS44OTUsMjgzLjk5NUwzMC4wODMsMjgzLjk5OUwzMC4xNzYsMjg0TDI2OS44MjQsMjg0TDI2OS45MTcsMjgzLjk5OUwyNzAuMDExLDI4My45OTdMMjcwLjEwNSwyODMuOTk1TDI3MC4xOTcsMjgzLjk5M0wyNzAuMjksMjgzLjk4OUwyNzAuMzgyLDI4My45ODVMMjcwLjQ3NSwyODMuOTgxTDI3MC41NjgsMjgzLjk3NkwyNzAuNjU4LDI4My45NzFMMjcwLjc0OSwyODMuOTY1TDI3MC44NDEsMjgzLjk1OEwyNzAuOTMzLDI4My45NTFMMjcxLjAyNCwyODMuOTQzTDI3MS4xMTQsMjgzLjkzNEwyNzEuMjA0LDI4My45MjZMMjcxLjI5NCwyODMuOTE2TDI3MS4zODQsMjgzLjkwNkwyNzEuNDczLDI4My44OTZMMjcxLjU2MiwyODMuODg1TDI3MS42NSwyODMuODczTDI3MS43NDEsMjgzLjg2MUwyNzEuODI5LDI4My44NDhMMjcxLjkxNywyODMuODM1TDI3Mi4wMDYsMjgzLjgyMUwyNzIuMDk0LDI4My44MDdMMjcyLjE4MSwyODMuNzkyTDI3Mi4yNjgsMjgzLjc3N0wyNzIuMzU1LDI4My43NjFMMjcyLjQ0MiwyODMuNzQ0TDI3Mi41MywyODMuNzI3TDI3Mi42MTYsMjgzLjcxTDI3Mi43MDIsMjgzLjY5MkwyNzIuNzg4LDI4My42NzRMMjcyLjg3NSwyODMuNjU0TDI3Mi45NiwyODMuNjM1TDI3My4wNDUsMjgzLjYxNUwyNzMuMTMxLDI4My41OTRMMjczLjIxNSwyODMuNTc0TDI3My4zLDI4My41NTJMMjczLjM4NSwyODMuNTNMMjczLjQ2OSwyODMuNTA3TDI3My41NTMsMjgzLjQ4NEwyNzMuNjM4LDI4My40NkwyNzMuNzIyLDI4My40MzZMMjczLjgwNCwyODMuNDEyTDI3My44ODcsMjgzLjM4N0wyNzMuOTcyLDI4My4zNjFMMjc0LjA1NCwyODMuMzM1TDI3NC4xMzYsMjgzLjMwOUwyNzQuMjE5LDI4My4yODFMMjc0LjMwMSwyODMuMjU0TDI3NC4zODMsMjgzLjIyNkwyNzQuNDY1LDI4My4xOTdMMjc0LjU0NiwyODMuMTY4TDI3NC42MjcsMjgzLjEzOUwyNzQuNzA5LDI4My4xMDlMMjc0Ljc5LDI4My4wNzhMMjc0Ljg3MSwyODMuMDQ3TDI3NC45NSwyODMuMDE2TDI3NS4wMzEsMjgyLjk4NEwyNzUuMTEyLDI4Mi45NTFMMjc1LjE5LDI4Mi45MTlMMjc1LjI3MSwyODIuODg1TDI3NS4zNTIsMjgyLjg1MUwyNzUuNDI5LDI4Mi44MTdMMjc1LjUwNywyODIuNzgyTDI3NS41ODYsMjgyLjc0N0wyNzUuNjY1LDI4Mi43MTFMMjc1Ljc0NCwyODIuNjc1TDI3NS44MjIsMjgyLjYzOEwyNzUuOSwyODIuNjAxTDI3NS45NzcsMjgyLjU2M0wyNzYuMDUzLDI4Mi41MjVMMjc2LjEzMSwyODIuNDg2TDI3Ni4yMDgsMjgyLjQ0N0wyNzYuMjg0LDI4Mi40MDhMMjc2LjM2MSwyODIuMzY4TDI3Ni40MzYsMjgyLjMyOEwyNzYuNTEyLDI4Mi4yODdMMjc2LjU4OSwyODIuMjQ0TDI3Ni42NjMsMjgyLjIwM0wyNzYuNzM4LDI4Mi4xNjFMMjc2LjgxNCwyODIuMTE4TDI3Ni44ODgsMjgyLjA3NUwyNzYuOTYyLDI4Mi4wMzJMMjc3LjAzNiwyODEuOTg3TDI3Ny4xMSwyODEuOTQzTDI3Ny4xODMsMjgxLjg5OEwyNzcuMjU2LDI4MS44NTJMMjc3LjMzLDI4MS44MDZMMjc3LjQwMiwyODEuNzYxTDI3Ny40NzMsMjgxLjcxNEwyNzcuNTQ3LDI4MS42NjZMMjc3LjYxOSwyODEuNjE4TDI3Ny42OSwyODEuNTcxTDI3Ny43NjEsMjgxLjUyMkwyNzcuODMxLDI4MS40NzRMMjc3LjkwMywyODEuNDI0TDI3Ny45NzMsMjgxLjM3NEwyNzguMDQ0LDI4MS4zMjRMMjc4LjExNCwyODEuMjczTDI3OC4xODIsMjgxLjIyM0wyNzguMjUyLDI4MS4xNzFMMjc4LjMyMiwyODEuMTE4TDI3OC4zODksMjgxLjA2N0wyNzguNDU4LDI4MS4wMTRMMjc4LjUyNiwyODAuOTYxTDI3OC41OTMsMjgwLjkwOEwyNzguNjYsMjgwLjg1NEwyNzguNzI4LDI4MC43OTlMMjc4Ljc5NSwyODAuNzQ0TDI3OC44NiwyODAuNjlMMjc4LjkyNywyODAuNjMzTDI3OC45OTMsMjgwLjU3OEwyNzkuMDU4LDI4MC41MjJMMjc5LjEyMywyODAuNDY1TDI3OS4xODcsMjgwLjQwOEwyNzkuMjUyLDI4MC4zNUwyNzkuMzE2LDI4MC4yOTNMMjc5LjM4LDI4MC4yMzRMMjc5LjQ0NCwyODAuMTc1TDI3OS41MDYsMjgwLjExN0wyNzkuNTY5LDI4MC4wNTdMMjc5LjYzMiwyNzkuOTk3TDI3OS42OTMsMjc5LjkzOEwyNzkuNzU1LDI3OS44NzdMMjc5LjgxNiwyNzkuODE2TDI3OS44NzcsMjc5Ljc1NUwyNzkuOTM4LDI3OS42OTNMMjc5Ljk5NywyNzkuNjMyTDI4MC4wNTcsMjc5LjU2OUwyODAuMTE3LDI3OS41MDZMMjgwLjE3NSwyNzkuNDQ0TDI4MC4yMzQsMjc5LjM4TDI4MC4yOTMsMjc5LjMxNkwyODAuMzUsMjc5LjI1MkwyODAuNDA4LDI3OS4xODdMMjgwLjQ2NSwyNzkuMTIzTDI4MC41MjIsMjc5LjA1OEwyODAuNTc4LDI3OC45OTNMMjgwLjYzMywyNzguOTI3TDI4MC42OSwyNzguODZMMjgwLjc0NCwyNzguNzk1TDI4MC43OTksMjc4LjcyOEwyODAuODU0LDI3OC42NkwyODAuOTA4LDI3OC41OTNMMjgwLjk2MSwyNzguNTI2TDI4MS4wMTQsMjc4LjQ1OEwyODEuMDY3LDI3OC4zODlMMjgxLjExOCwyNzguMzIyTDI4MS4xNzEsMjc4LjI1MkwyODEuMjIzLDI3OC4xODJMMjgxLjI3MywyNzguMTE0TDI4MS4zMjQsMjc4LjA0NEwyODEuMzc0LDI3Ny45NzNMMjgxLjQyNCwyNzcuOTAzTDI4MS40NzQsMjc3LjgzMUwyODEuNTIyLDI3Ny43NjFMMjgxLjU3MSwyNzcuNjlMMjgxLjYxOCwyNzcuNjE5TDI4MS42NjYsMjc3LjU0N0wyODEuNzE0LDI3Ny40NzNMMjgxLjc2MSwyNzcuNDAyTDI4MS44MDYsMjc3LjMzTDI4MS44NTIsMjc3LjI1NkwyODEuODk4LDI3Ny4xODNMMjgxLjk0MywyNzcuMTFMMjgxLjk4NywyNzcuMDM2TDI4Mi4wMzIsMjc2Ljk2MkwyODIuMDc1LDI3Ni44ODhMMjgyLjExOCwyNzYuODE0TDI4Mi4xNjEsMjc2LjczOEwyODIuMjAzLDI3Ni42NjNMMjgyLjI0NCwyNzYuNTg5TDI4Mi4yODcsMjc2LjUxMkwyODIuMzI4LDI3Ni40MzZMMjgyLjM2OCwyNzYuMzYxTDI4Mi40MDgsMjc2LjI4NEwyODIuNDQ3LDI3Ni4yMDhMMjgyLjQ4NiwyNzYuMTMxTDI4Mi41MjUsMjc2LjA1M0wyODIuNTYzLDI3NS45NzdMMjgyLjYwMSwyNzUuOUwyODIuNjM4LDI3NS44MjJMMjgyLjY3NSwyNzUuNzQ0TDI4Mi43MTEsMjc1LjY2NUwyODIuNzQ3LDI3NS41ODZMMjgyLjc4MiwyNzUuNTA3TDI4Mi44MTcsMjc1LjQyOUwyODIuODUxLDI3NS4zNTJMMjgyLjg4NSwyNzUuMjcxTDI4Mi45MTksMjc1LjE5TDI4Mi45NTEsMjc1LjExMkwyODIuOTg0LDI3NS4wMzFMMjgzLjAxNiwyNzQuOTVMMjgzLjA0NywyNzQuODcxTDI4My4wNzgsMjc0Ljc5TDI4My4xMDksMjc0LjcwOUwyODMuMTM5LDI3NC42MjdMMjgzLjE2OCwyNzQuNTQ2TDI4My4xOTcsMjc0LjQ2NUwyODMuMjI2LDI3NC4zODNMMjgzLjI1NCwyNzQuMzAxTDI4My4yODEsMjc0LjIxOUwyODMuMzA5LDI3NC4xMzZMMjgzLjMzNSwyNzQuMDU0TDI4My4zNjEsMjczLjk3MkwyODMuMzg3LDI3My44ODdMMjgzLjQxMiwyNzMuODA0TDI4My40MzYsMjczLjcyMkwyODMuNDYsMjczLjYzOEwyODMuNDg0LDI3My41NTNMMjgzLjUwNywyNzMuNDY5TDI4My41MywyNzMuMzg1TDI4My41NTIsMjczLjNMMjgzLjU3NCwyNzMuMjE1TDI4My41OTQsMjczLjEzMUwyODMuNjE1LDI3My4wNDVMMjgzLjYzNSwyNzIuOTZMMjgzLjY1NCwyNzIuODc1TDI4My42NzQsMjcyLjc4OEwyODMuNjkyLDI3Mi43MDJMMjgzLjcxLDI3Mi42MTZMMjgzLjcyNywyNzIuNTNMMjgzLjc0NCwyNzIuNDQyTDI4My43NjEsMjcyLjM1NUwyODMuNzc3LDI3Mi4yNjhMMjgzLjc5MiwyNzIuMTgxTDI4My44MDcsMjcyLjA5NEwyODMuODIxLDI3Mi4wMDZMMjgzLjgzNSwyNzEuOTE3TDI4My44NDgsMjcxLjgyOUwyODMuODYxLDI3MS43NDFMMjgzLjg3MywyNzEuNjVMMjgzLjg4NSwyNzEuNTYyTDI4My44OTYsMjcxLjQ3M0wyODMuOTA2LDI3MS4zODRMMjgzLjkxNiwyNzEuMjk0TDI4My45MjYsMjcxLjIwNEwyODMuOTM0LDI3MS4xMTRMMjgzLjk0MywyNzEuMDI0TDI4My45NTEsMjcwLjkzM0wyODMuOTU4LDI3MC44NDFMMjgzLjk2NSwyNzAuNzQ5TDI4My45NzEsMjcwLjY1OEwyODMuOTc2LDI3MC41NjhMMjgzLjk4MSwyNzAuNDc1TDI4My45ODUsMjcwLjM4MkwyODMuOTg5LDI3MC4yOUwyODMuOTkzLDI3MC4xOTdMMjgzLjk5NSwyNzAuMTA1TDI4My45OTcsMjcwLjAxMUwyODMuOTk5LDI2OS45MTdMMjg0LDI2OS44MjRMMjg0LDI2OS43MDRMMjg0LDMwLjI5NkwyODQsMzAuMTc2TDI4My45OTksMzAuMDgzTDI4My45OTcsMjkuOTg5TDI4My45OTUsMjkuODk1TDI4My45OTMsMjkuODAzTDI4My45ODksMjkuNzFMMjgzLjk4NSwyOS42MThMMjgzLjk4MSwyOS41MjVMMjgzLjk3NiwyOS40MzJMMjgzLjk3MSwyOS4zNDJMMjgzLjk2NSwyOS4yNTFMMjgzLjk1OCwyOS4xNTlMMjgzLjk1MSwyOS4wNjdMMjgzLjk0MywyOC45NzZMMjgzLjkzNCwyOC44ODZMMjgzLjkyNiwyOC43OTZMMjgzLjkxNiwyOC43MDZMMjgzLjkwNiwyOC42MTZMMjgzLjg5NiwyOC41MjdMMjgzLjg4NSwyOC40MzhMMjgzLjg3MywyOC4zNUwyODMuODYxLDI4LjI1OUwyODMuODQ4LDI4LjE3MUwyODMuODM1LDI4LjA4M0wyODMuODIxLDI3Ljk5NEwyODMuODA3LDI3LjkwNkwyODMuNzkyLDI3LjgxOUwyODMuNzc3LDI3LjczMkwyODMuNzYxLDI3LjY0NUwyODMuNzQ0LDI3LjU1OEwyODMuNzI3LDI3LjQ3TDI4My43MSwyNy4zODRMMjgzLjY5MiwyNy4yOThMMjgzLjY3NCwyNy4yMTJMMjgzLjY1NCwyNy4xMjVMMjgzLjYzNSwyNy4wNEwyODMuNjE1LDI2Ljk1NUwyODMuNTk0LDI2Ljg2OUwyODMuNTc0LDI2Ljc4NkwyODMuNTUyLDI2LjdMMjgzLjUzLDI2LjYxNUwyODMuNTA3LDI2LjUzMUwyODMuNDg0LDI2LjQ0N0wyODMuNDYsMjYuMzYyTDI4My40MzYsMjYuMjc4TDI4My40MTIsMjYuMTk2TDI4My4zODcsMjYuMTEzTDI4My4zNjEsMjYuMDI4TDI4My4zMzUsMjUuOTQ2TDI4My4zMDksMjUuODY0TDI4My4yODIsMjUuNzgxTDI4My4yNTQsMjUuNjk5TDI4My4yMjYsMjUuNjE3TDI4My4xOTcsMjUuNTM0TDI4My4xNjgsMjUuNDU0TDI4My4xMzksMjUuMzczTDI4My4xMDksMjUuMjkxTDI4My4wNzgsMjUuMjFMMjgzLjA0NywyNS4xMjlMMjgzLjAxNiwyNS4wNUwyODIuOTg0LDI0Ljk2OUwyODIuOTUxLDI0Ljg4OEwyODIuOTE5LDI0LjgxTDI4Mi44ODUsMjQuNzI5TDI4Mi44NTEsMjQuNjQ5TDI4Mi44MTcsMjQuNTdMMjgyLjc4MiwyNC40OTJMMjgyLjc0NywyNC40MTRMMjgyLjcxMSwyNC4zMzVMMjgyLjY3NCwyNC4yNTZMMjgyLjYzOCwyNC4xNzhMMjgyLjYwMSwyNC4xTDI4Mi41NjMsMjQuMDIzTDI4Mi41MjUsMjMuOTQ2TDI4Mi40ODcsMjMuODY5TDI4Mi40NDcsMjMuNzkzTDI4Mi40MDgsMjMuNzE2TDI4Mi4zNjgsMjMuNjRMMjgyLjMyNywyMy41NjNMMjgyLjI4NiwyMy40ODdMMjgyLjI0NSwyMy40MTFMMjgyLjIwMywyMy4zMzZMMjgyLjE2MSwyMy4yNjJMMjgyLjExOCwyMy4xODZMMjgyLjA3NSwyMy4xMTJMMjgyLjAzMiwyMy4wMzhMMjgxLjk4NywyMi45NjRMMjgxLjk0MywyMi44OUwyODEuODk4LDIyLjgxN0wyODEuODUyLDIyLjc0M0wyODEuODA2LDIyLjY3TDI4MS43NjEsMjIuNTk4TDI4MS43MTQsMjIuNTI2TDI4MS42NjYsMjIuNDU0TDI4MS42MTksMjIuMzgxTDI4MS41NzEsMjIuMzFMMjgxLjUyMiwyMi4yMzlMMjgxLjQ3NCwyMi4xNjhMMjgxLjQyNCwyMi4wOTdMMjgxLjM3NCwyMi4wMjdMMjgxLjMyNCwyMS45NTdMMjgxLjI3MywyMS44ODZMMjgxLjIyMywyMS44MTdMMjgxLjE3MSwyMS43NDhMMjgxLjExOSwyMS42NzhMMjgxLjA2NywyMS42MUwyODEuMDE0LDIxLjU0MkwyODAuOTYxLDIxLjQ3NEwyODAuOTA4LDIxLjQwN0wyODAuODU0LDIxLjM0TDI4MC43OTksMjEuMjcyTDI4MC43NDUsMjEuMjA2TDI4MC42ODksMjEuMTM5TDI4MC42MzQsMjEuMDczTDI4MC41NzgsMjEuMDA3TDI4MC41MjIsMjAuOTQyTDI4MC40NjUsMjAuODc3TDI4MC40MDgsMjAuODEyTDI4MC4zNSwyMC43NDhMMjgwLjI5MywyMC42ODRMMjgwLjIzNCwyMC42MkwyODAuMTc2LDIwLjU1N0wyODAuMTE3LDIwLjQ5NEwyODAuMDU3LDIwLjQzMUwyNzkuOTk3LDIwLjM2OEwyNzkuOTM4LDIwLjMwN0wyNzkuODc3LDIwLjI0NUwyNzkuODE2LDIwLjE4NEwyNzkuNzU1LDIwLjEyM0wyNzkuNjkzLDIwLjA2M0wyNzkuNjMyLDIwLjAwM0wyNzkuNTY4LDE5Ljk0MkwyNzkuNTA2LDE5Ljg4NEwyNzkuNDQ0LDE5LjgyNUwyNzkuMzgsMTkuNzY2TDI3OS4zMTYsMTkuNzA3TDI3OS4yNTIsMTkuNjQ5TDI3OS4xODgsMTkuNTkyTDI3OS4xMjMsMTkuNTM1TDI3OS4wNTgsMTkuNDc4TDI3OC45OTMsMTkuNDIyTDI3OC45MjcsMTkuMzY2TDI3OC44NiwxOS4zMUwyNzguNzk1LDE5LjI1NkwyNzguNzI4LDE5LjIwMUwyNzguNjYxLDE5LjE0N0wyNzguNTkzLDE5LjA5MkwyNzguNTI2LDE5LjAzOUwyNzguNDU4LDE4Ljk4NkwyNzguMzg5LDE4LjkzM0wyNzguMzIxLDE4Ljg4MUwyNzguMjUyLDE4LjgyOUwyNzguMTgyLDE4Ljc3N0wyNzguMTEzLDE4LjcyN0wyNzguMDQ0LDE4LjY3NkwyNzcuOTczLDE4LjYyNkwyNzcuOTAzLDE4LjU3NkwyNzcuODMyLDE4LjUyNkwyNzcuNzYxLDE4LjQ3OEwyNzcuNjksMTguNDI5TDI3Ny42MTksMTguMzgyTDI3Ny41NDcsMTguMzM0TDI3Ny40NzQsMTguMjg2TDI3Ny40MDIsMTguMjRMMjc3LjMzLDE4LjE5NEwyNzcuMjU2LDE4LjE0N0wyNzcuMTgzLDE4LjEwMkwyNzcuMTEsMTguMDU3TDI3Ny4wMzYsMTguMDEzTDI3Ni45NjIsMTcuOTY5TDI3Ni44ODcsMTcuOTI1TDI3Ni44MTMsMTcuODgyTDI3Ni43MzgsMTcuODM5TDI3Ni42NjMsMTcuNzk3TDI3Ni41ODksMTcuNzU1TDI3Ni41MTIsMTcuNzEzTDI3Ni40MzYsMTcuNjcyTDI3Ni4zNjEsMTcuNjMyTDI3Ni4yODUsMTcuNTkyTDI3Ni4yMDgsMTcuNTUzTDI3Ni4xMzEsMTcuNTE0TDI3Ni4wNTQsMTcuNDc1TDI3NS45NzcsMTcuNDM3TDI3NS44OTksMTcuMzk5TDI3NS44MjEsMTcuMzYyTDI3NS43NDMsMTcuMzI1TDI3NS42NjUsMTcuMjg5TDI3NS41ODcsMTcuMjUzTDI3NS41MDgsMTcuMjE4TDI3NS40MjksMTcuMTgzTDI3NS4zNTEsMTcuMTQ5TDI3NS4yNzEsMTcuMTE1TDI3NS4xOTEsMTcuMDgyTDI3NS4xMTEsMTcuMDQ5TDI3NS4wMzEsMTcuMDE2TDI3NC45NTEsMTYuOTg0TDI3NC44NzEsMTYuOTUzTDI3NC43OSwxNi45MjJMMjc0LjcwOSwxNi44OTFMMjc0LjYyOCwxNi44NjFMMjc0LjU0NiwxNi44MzJMMjc0LjQ2NSwxNi44MDNMMjc0LjM4MywxNi43NzRMMjc0LjMwMSwxNi43NDZMMjc0LjIxOSwxNi43MTlMMjc0LjEzNywxNi42OTFMMjc0LjA1NCwxNi42NjVMMjczLjk3MSwxNi42MzlMMjczLjg4OCwxNi42MTNMMjczLjgwNSwxNi41ODhMMjczLjcyMSwxNi41NjRMMjczLjYzNywxNi41MzlMMjczLjU1MywxNi41MTZMMjczLjQ2OSwxNi40OTNMMjczLjM4NSwxNi40N0wyNzMuMywxNi40NDhMMjczLjIxNiwxNi40MjdMMjczLjEzLDE2LjQwNkwyNzMuMDQ1LDE2LjM4NUwyNzIuOTYsMTYuMzY1TDI3Mi44NzQsMTYuMzQ1TDI3Mi43ODgsMTYuMzI3TDI3Mi43MDIsMTYuMzA4TDI3Mi42MTYsMTYuMjlMMjcyLjUyOSwxNi4yNzNMMjcyLjQ0MiwxNi4yNTZMMjcyLjM1NSwxNi4yMzlMMjcyLjI2OCwxNi4yMjNMMjcyLjE4MSwxNi4yMDhMMjcyLjA5MywxNi4xOTNMMjcyLjAwNSwxNi4xNzlMMjcxLjkxNywxNi4xNjVMMjcxLjgyOSwxNi4xNTJMMjcxLjc0LDE2LjEzOUwyNzEuNjUyLDE2LjEyN0wyNzEuNTYyLDE2LjExNUwyNzEuNDczLDE2LjEwNEwyNzEuMzg0LDE2LjA5NEwyNzEuMjk0LDE2LjA4NEwyNzEuMjA0LDE2LjA3NEwyNzEuMTE0LDE2LjA2NkwyNzEuMDIzLDE2LjA1N0wyNzAuOTMyLDE2LjA0OUwyNzAuODQxLDE2LjA0MkwyNzAuNzUsMTYuMDM2TDI3MC42NTksMTYuMDI5TDI3MC41NjcsMTYuMDI0TDI3MC40NzUsMTYuMDE5TDI3MC4zODMsMTYuMDE1TDI3MC4yOSwxNi4wMTFMMjcwLjE5NywxNi4wMDdMMjcwLjEwNCwxNi4wMDVMMjcwLjAxMSwxNi4wMDNMMjY5LjkxNywxNi4wMDFMMjY5LjgyNCwxNkwyNjkuNzA0LDE2TDMwLjI5NiwxNloiLz4mI3hhOyAgICAgICAgPC9nPiYjeGE7ICAgICAgICA8Zz4mI3hhOyAgICAgICAgICAgIDxnPiYjeGE7ICAgICAgICAgICAgICAgIDxnIHRyYW5zZm9ybT0ibWF0cml4KDAuOTAyNTU0LDAsMCwwLjkwMjU1NCwxNC42MTY5LDE0LjYxNjkpIj4mI3hhOyAgICAgICAgICAgICAgICAgICAgPHBhdGggc3R5bGU9ImZpbGw6cmdiKDIyNyw0MSw0Nik7IiBkPSJNMTQyLjIzLDEwMC42NDdMMTQyLjIzLDYyLjU3MUwxMjcuOCw3Ny4wMDFMMTI3LjgsNTQuNjk1TDE1MCwzMi40OTVMMTcyLjIsNTQuNjk1TDE3Mi4yLDc3LjA0OUwxNTcuODAxLDYyLjY1TDE1Ny44MDEsMTAwLjY1MkMxNjUuNzgyLDEwMS45MDYgMTczLjEzOCwxMDUuMDUyIDE3OS4zOTUsMTA5LjYxNkwyMDYuMzI4LDgyLjY4NEwxODUuOTIxLDgyLjY4NEwyMDEuNjkzLDY2LjkxMkwyMzMuMDg4LDY2LjkxMkwyMzMuMDg4LDk4LjMwN0wyMTcuMjgyLDExNC4xMTNMMjE3LjI4Miw5My43NUwxOTAuNDAyLDEyMC42M0MxOTQuOTYyLDEyNi44OSAxOTguMTA0LDEzNC4yNDggMTk5LjM1MywxNDIuMjNMMjM3LjQyOSwxNDIuMjNMMjIyLjk5OSwxMjcuOEwyNDUuMzA1LDEyNy44TDI2Ny41MDUsMTUwTDI0NS4zMDUsMTcyLjJMMjIyLjk1MSwxNzIuMkwyMzcuMzUsMTU3LjgwMUwxOTkuMzQ4LDE1Ny44MDFDMTk4LjA5NCwxNjUuNzgyIDE5NC45NDgsMTczLjEzOCAxOTAuMzg0LDE3OS4zOTVMMjE3LjMxNiwyMDYuMzI4TDIxNy4zMTYsMTg1LjkyMUwyMzMuMDg4LDIwMS42OTNMMjMzLjA4OCwyMzMuMDg4TDIwMS42OTMsMjMzLjA4OEwxODUuODg3LDIxNy4yODJMMjA2LjI1LDIxNy4yODJMMTc5LjM3LDE5MC40MDJDMTczLjExLDE5NC45NjIgMTY1Ljc1MiwxOTguMTA0IDE1Ny43NywxOTkuMzUzTDE1Ny43NywyMzcuNDI5TDE3Mi4yLDIyMi45OTlMMTcyLjIsMjQ1LjMwNUwxNTAsMjY3LjUwNUwxMjcuOCwyNDUuMzA1TDEyNy44LDIyMi45NTFMMTQyLjE5OSwyMzcuMzVMMTQyLjE5OSwxOTkuMzQ4QzEzNC4yMTgsMTk4LjA5NCAxMjYuODYyLDE5NC45NDggMTIwLjYwNSwxOTAuMzg0TDkzLjY3MiwyMTcuMzE2TDExNC4wNzksMjE3LjMxNkw5OC4zMDcsMjMzLjA4OEw2Ni45MTIsMjMzLjA4OEw2Ni45MTIsMjAxLjY5M0w4Mi43MTgsMTg1Ljg4N0w4Mi43MTgsMjA2LjI1TDEwOS41OTgsMTc5LjM3QzEwNS4wMzgsMTczLjExIDEwMS44OTYsMTY1Ljc1MiAxMDAuNjQ3LDE1Ny43N0w2Mi41NzEsMTU3Ljc3TDc3LjAwMSwxNzIuMkw1NC42OTUsMTcyLjJMMzIuNDk1LDE1MEw1NC42OTUsMTI3LjhMNzcuMDQ5LDEyNy44TDYyLjY1LDE0Mi4xOTlMMTAwLjY1MiwxNDIuMTk5QzEwMS45MDYsMTM0LjIxOCAxMDUuMDUyLDEyNi44NjIgMTA5LjYxNiwxMjAuNjA1TDgyLjY4NCw5My42NzJMODIuNjg0LDExNC4wNzlMNjYuOTEyLDk4LjMwN0w2Ni45MTIsNjYuOTEyTDk4LjMwNyw2Ni45MTJMMTE0LjExMyw4Mi43MThMOTMuNzUsODIuNzE4TDEyMC42MywxMDkuNTk4QzEyNi44OSwxMDUuMDM4IDEzNC4yNDgsMTAxLjg5NiAxNDIuMjMsMTAwLjY0N1pNMTUwLDEyMC43ODlDMTY2LjEyMiwxMjAuNzg5IDE3OS4yMTEsMTMzLjg3OCAxNzkuMjExLDE1MEMxNzkuMjExLDE2Ni4xMjIgMTY2LjEyMiwxNzkuMjExIDE1MCwxNzkuMjExQzEzMy44NzgsMTc5LjIxMSAxMjAuNzg5LDE2Ni4xMjIgMTIwLjc4OSwxNTBDMTIwLjc4OSwxMzMuODc4IDEzMy44NzgsMTIwLjc4OSAxNTAsMTIwLjc4OVoiLz4mI3hhOyAgICAgICAgICAgICAgICA8L2c+JiN4YTsgICAgICAgICAgICAgICAgPGcgdHJhbnNmb3JtPSJtYXRyaXgoMS4wMjg1MSwwLDAsMS4wMjg1MSwtMy4wNjk2MiwtMy44MzcxNykiPiYjeGE7ICAgICAgICAgICAgICAgICAgICA8Y2lyY2xlIHN0eWxlPSJmaWxsOndoaXRlOyIgcj0iMjUuODQ0IiBjeT0iMTQ5LjU3MyIgY3g9IjE0OC44MjciLz4mI3hhOyAgICAgICAgICAgICAgICA8L2c+JiN4YTsgICAgICAgICAgICA8L2c+JiN4YTsgICAgICAgICAgICA8Y2lyY2xlIHN0eWxlPSJmaWxsOndoaXRlOyIgcj0iMjYuNTgxIiBjeT0iMTUwIiBjeD0iMTUwIi8+JiN4YTsgICAgICAgIDwvZz4mI3hhOyAgICA8L2c+JiN4YTs8L3N2Zz4=;" vertex="1" parent="1">
          <mxGeometry x="90" y="160" width="300" height="300" as="geometry" />
        </mxCell>
        <mxCell id="thXLSm3wJikO7Sc-p7p8-6" value="" style="shape=image;verticalLabelPosition=bottom;labelBackgroundColor=default;verticalAlign=top;aspect=fixed;imageAspect=0;image=data:image/svg+xml,PHN2ZyB4bWxuczp4bGluaz0iaHR0cDovL3d3dy53My5vcmcvMTk5OS94bGluayIgeG1sbnM9Imh0dHA6Ly93d3cudzMub3JnLzIwMDAvc3ZnIiBzdHlsZT0iZmlsbC1ydWxlOmV2ZW5vZGQ7Y2xpcC1ydWxlOmV2ZW5vZGQ7c3Ryb2tlLWxpbmVqb2luOnJvdW5kO3N0cm9rZS1taXRlcmxpbWl0OjEuNDE0MjE7IiB4bWw6c3BhY2U9InByZXNlcnZlIiB2ZXJzaW9uPSIxLjEiIHZpZXdCb3g9IjAgMCAzMDAgMzAwIiBoZWlnaHQ9IjEwMCUiIHdpZHRoPSIxMDAlIj4mI3hhOyAgICA8Zz4mI3hhOyAgICAgICAgPGcgaWQ9IkJhY2tncm91bmQiPiYjeGE7ICAgICAgICAgICAgPHBhdGggc3R5bGU9ImZpbGw6cmdiKDI1NSwyNTQsMjU0KTsiIGQ9Ik0zMDAsMzAuMjcxQzMwMCwxMy41NjQgMjg2LjQzNiwwIDI2OS43MjksMEwzMC4yNzEsMEMxMy41NjQsMCAwLDEzLjU2NCAwLDMwLjI3MUwwLDI2OS43MjlDMCwyODYuNDM2IDEzLjU2NCwzMDAgMzAuMjcxLDMwMEwyNjkuNzI5LDMwMEMyODYuNDM2LDMwMCAzMDAsMjg2LjQzNiAzMDAsMjY5LjcyOUwzMDAsMzAuMjcxWiIvPiYjeGE7ICAgICAgICAgICAgPHBhdGggc3R5bGU9ImZpbGw6cmdiKDIyNyw0MSw0Nik7IiBkPSJNMjY5LjkyNSwwLjAwMUwyNzAuMTIsMC4wMDJMMjcwLjUxLDAuMDFMMjcwLjcwNSwwLjAxNUwyNzAuODk5LDAuMDIyTDI3MS4wOTMsMC4wM0wyNzEuMjg2LDAuMDM5TDI3MS42NzIsMC4wNjFMMjcxLjg2NSwwLjA3NEwyNzIuMDU3LDAuMDg4TDI3Mi4yNDksMC4xMDRMMjcyLjQ0LDAuMTJMMjcyLjYzMiwwLjEzOEwyNzIuODIzLDAuMTU2TDI3My4wMTMsMC4xNzZMMjczLjM5MywwLjIyTDI3My41ODMsMC4yNDNMMjczLjc3MiwwLjI2OEwyNzMuOTYsMC4yOTRMMjc0LjE0OSwwLjMyMUwyNzQuMzM3LDAuMzQ5TDI3NC41MjQsMC4zNzhMMjc0LjcxMiwwLjQwOUwyNzQuODk4LDAuNDRMMjc1LjA4NSwwLjQ3M0wyNzUuMjcxLDAuNTA3TDI3NS40NTcsMC41NDJMMjc1LjY0MiwwLjU3OEwyNzUuODI3LDAuNjE1TDI3Ni4xOTUsMC42OTNMMjc2LjM3OSwwLjczNEwyNzYuNTYyLDAuNzc2TDI3Ni43NDUsMC44MTlMMjc2LjkyNywwLjg2MkwyNzcuMjkxLDAuOTU0TDI3Ny40NzIsMS4wMDFMMjc3LjY1MiwxLjA0OUwyNzcuODMzLDEuMDk5TDI3OC4wMTIsMS4xNDlMMjc4LjE5MiwxLjIwMUwyNzguMzcxLDEuMjUzTDI3OC41NDksMS4zMDdMMjc4LjcyNywxLjM2MkwyNzguOTA0LDEuNDE4TDI3OS4wODEsMS40NzVMMjc5LjI1OCwxLjUzM0wyNzkuNDM0LDEuNTkyTDI3OS42MDksMS42NTJMMjc5Ljc4NCwxLjcxM0wyNzkuOTU5LDEuNzc1TDI4MC4xMzMsMS44MzhMMjgwLjMwNywxLjkwMkwyODAuNDgsMS45NjhMMjgwLjY1MiwyLjAzNEwyODAuODI0LDIuMTAxTDI4MC45OTYsMi4xNjlMMjgxLjE2NywyLjIzOUwyODEuMzM3LDIuMzA5TDI4MS41MDcsMi4zOEwyODEuNjc3LDIuNDUzTDI4MS44NDYsMi41MjZMMjgyLjAxNCwyLjZMMjgyLjE4MiwyLjY3NkwyODIuMzQ5LDIuNzUyTDI4Mi41MTYsMi44MjlMMjgyLjg0OCwyLjk4N0wyODMuMDEzLDMuMDY3TDI4My4xNzgsMy4xNDhMMjgzLjM0MiwzLjIzMUwyODMuNTA1LDMuMzE0TDI4My42NjgsMy4zOThMMjgzLjgzLDMuNDgzTDI4My45OTIsMy41NjlMMjg0LjE1MywzLjY1NkwyODQuMzE0LDMuNzQ0TDI4NC40NzQsMy44MzJMMjg0LjYzMywzLjkyMkwyODQuNzkyLDQuMDEzTDI4NS4xMDgsNC4xOTdMMjg1LjI2NSw0LjI5MUwyODUuNDIxLDQuMzg1TDI4NS41NzcsNC40OEwyODUuNzMyLDQuNTc2TDI4Ni4wNCw0Ljc3MkwyODYuMzQ2LDQuOTdMMjg2LjQ5OCw1LjA3MUwyODYuOCw1LjI3NUwyODYuOTUsNS4zNzlMMjg3LjA5OSw1LjQ4M0wyODcuMjQ4LDUuNTg4TDI4Ny4zOTYsNS42OTRMMjg3LjY5LDUuOTA4TDI4Ny44MzYsNi4wMTdMMjg3Ljk4MSw2LjEyNkwyODguMTI2LDYuMjM3TDI4OC4yNyw2LjM0OEwyODguNDEzLDYuNDZMMjg4LjU1Niw2LjU3M0wyODguNjk4LDYuNjg2TDI4OC45OCw2LjkxNkwyODkuMTE5LDcuMDMyTDI4OS4yNTksNy4xNDlMMjg5LjUzNSw3LjM4NUwyODkuNjcyLDcuNTA1TDI4OS44MDgsNy42MjVMMjg5Ljk0Myw3Ljc0NkwyOTAuMDc4LDcuODY4TDI5MC4yMTIsNy45OUwyOTAuMzQ2LDguMTE0TDI5MC40NzgsOC4yMzhMMjkwLjYxLDguMzYzTDI5MC43NDEsOC40ODhMMjkxLjAwMSw4Ljc0MkwyOTEuMTMsOC44N0wyOTEuMjU4LDguOTk5TDI5MS41MTIsOS4yNTlMMjkxLjYzNyw5LjM5TDI5MS43NjIsOS41MjJMMjkxLjg4Niw5LjY1NEwyOTIuMDEsOS43ODhMMjkyLjEzMiw5LjkyMkwyOTIuMjU0LDEwLjA1N0wyOTIuMzc1LDEwLjE5MkwyOTIuNDk1LDEwLjMyOEwyOTIuNjE1LDEwLjQ2NUwyOTIuODUxLDEwLjc0MUwyOTIuOTY4LDEwLjg4MUwyOTMuMDg0LDExLjAyTDI5My4zMTQsMTEuMzAyTDI5My40MjcsMTEuNDQ0TDI5My41NCwxMS41ODdMMjkzLjY1MiwxMS43M0wyOTMuNzYzLDExLjg3NEwyOTMuODc0LDEyLjAxOUwyOTMuOTgzLDEyLjE2NEwyOTQuMDkyLDEyLjMxTDI5NC4zMDYsMTIuNjA0TDI5NC40MTIsMTIuNzUyTDI5NC41MTcsMTIuOTAxTDI5NC42MjEsMTMuMDVMMjk0LjcyNSwxMy4yTDI5NC45MjksMTMuNTAyTDI5NS4wMywxMy42NTRMMjk1LjIyOCwxMy45NkwyOTUuNDI0LDE0LjI2OEwyOTUuNTIsMTQuNDIzTDI5NS42MTUsMTQuNTc5TDI5NS43MDksMTQuNzM1TDI5NS44MDMsMTQuODkyTDI5NS45ODcsMTUuMjA4TDI5Ni4wNzgsMTUuMzY3TDI5Ni4xNjgsMTUuNTI2TDI5Ni4yNTYsMTUuNjg2TDI5Ni4zNDQsMTUuODQ3TDI5Ni40MzEsMTYuMDA4TDI5Ni41MTcsMTYuMTdMMjk2LjYwMiwxNi4zMzJMMjk2LjY4NiwxNi40OTVMMjk2Ljc2OSwxNi42NThMMjk2Ljg1MiwxNi44MjJMMjk2LjkzMywxNi45ODdMMjk3LjAxMywxNy4xNTJMMjk3LjE3MSwxNy40ODRMMjk3LjI0OCwxNy42NTFMMjk3LjMyNCwxNy44MThMMjk3LjQsMTcuOTg2TDI5Ny40NzQsMTguMTU0TDI5Ny41NDcsMTguMzIzTDI5Ny42MiwxOC40OTNMMjk3LjY5MSwxOC42NjNMMjk3Ljc2MSwxOC44MzNMMjk3LjgzMSwxOS4wMDRMMjk3Ljg5OSwxOS4xNzZMMjk3Ljk2NiwxOS4zNDhMMjk4LjAzMiwxOS41MkwyOTguMDk4LDE5LjY5M0wyOTguMTYyLDE5Ljg2N0wyOTguMjI1LDIwLjA0MUwyOTguMjg3LDIwLjIxNkwyOTguMzQ4LDIwLjM5MUwyOTguNDA4LDIwLjU2NkwyOTguNDY3LDIwLjc0MkwyOTguNTI1LDIwLjkxOUwyOTguNTgyLDIxLjA5NkwyOTguNjM4LDIxLjI3M0wyOTguNjkzLDIxLjQ1MUwyOTguNzQ3LDIxLjYyOUwyOTguNzk5LDIxLjgwOEwyOTguODUxLDIxLjk4OEwyOTguOTAxLDIyLjE2N0wyOTguOTUxLDIyLjM0OEwyOTguOTk5LDIyLjUyOEwyOTkuMDQ2LDIyLjcwOUwyOTkuMTM4LDIzLjA3M0wyOTkuMTgxLDIzLjI1NUwyOTkuMjI0LDIzLjQzOEwyOTkuMjY2LDIzLjYyMUwyOTkuMzA3LDIzLjgwNUwyOTkuMzg1LDI0LjE3M0wyOTkuNDIyLDI0LjM1OEwyOTkuNDU4LDI0LjU0M0wyOTkuNDkzLDI0LjcyOUwyOTkuNTI3LDI0LjkxNUwyOTkuNTYsMjUuMTAyTDI5OS41OTEsMjUuMjg4TDI5OS42MjIsMjUuNDc2TDI5OS42NTEsMjUuNjYzTDI5OS42NzksMjUuODUxTDI5OS43MDYsMjYuMDRMMjk5LjczMiwyNi4yMjhMMjk5Ljc1NywyNi40MTdMMjk5Ljc4LDI2LjYwN0wyOTkuODI0LDI2Ljk4N0wyOTkuODQ0LDI3LjE3N0wyOTkuODYyLDI3LjM2OEwyOTkuODgsMjcuNTZMMjk5Ljg5NiwyNy43NTFMMjk5LjkxMiwyNy45NDNMMjk5LjkyNiwyOC4xMzVMMjk5LjkzOSwyOC4zMjhMMjk5Ljk2MSwyOC43MTRMMjk5Ljk3LDI4LjkwN0wyOTkuOTc4LDI5LjEwMUwyOTkuOTg1LDI5LjI5NUwyOTkuOTksMjkuNDlMMjk5Ljk5OCwyOS44OEwzMDAsMzAuMjcxTDMwMCwyNjkuNzI5TDI5OS45OTksMjY5LjkyNUwyOTkuOTk4LDI3MC4xMkwyOTkuOTk0LDI3MC4zMTVMMjk5Ljk5LDI3MC41MUwyOTkuOTg1LDI3MC43MDVMMjk5Ljk3OCwyNzAuODk5TDI5OS45NywyNzEuMDkzTDI5OS45NjEsMjcxLjI4NkwyOTkuOTUsMjcxLjQ3OUwyOTkuOTM5LDI3MS42NzJMMjk5LjkyNiwyNzEuODY1TDI5OS45MTIsMjcyLjA1N0wyOTkuODk2LDI3Mi4yNDlMMjk5Ljg4LDI3Mi40NEwyOTkuODYyLDI3Mi42MzJMMjk5Ljg0NCwyNzIuODIzTDI5OS44MjQsMjczLjAxM0wyOTkuODAyLDI3My4yMDNMMjk5Ljc4LDI3My4zOTNMMjk5Ljc1NywyNzMuNTgzTDI5OS43MzIsMjczLjc3MkwyOTkuNzA2LDI3My45NkwyOTkuNjc5LDI3NC4xNDlMMjk5LjY1MSwyNzQuMzM3TDI5OS42MjIsMjc0LjUyNEwyOTkuNTkxLDI3NC43MTJMMjk5LjU2LDI3NC44OThMMjk5LjUyNywyNzUuMDg1TDI5OS40OTMsMjc1LjI3MUwyOTkuNDU4LDI3NS40NTdMMjk5LjQyMiwyNzUuNjQyTDI5OS4zODUsMjc1LjgyN0wyOTkuMzQ2LDI3Ni4wMTFMMjk5LjMwNywyNzYuMTk1TDI5OS4yNjYsMjc2LjM3OUwyOTkuMjI0LDI3Ni41NjJMMjk5LjE4MSwyNzYuNzQ1TDI5OS4xMzgsMjc2LjkyN0wyOTkuMDkyLDI3Ny4xMDlMMjk5LjA0NiwyNzcuMjkxTDI5OC45OTksMjc3LjQ3MkwyOTguOTUxLDI3Ny42NTJMMjk4LjkwMSwyNzcuODMzTDI5OC44NTEsMjc4LjAxMkwyOTguNzk5LDI3OC4xOTJMMjk4Ljc0NywyNzguMzcxTDI5OC42OTMsMjc4LjU0OUwyOTguNjM4LDI3OC43MjdMMjk4LjU4MiwyNzguOTA0TDI5OC41MjUsMjc5LjA4MUwyOTguNDY3LDI3OS4yNThMMjk4LjQwOCwyNzkuNDM0TDI5OC4zNDgsMjc5LjYwOUwyOTguMjg3LDI3OS43ODRMMjk4LjIyNSwyNzkuOTU5TDI5OC4xNjIsMjgwLjEzM0wyOTguMDk4LDI4MC4zMDdMMjk4LjAzMiwyODAuNDhMMjk3Ljk2NiwyODAuNjUyTDI5Ny44OTksMjgwLjgyNEwyOTcuODMxLDI4MC45OTZMMjk3Ljc2MSwyODEuMTY3TDI5Ny42OTEsMjgxLjMzN0wyOTcuNjIsMjgxLjUwN0wyOTcuNTQ3LDI4MS42NzdMMjk3LjQ3NCwyODEuODQ2TDI5Ny40LDI4Mi4wMTRMMjk3LjMyNCwyODIuMTgyTDI5Ny4yNDgsMjgyLjM0OUwyOTcuMTcxLDI4Mi41MTZMMjk3LjA5MiwyODIuNjgyTDI5Ny4wMTMsMjgyLjg0OEwyOTYuOTMzLDI4My4wMTNMMjk2Ljg1MiwyODMuMTc4TDI5Ni43NjksMjgzLjM0MkwyOTYuNjg2LDI4My41MDVMMjk2LjYwMiwyODMuNjY4TDI5Ni41MTcsMjgzLjgzTDI5Ni40MzEsMjgzLjk5MkwyOTYuMzQ0LDI4NC4xNTNMMjk2LjI1NiwyODQuMzE0TDI5Ni4xNjgsMjg0LjQ3NEwyOTYuMDc4LDI4NC42MzNMMjk1Ljk4NywyODQuNzkyTDI5NS44OTUsMjg0Ljk1TDI5NS44MDMsMjg1LjEwOEwyOTUuNzA5LDI4NS4yNjVMMjk1LjYxNSwyODUuNDIxTDI5NS41MiwyODUuNTc3TDI5NS40MjQsMjg1LjczMkwyOTUuMzI2LDI4NS44ODZMMjk1LjIyOCwyODYuMDRMMjk1LjEyOSwyODYuMTkzTDI5NS4wMywyODYuMzQ2TDI5NC45MjksMjg2LjQ5OEwyOTQuODI3LDI4Ni42NDlMMjk0LjcyNSwyODYuOEwyOTQuNjIxLDI4Ni45NUwyOTQuNTE3LDI4Ny4wOTlMMjk0LjQxMiwyODcuMjQ4TDI5NC4zMDYsMjg3LjM5NkwyOTQuMTk5LDI4Ny41NDNMMjk0LjA5MiwyODcuNjlMMjkzLjk4MywyODcuODM2TDI5My44NzQsMjg3Ljk4MUwyOTMuNzYzLDI4OC4xMjZMMjkzLjY1MiwyODguMjdMMjkzLjU0LDI4OC40MTNMMjkzLjQyNywyODguNTU2TDI5My4zMTQsMjg4LjY5OEwyOTMuMTk5LDI4OC44MzlMMjkzLjA4NCwyODguOThMMjkyLjk2OCwyODkuMTE5TDI5Mi44NTEsMjg5LjI1OUwyOTIuNzMzLDI4OS4zOTdMMjkyLjYxNSwyODkuNTM1TDI5Mi40OTUsMjg5LjY3MkwyOTIuMzc1LDI4OS44MDhMMjkyLjI1NCwyODkuOTQzTDI5Mi4xMzIsMjkwLjA3OEwyOTIuMDEsMjkwLjIxMkwyOTEuODg2LDI5MC4zNDZMMjkxLjc2MiwyOTAuNDc4TDI5MS42MzcsMjkwLjYxTDI5MS41MTIsMjkwLjc0MUwyOTEuMzg1LDI5MC44NzFMMjkxLjI1OCwyOTEuMDAxTDI5MS4xMywyOTEuMTNMMjkxLjAwMSwyOTEuMjU4TDI5MC44NzEsMjkxLjM4NUwyOTAuNzQxLDI5MS41MTJMMjkwLjYxLDI5MS42MzdMMjkwLjQ3OCwyOTEuNzYyTDI5MC4zNDYsMjkxLjg4NkwyOTAuMjEyLDI5Mi4wMUwyOTAuMDc4LDI5Mi4xMzJMMjg5Ljk0MywyOTIuMjU0TDI4OS44MDgsMjkyLjM3NUwyODkuNjcyLDI5Mi40OTVMMjg5LjUzNSwyOTIuNjE1TDI4OS4zOTcsMjkyLjczM0wyODkuMjU5LDI5Mi44NTFMMjg5LjExOSwyOTIuOTY4TDI4OC45OCwyOTMuMDg0TDI4OC44MzksMjkzLjE5OUwyODguNjk4LDI5My4zMTRMMjg4LjU1NiwyOTMuNDI3TDI4OC40MTMsMjkzLjU0TDI4OC4yNywyOTMuNjUyTDI4OC4xMjYsMjkzLjc2M0wyODcuOTgxLDI5My44NzRMMjg3LjgzNiwyOTMuOTgzTDI4Ny42OSwyOTQuMDkyTDI4Ny41NDMsMjk0LjE5OUwyODcuMzk2LDI5NC4zMDZMMjg3LjI0OCwyOTQuNDEyTDI4Ny4wOTksMjk0LjUxN0wyODYuOTUsMjk0LjYyMUwyODYuOCwyOTQuNzI1TDI4Ni42NDksMjk0LjgyN0wyODYuNDk4LDI5NC45MjlMMjg2LjM0NiwyOTUuMDNMMjg2LjE5MywyOTUuMTI5TDI4Ni4wNCwyOTUuMjI4TDI4NS44ODYsMjk1LjMyNkwyODUuNzMyLDI5NS40MjRMMjg1LjU3NywyOTUuNTJMMjg1LjQyMSwyOTUuNjE1TDI4NS4yNjUsMjk1LjcwOUwyODUuMTA4LDI5NS44MDNMMjg0Ljk1LDI5NS44OTVMMjg0Ljc5MiwyOTUuOTg3TDI4NC42MzMsMjk2LjA3OEwyODQuNDc0LDI5Ni4xNjhMMjg0LjMxNCwyOTYuMjU2TDI4NC4xNTMsMjk2LjM0NEwyODMuOTkyLDI5Ni40MzFMMjgzLjgzLDI5Ni41MTdMMjgzLjY2OCwyOTYuNjAyTDI4My41MDUsMjk2LjY4NkwyODMuMzQyLDI5Ni43NjlMMjgzLjE3OCwyOTYuODUyTDI4My4wMTMsMjk2LjkzM0wyODIuODQ4LDI5Ny4wMTNMMjgyLjY4MiwyOTcuMDkyTDI4Mi41MTYsMjk3LjE3MUwyODIuMzQ5LDI5Ny4yNDhMMjgyLjE4MiwyOTcuMzI0TDI4Mi4wMTQsMjk3LjRMMjgxLjg0NiwyOTcuNDc0TDI4MS42NzcsMjk3LjU0N0wyODEuNTA3LDI5Ny42MkwyODEuMzM3LDI5Ny42OTFMMjgxLjE2NywyOTcuNzYxTDI4MC45OTYsMjk3LjgzMUwyODAuODI0LDI5Ny44OTlMMjgwLjY1MiwyOTcuOTY2TDI4MC40OCwyOTguMDMyTDI4MC4zMDcsMjk4LjA5OEwyODAuMTMzLDI5OC4xNjJMMjc5Ljk1OSwyOTguMjI1TDI3OS43ODQsMjk4LjI4N0wyNzkuNjA5LDI5OC4zNDhMMjc5LjQzNCwyOTguNDA4TDI3OS4yNTgsMjk4LjQ2N0wyNzkuMDgxLDI5OC41MjVMMjc4LjkwNCwyOTguNTgyTDI3OC43MjcsMjk4LjYzOEwyNzguNTQ5LDI5OC42OTNMMjc4LjM3MSwyOTguNzQ3TDI3OC4xOTIsMjk4Ljc5OUwyNzguMDEyLDI5OC44NTFMMjc3LjgzMywyOTguOTAxTDI3Ny42NTIsMjk4Ljk1MUwyNzcuNDcyLDI5OC45OTlMMjc3LjI5MSwyOTkuMDQ2TDI3Ny4xMDksMjk5LjA5MkwyNzYuOTI3LDI5OS4xMzhMMjc2Ljc0NSwyOTkuMTgxTDI3Ni41NjIsMjk5LjIyNEwyNzYuMzc5LDI5OS4yNjZMMjc2LjE5NSwyOTkuMzA3TDI3Ni4wMTEsMjk5LjM0NkwyNzUuODI3LDI5OS4zODVMMjc1LjY0MiwyOTkuNDIyTDI3NS40NTcsMjk5LjQ1OEwyNzUuMjcxLDI5OS40OTNMMjc1LjA4NSwyOTkuNTI3TDI3NC44OTgsMjk5LjU2TDI3NC43MTIsMjk5LjU5MUwyNzQuNTI0LDI5OS42MjJMMjc0LjMzNywyOTkuNjUxTDI3NC4xNDksMjk5LjY3OUwyNzMuOTYsMjk5LjcwNkwyNzMuNzcyLDI5OS43MzJMMjczLjU4MywyOTkuNzU3TDI3My4zOTMsMjk5Ljc4TDI3My4yMDMsMjk5LjgwMkwyNzMuMDEzLDI5OS44MjRMMjcyLjgyMywyOTkuODQ0TDI3Mi42MzIsMjk5Ljg2MkwyNzIuNDQsMjk5Ljg4TDI3Mi4yNDksMjk5Ljg5NkwyNzIuMDU3LDI5OS45MTJMMjcxLjg2NSwyOTkuOTI2TDI3MS42NzIsMjk5LjkzOUwyNzEuNDc5LDI5OS45NUwyNzEuMjg2LDI5OS45NjFMMjcxLjA5MywyOTkuOTdMMjcwLjg5OSwyOTkuOTc4TDI3MC43MDUsMjk5Ljk4NUwyNzAuNTEsMjk5Ljk5TDI3MC4zMTUsMjk5Ljk5NEwyNzAuMTIsMjk5Ljk5OEwyNjkuOTI1LDI5OS45OTlMMjY5LjcyOSwzMDBMMzAuMjcxLDMwMEwzMC4wNzUsMjk5Ljk5OUwyOS44OCwyOTkuOTk4TDI5LjY4NSwyOTkuOTk0TDI5LjQ5LDI5OS45OUwyOS4yOTUsMjk5Ljk4NUwyOS4xMDEsMjk5Ljk3OEwyOC45MDcsMjk5Ljk3TDI4LjcxNCwyOTkuOTYxTDI4LjUyMSwyOTkuOTVMMjguMzI4LDI5OS45MzlMMjguMTM1LDI5OS45MjZMMjcuOTQzLDI5OS45MTJMMjcuNzUxLDI5OS44OTZMMjcuNTYsMjk5Ljg4TDI3LjM2OCwyOTkuODYyTDI3LjE3NywyOTkuODQ0TDI2Ljk4NywyOTkuODI0TDI2Ljc5NywyOTkuODAyTDI2LjYwNywyOTkuNzhMMjYuNDE3LDI5OS43NTdMMjYuMjI4LDI5OS43MzJMMjYuMDQsMjk5LjcwNkwyNS44NTEsMjk5LjY3OUwyNS42NjMsMjk5LjY1MUwyNS40NzYsMjk5LjYyMkwyNS4yODgsMjk5LjU5MUwyNS4xMDIsMjk5LjU2TDI0LjkxNSwyOTkuNTI3TDI0LjcyOSwyOTkuNDkzTDI0LjU0MywyOTkuNDU4TDI0LjM1OCwyOTkuNDIyTDI0LjE3MywyOTkuMzg1TDIzLjk4OSwyOTkuMzQ2TDIzLjgwNSwyOTkuMzA3TDIzLjYyMSwyOTkuMjY2TDIzLjQzOCwyOTkuMjI0TDIzLjI1NSwyOTkuMTgxTDIzLjA3MywyOTkuMTM4TDIyLjg5MSwyOTkuMDkyTDIyLjcwOSwyOTkuMDQ2TDIyLjUyOCwyOTguOTk5TDIyLjM0OCwyOTguOTUxTDIyLjE2NywyOTguOTAxTDIxLjk4OCwyOTguODUxTDIxLjgwOCwyOTguNzk5TDIxLjYyOSwyOTguNzQ3TDIxLjQ1MSwyOTguNjkzTDIxLjI3MywyOTguNjM4TDIxLjA5NiwyOTguNTgyTDIwLjkxOSwyOTguNTI1TDIwLjc0MiwyOTguNDY3TDIwLjU2NiwyOTguNDA4TDIwLjM5MSwyOTguMzQ4TDIwLjIxNiwyOTguMjg3TDIwLjA0MSwyOTguMjI1TDE5Ljg2NywyOTguMTYyTDE5LjY5MywyOTguMDk4TDE5LjUyLDI5OC4wMzJMMTkuMzQ4LDI5Ny45NjZMMTkuMTc2LDI5Ny44OTlMMTkuMDA0LDI5Ny44MzFMMTguODMzLDI5Ny43NjFMMTguNjYzLDI5Ny42OTFMMTguNDkzLDI5Ny42MkwxOC4zMjMsMjk3LjU0N0wxOC4xNTQsMjk3LjQ3NEwxNy45ODYsMjk3LjRMMTcuODE4LDI5Ny4zMjRMMTcuNjUxLDI5Ny4yNDhMMTcuNDg0LDI5Ny4xNzFMMTcuMzE4LDI5Ny4wOTJMMTcuMTUyLDI5Ny4wMTNMMTYuOTg3LDI5Ni45MzNMMTYuODIyLDI5Ni44NTJMMTYuNjU4LDI5Ni43NjlMMTYuNDk1LDI5Ni42ODZMMTYuMzMyLDI5Ni42MDJMMTYuMTcsMjk2LjUxN0wxNi4wMDgsMjk2LjQzMUwxNS44NDcsMjk2LjM0NEwxNS42ODYsMjk2LjI1NkwxNS41MjYsMjk2LjE2OEwxNS4zNjcsMjk2LjA3OEwxNS4yMDgsMjk1Ljk4N0wxNS4wNSwyOTUuODk1TDE0Ljg5MiwyOTUuODAzTDE0LjczNSwyOTUuNzA5TDE0LjU3OSwyOTUuNjE1TDE0LjQyMywyOTUuNTJMMTQuMjY4LDI5NS40MjRMMTQuMTE0LDI5NS4zMjZMMTMuOTYsMjk1LjIyOEwxMy44MDcsMjk1LjEyOUwxMy42NTQsMjk1LjAzTDEzLjUwMiwyOTQuOTI5TDEzLjM1MSwyOTQuODI3TDEzLjIsMjk0LjcyNUwxMy4wNSwyOTQuNjIxTDEyLjkwMSwyOTQuNTE3TDEyLjc1MiwyOTQuNDEyTDEyLjYwNCwyOTQuMzA2TDEyLjQ1NywyOTQuMTk5TDEyLjMxLDI5NC4wOTJMMTIuMTY0LDI5My45ODNMMTIuMDE5LDI5My44NzRMMTEuODc0LDI5My43NjNMMTEuNzMsMjkzLjY1MkwxMS41ODcsMjkzLjU0TDExLjQ0NCwyOTMuNDI3TDExLjMwMiwyOTMuMzE0TDExLjE2MSwyOTMuMTk5TDExLjAyLDI5My4wODRMMTAuODgxLDI5Mi45NjhMMTAuNzQxLDI5Mi44NTFMMTAuNjAzLDI5Mi43MzNMMTAuNDY1LDI5Mi42MTVMMTAuMzI4LDI5Mi40OTVMMTAuMTkyLDI5Mi4zNzVMMTAuMDU3LDI5Mi4yNTRMOS45MjIsMjkyLjEzMkw5Ljc4OCwyOTIuMDFMOS42NTQsMjkxLjg4Nkw5LjUyMiwyOTEuNzYyTDkuMzksMjkxLjYzN0w5LjI1OSwyOTEuNTEyTDkuMTI5LDI5MS4zODVMOC45OTksMjkxLjI1OEw4Ljg3LDI5MS4xM0w4Ljc0MiwyOTEuMDAxTDguNjE1LDI5MC44NzFMOC40ODgsMjkwLjc0MUw4LjM2MywyOTAuNjFMOC4yMzgsMjkwLjQ3OEw4LjExNCwyOTAuMzQ2TDcuOTksMjkwLjIxMkw3Ljg2OCwyOTAuMDc4TDcuNzQ2LDI4OS45NDNMNy42MjUsMjg5LjgwOEw3LjUwNSwyODkuNjcyTDcuMzg1LDI4OS41MzVMNy4yNjcsMjg5LjM5N0w3LjE0OSwyODkuMjU5TDcuMDMyLDI4OS4xMTlMNi45MTYsMjg4Ljk4TDYuODAxLDI4OC44MzlMNi42ODYsMjg4LjY5OEw2LjU3MywyODguNTU2TDYuNDYsMjg4LjQxM0w2LjM0OCwyODguMjdMNi4yMzcsMjg4LjEyNkw2LjEyNiwyODcuOTgxTDYuMDE3LDI4Ny44MzZMNS45MDgsMjg3LjY5TDUuODAxLDI4Ny41NDNMNS42OTQsMjg3LjM5Nkw1LjU4OCwyODcuMjQ4TDUuNDgzLDI4Ny4wOTlMNS4zNzksMjg2Ljk1TDUuMjc1LDI4Ni44TDUuMTczLDI4Ni42NDlMNS4wNzEsMjg2LjQ5OEw0Ljk3LDI4Ni4zNDZMNC44NzEsMjg2LjE5M0w0Ljc3MiwyODYuMDRMNC42NzQsMjg1Ljg4Nkw0LjU3NiwyODUuNzMyTDQuNDgsMjg1LjU3N0w0LjM4NSwyODUuNDIxTDQuMjkxLDI4NS4yNjVMNC4xOTcsMjg1LjEwOEw0LjEwNSwyODQuOTVMNC4wMTMsMjg0Ljc5MkwzLjkyMiwyODQuNjMzTDMuODMyLDI4NC40NzRMMy43NDQsMjg0LjMxNEwzLjY1NiwyODQuMTUzTDMuNTY5LDI4My45OTJMMy40ODMsMjgzLjgzTDMuMzk4LDI4My42NjhMMy4zMTQsMjgzLjUwNUwzLjIzMSwyODMuMzQyTDMuMTQ4LDI4My4xNzhMMy4wNjcsMjgzLjAxM0wyLjk4NywyODIuODQ4TDIuOTA4LDI4Mi42ODJMMi44MjksMjgyLjUxNkwyLjc1MiwyODIuMzQ5TDIuNjc2LDI4Mi4xODJMMi42LDI4Mi4wMTRMMi41MjYsMjgxLjg0NkwyLjQ1MywyODEuNjc3TDIuMzgsMjgxLjUwN0wyLjMwOSwyODEuMzM3TDIuMjM5LDI4MS4xNjdMMi4xNjksMjgwLjk5NkwyLjEwMSwyODAuODI0TDIuMDM0LDI4MC42NTJMMS45NjgsMjgwLjQ4TDEuOTAyLDI4MC4zMDdMMS44MzgsMjgwLjEzM0wxLjc3NSwyNzkuOTU5TDEuNzEzLDI3OS43ODRMMS42NTIsMjc5LjYwOUwxLjU5MiwyNzkuNDM0TDEuNTMzLDI3OS4yNThMMS40NzUsMjc5LjA4MUwxLjQxOCwyNzguOTA0TDEuMzYyLDI3OC43MjdMMS4zMDcsMjc4LjU0OUwxLjI1MywyNzguMzcxTDEuMjAxLDI3OC4xOTJMMS4xNDksMjc4LjAxMkwxLjA5OSwyNzcuODMzTDEuMDQ5LDI3Ny42NTJMMS4wMDEsMjc3LjQ3MkwwLjk1NCwyNzcuMjkxTDAuOTA4LDI3Ny4xMDlMMC44NjIsMjc2LjkyN0wwLjgxOSwyNzYuNzQ1TDAuNzc2LDI3Ni41NjJMMC43MzQsMjc2LjM3OUwwLjY5MywyNzYuMTk1TDAuNjU0LDI3Ni4wMTFMMC42MTUsMjc1LjgyN0wwLjU3OCwyNzUuNjQyTDAuNTQyLDI3NS40NTdMMC41MDcsMjc1LjI3MUwwLjQ3MywyNzUuMDg1TDAuNDQsMjc0Ljg5OEwwLjQwOSwyNzQuNzEyTDAuMzc4LDI3NC41MjRMMC4zNDksMjc0LjMzN0wwLjMyMSwyNzQuMTQ5TDAuMjk0LDI3My45NkwwLjI2OCwyNzMuNzcyTDAuMjQzLDI3My41ODNMMC4yMiwyNzMuMzkzTDAuMTk4LDI3My4yMDNMMC4xNzYsMjczLjAxM0wwLjE1NiwyNzIuODIzTDAuMTM4LDI3Mi42MzJMMC4xMiwyNzIuNDRMMC4xMDQsMjcyLjI0OUwwLjA4OCwyNzIuMDU3TDAuMDc0LDI3MS44NjVMMC4wNjEsMjcxLjY3MkwwLjA1LDI3MS40NzlMMC4wMzksMjcxLjI4NkwwLjAzLDI3MS4wOTNMMC4wMjIsMjcwLjg5OUwwLjAxNSwyNzAuNzA1TDAuMDEsMjcwLjUxTDAuMDA2LDI3MC4zMTVMMC4wMDIsMjcwLjEyTDAuMDAxLDI2OS45MjVMMCwyNjkuNzI5TDAsMzAuMjcxTDAuMDAxLDMwLjA3NUwwLjAwMiwyOS44OEwwLjAwNiwyOS42ODVMMC4wMSwyOS40OUwwLjAxNSwyOS4yOTVMMC4wMjIsMjkuMTAxTDAuMDMsMjguOTA3TDAuMDM5LDI4LjcxNEwwLjA1LDI4LjUyMUwwLjA2MSwyOC4zMjhMMC4wNzQsMjguMTM1TDAuMDg4LDI3Ljk0M0wwLjEwNCwyNy43NTFMMC4xMiwyNy41NkwwLjEzOCwyNy4zNjhMMC4xNTYsMjcuMTc3TDAuMTc2LDI2Ljk4N0wwLjE5OCwyNi43OTdMMC4yMiwyNi42MDdMMC4yNDMsMjYuNDE3TDAuMjY4LDI2LjIyOEwwLjI5NCwyNi4wNEwwLjMyMSwyNS44NTFMMC4zNDksMjUuNjYzTDAuMzc4LDI1LjQ3NkwwLjQwOSwyNS4yODhMMC40NCwyNS4xMDJMMC40NzMsMjQuOTE1TDAuNTA3LDI0LjcyOUwwLjU0MiwyNC41NDNMMC41NzgsMjQuMzU4TDAuNjE1LDI0LjE3M0wwLjY1NCwyMy45ODlMMC42OTMsMjMuODA1TDAuNzM0LDIzLjYyMUwwLjc3NiwyMy40MzhMMC44MTksMjMuMjU1TDAuODYyLDIzLjA3M0wwLjkwOCwyMi44OTFMMC45NTQsMjIuNzA5TDEuMDAxLDIyLjUyOEwxLjA0OSwyMi4zNDhMMS4wOTksMjIuMTY3TDEuMTQ5LDIxLjk4OEwxLjIwMSwyMS44MDhMMS4yNTMsMjEuNjI5TDEuMzA3LDIxLjQ1MUwxLjM2MiwyMS4yNzNMMS40MTgsMjEuMDk2TDEuNDc1LDIwLjkxOUwxLjUzMywyMC43NDJMMS41OTIsMjAuNTY2TDEuNjUyLDIwLjM5MUwxLjcxMywyMC4yMTZMMS43NzUsMjAuMDQxTDEuODM4LDE5Ljg2N0wxLjkwMiwxOS42OTNMMS45NjgsMTkuNTJMMi4wMzQsMTkuMzQ4TDIuMTAxLDE5LjE3NkwyLjE2OSwxOS4wMDRMMi4yMzksMTguODMzTDIuMzA5LDE4LjY2M0wyLjM4LDE4LjQ5M0wyLjQ1MywxOC4zMjNMMi41MjYsMTguMTU0TDIuNiwxNy45ODZMMi42NzYsMTcuODE4TDIuNzUyLDE3LjY1MUwyLjgyOSwxNy40ODRMMi45MDgsMTcuMzE4TDIuOTg3LDE3LjE1MkwzLjA2NywxNi45ODdMMy4xNDgsMTYuODIyTDMuMjMxLDE2LjY1OEwzLjMxNCwxNi40OTVMMy4zOTgsMTYuMzMyTDMuNDgzLDE2LjE3TDMuNTY5LDE2LjAwOEwzLjY1NiwxNS44NDdMMy43NDQsMTUuNjg2TDMuODMyLDE1LjUyNkwzLjkyMiwxNS4zNjdMNC4wMTMsMTUuMjA4TDQuMTA1LDE1LjA1TDQuMTk3LDE0Ljg5Mkw0LjI5MSwxNC43MzVMNC4zODUsMTQuNTc5TDQuNDgsMTQuNDIzTDQuNTc2LDE0LjI2OEw0LjY3NCwxNC4xMTRMNC43NzIsMTMuOTZMNC44NzEsMTMuODA3TDQuOTcsMTMuNjU0TDUuMDcxLDEzLjUwMkw1LjE3MywxMy4zNTFMNS4yNzUsMTMuMkw1LjM3OSwxMy4wNUw1LjQ4MywxMi45MDFMNS41ODgsMTIuNzUyTDUuNjk0LDEyLjYwNEw1LjgwMSwxMi40NTdMNS45MDgsMTIuMzFMNi4wMTcsMTIuMTY0TDYuMTI2LDEyLjAxOUw2LjIzNywxMS44NzRMNi4zNDgsMTEuNzNMNi40NiwxMS41ODdMNi41NzMsMTEuNDQ0TDYuNjg2LDExLjMwMkw2LjgwMSwxMS4xNjFMNi45MTYsMTEuMDJMNy4wMzIsMTAuODgxTDcuMTQ5LDEwLjc0MUw3LjI2NywxMC42MDNMNy4zODUsMTAuNDY1TDcuNTA1LDEwLjMyOEw3LjYyNSwxMC4xOTJMNy43NDYsMTAuMDU3TDcuODY4LDkuOTIyTDcuOTksOS43ODhMOC4xMTQsOS42NTRMOC4yMzgsOS41MjJMOC4zNjMsOS4zOUw4LjQ4OCw5LjI1OUw4LjYxNSw5LjEyOUw4Ljc0Miw4Ljk5OUw4Ljg3LDguODdMOC45OTksOC43NDJMOS4xMjksOC42MTVMOS4yNTksOC40ODhMOS4zOSw4LjM2M0w5LjUyMiw4LjIzOEw5LjY1NCw4LjExNEw5Ljc4OCw3Ljk5TDkuOTIyLDcuODY4TDEwLjA1Nyw3Ljc0NkwxMC4xOTIsNy42MjVMMTAuMzI4LDcuNTA1TDEwLjQ2NSw3LjM4NUwxMC42MDMsNy4yNjdMMTAuNzQxLDcuMTQ5TDEwLjg4MSw3LjAzMkwxMS4wMiw2LjkxNkwxMS4xNjEsNi44MDFMMTEuMzAyLDYuNjg2TDExLjQ0NCw2LjU3M0wxMS41ODcsNi40NkwxMS43Myw2LjM0OEwxMS44NzQsNi4yMzdMMTIuMDE5LDYuMTI2TDEyLjE2NCw2LjAxN0wxMi4zMSw1LjkwOEwxMi40NTcsNS44MDFMMTIuNjA0LDUuNjk0TDEyLjc1Miw1LjU4OEwxMi45MDEsNS40ODNMMTMuMDUsNS4zNzlMMTMuMiw1LjI3NUwxMy4zNTEsNS4xNzNMMTMuNTAyLDUuMDcxTDEzLjY1NCw0Ljk3TDEzLjgwNyw0Ljg3MUwxMy45Niw0Ljc3MkwxNC4xMTQsNC42NzRMMTQuMjY4LDQuNTc2TDE0LjQyMyw0LjQ4TDE0LjU3OSw0LjM4NUwxNC43MzUsNC4yOTFMMTQuODkyLDQuMTk3TDE1LjA1LDQuMTA1TDE1LjIwOCw0LjAxM0wxNS4zNjcsMy45MjJMMTUuNTI2LDMuODMyTDE1LjY4NiwzLjc0NEwxNS44NDcsMy42NTZMMTYuMDA4LDMuNTY5TDE2LjE3LDMuNDgzTDE2LjMzMiwzLjM5OEwxNi40OTUsMy4zMTRMMTYuNjU4LDMuMjMxTDE2LjgyMiwzLjE0OEwxNi45ODcsMy4wNjdMMTcuMTUyLDIuOTg3TDE3LjMxOCwyLjkwOEwxNy40ODQsMi44MjlMMTcuNjUxLDIuNzUyTDE3LjgxOCwyLjY3NkwxNy45ODYsMi42TDE4LjE1NCwyLjUyNkwxOC4zMjMsMi40NTNMMTguNDkzLDIuMzhMMTguNjYzLDIuMzA5TDE4LjgzMywyLjIzOUwxOS4wMDQsMi4xNjlMMTkuMTc2LDIuMTAxTDE5LjM0OCwyLjAzNEwxOS41MiwxLjk2OEwxOS42OTMsMS45MDJMMTkuODY3LDEuODM4TDIwLjA0MSwxLjc3NUwyMC4yMTYsMS43MTNMMjAuMzkxLDEuNjUyTDIwLjU2NiwxLjU5MkwyMC43NDIsMS41MzNMMjAuOTE5LDEuNDc1TDIxLjA5NiwxLjQxOEwyMS4yNzMsMS4zNjJMMjEuNDUxLDEuMzA3TDIxLjYyOSwxLjI1M0wyMS44MDgsMS4yMDFMMjEuOTg4LDEuMTQ5TDIyLjE2NywxLjA5OUwyMi4zNDgsMS4wNDlMMjIuNTI4LDEuMDAxTDIyLjcwOSwwLjk1NEwyMi44OTEsMC45MDhMMjMuMDczLDAuODYyTDIzLjI1NSwwLjgxOUwyMy40MzgsMC43NzZMMjMuNjIxLDAuNzM0TDIzLjgwNSwwLjY5M0wyMy45ODksMC42NTRMMjQuMTczLDAuNjE1TDI0LjM1OCwwLjU3OEwyNC41NDMsMC41NDJMMjQuNzI5LDAuNTA3TDI0LjkxNSwwLjQ3M0wyNS4xMDIsMC40NEwyNS4yODgsMC40MDlMMjUuNDc2LDAuMzc4TDI1LjY2MywwLjM0OUwyNS44NTEsMC4zMjFMMjYuMDQsMC4yOTRMMjYuMjI4LDAuMjY4TDI2LjQxNywwLjI0M0wyNi42MDcsMC4yMkwyNi43OTcsMC4xOThMMjYuOTg3LDAuMTc2TDI3LjE3NywwLjE1NkwyNy4zNjgsMC4xMzhMMjcuNTYsMC4xMkwyNy43NTEsMC4xMDRMMjcuOTQzLDAuMDg4TDI4LjEzNSwwLjA3NEwyOC4zMjgsMC4wNjFMMjguNTIxLDAuMDVMMjguNzE0LDAuMDM5TDI4LjkwNywwLjAzTDI5LjEwMSwwLjAyMkwyOS4yOTUsMC4wMTVMMjkuNDksMC4wMUwyOS42ODUsMC4wMDZMMjkuODgsMC4wMDJMMzAuMDc1LDAuMDAxTDMwLjI3MSwwTDI2OS43MjksMEwyNjkuOTI1LDAuMDAxWk0zMC4yOTYsMTZMMzAuMTc2LDE2TDMwLjA4MywxNi4wMDFMMjkuOTg5LDE2LjAwM0wyOS44OTYsMTYuMDA1TDI5LjgwMywxNi4wMDdMMjkuNzEsMTYuMDExTDI5LjYxNywxNi4wMTVMMjkuNTI1LDE2LjAxOUwyOS40MzMsMTYuMDI0TDI5LjM0MSwxNi4wMjlMMjkuMjUsMTYuMDM2TDI5LjE1OSwxNi4wNDJMMjkuMDY4LDE2LjA0OUwyOC45NzcsMTYuMDU3TDI4Ljg4NiwxNi4wNjZMMjguNzk2LDE2LjA3NEwyOC43MDYsMTYuMDg0TDI4LjYxNiwxNi4wOTRMMjguNTI3LDE2LjEwNEwyOC40MzgsMTYuMTE1TDI4LjM0OCwxNi4xMjdMMjguMjYsMTYuMTM5TDI4LjE3MSwxNi4xNTJMMjguMDgzLDE2LjE2NUwyNy45OTUsMTYuMTc5TDI3LjkwNywxNi4xOTNMMjcuODE5LDE2LjIwOEwyNy43MzIsMTYuMjIzTDI3LjY0NCwxNi4yMzlMMjcuNTU3LDE2LjI1NkwyNy40NzEsMTYuMjczTDI3LjM4NCwxNi4yOUwyNy4yOTgsMTYuMzA4TDI3LjIxMiwxNi4zMjZMMjcuMTI2LDE2LjM0NUwyNy4wNCwxNi4zNjVMMjYuOTU1LDE2LjM4NUwyNi44NywxNi40MDZMMjYuNzg1LDE2LjQyN0wyNi43LDE2LjQ0OEwyNi42MTUsMTYuNDdMMjYuNTMxLDE2LjQ5M0wyNi40NDcsMTYuNTE2TDI2LjM2MywxNi41MzlMMjYuMjc5LDE2LjU2NEwyNi4xOTUsMTYuNTg4TDI2LjExMiwxNi42MTNMMjYuMDI5LDE2LjYzOUwyNS45NDYsMTYuNjY1TDI1Ljg2NCwxNi42OTFMMjUuNzgxLDE2LjcxOUwyNS42OTksMTYuNzQ2TDI1LjYxNywxNi43NzRMMjUuNTM1LDE2LjgwM0wyNS40NTQsMTYuODMyTDI1LjM3MiwxNi44NjFMMjUuMjkxLDE2Ljg5MUwyNS4yMSwxNi45MjJMMjUuMTI5LDE2Ljk1M0wyNS4wNDksMTYuOTg0TDI0Ljk2OSwxNy4wMTZMMjQuODg5LDE3LjA0OUwyNC44MDksMTcuMDgyTDI0LjcyOSwxNy4xMTVMMjQuNjUsMTcuMTQ5TDI0LjU3MSwxNy4xODNMMjQuNDkyLDE3LjIxOEwyNC40MTMsMTcuMjUzTDI0LjMzNSwxNy4yODlMMjQuMjU3LDE3LjMyNUwyNC4xNzksMTcuMzYyTDI0LjEwMSwxNy4zOTlMMjQuMDIzLDE3LjQzN0wyMy45NDYsMTcuNDc1TDIzLjg2OSwxNy41MTRMMjMuNzkyLDE3LjU1M0wyMy43MTYsMTcuNTkyTDIzLjYzOSwxNy42MzJMMjMuNTYzLDE3LjY3M0wyMy40ODcsMTcuNzE0TDIzLjQxMiwxNy43NTVMMjMuMzM3LDE3Ljc5N0wyMy4yNjIsMTcuODM5TDIzLjE4NywxNy44ODJMMjMuMTEyLDE3LjkyNUwyMy4wMzgsMTcuOTY5TDIyLjk2NCwxOC4wMTNMMjIuODksMTguMDU3TDIyLjgxNywxOC4xMDJMMjIuNzQ0LDE4LjE0OEwyMi42NzEsMTguMTkzTDIyLjU5OCwxOC4yNEwyMi41MjYsMTguMjg2TDIyLjQ1MywxOC4zMzRMMjIuMzgyLDE4LjM4MUwyMi4zMSwxOC40MjlMMjIuMjM5LDE4LjQ3OEwyMi4xNjgsMTguNTI3TDIyLjA5NywxOC41NzZMMjIuMDI3LDE4LjYyNkwyMS45NTcsMTguNjc2TDIxLjg4NywxOC43MjdMMjEuODE3LDE4Ljc3OEwyMS43NDgsMTguODI5TDIxLjY3OSwxOC44ODFMMjEuNjExLDE4LjkzM0wyMS41NDIsMTguOTg2TDIxLjQ3NCwxOS4wMzlMMjEuNDA3LDE5LjA5MkwyMS4zMzksMTkuMTQ2TDIxLjI3MiwxOS4yMDFMMjEuMjA2LDE5LjI1NUwyMS4xMzksMTkuMzExTDIxLjA3MywxOS4zNjZMMjEuMDA3LDE5LjQyMkwyMC45NDIsMTkuNDc4TDIwLjg3NywxOS41MzVMMjAuODEyLDE5LjU5MkwyMC43NDgsMTkuNjVMMjAuNjg0LDE5LjcwN0wyMC42MiwxOS43NjZMMjAuNTU3LDE5LjgyNEwyMC40OTQsMTkuODgzTDIwLjQzMSwxOS45NDNMMjAuMzY5LDIwLjAwM0wyMC4zMDcsMjAuMDYzTDIwLjI0NSwyMC4xMjNMMjAuMTg0LDIwLjE4NEwyMC4xMjMsMjAuMjQ1TDIwLjA2MywyMC4zMDdMMjAuMDAzLDIwLjM2OUwxOS45NDMsMjAuNDMxTDE5Ljg4MywyMC40OTRMMTkuODI0LDIwLjU1N0wxOS43NjYsMjAuNjJMMTkuNzA3LDIwLjY4NEwxOS42NSwyMC43NDhMMTkuNTkyLDIwLjgxMkwxOS41MzUsMjAuODc3TDE5LjQ3OCwyMC45NDJMMTkuNDIyLDIxLjAwN0wxOS4zNjYsMjEuMDczTDE5LjMxMSwyMS4xMzlMMTkuMjU1LDIxLjIwNkwxOS4yMDEsMjEuMjcyTDE5LjE0NiwyMS4zMzlMMTkuMDkyLDIxLjQwN0wxOS4wMzksMjEuNDc0TDE4Ljk4NiwyMS41NDJMMTguOTMzLDIxLjYxMUwxOC44ODEsMjEuNjc5TDE4LjgyOSwyMS43NDhMMTguNzc4LDIxLjgxN0wxOC43MjcsMjEuODg3TDE4LjY3NiwyMS45NTdMMTguNjI2LDIyLjAyN0wxOC41NzYsMjIuMDk3TDE4LjUyNywyMi4xNjhMMTguNDc4LDIyLjIzOUwxOC40MjksMjIuMzFMMTguMzgxLDIyLjM4MkwxOC4zMzQsMjIuNDUzTDE4LjI4NiwyMi41MjZMMTguMjQsMjIuNTk4TDE4LjE5MywyMi42NzFMMTguMTQ4LDIyLjc0NEwxOC4xMDIsMjIuODE3TDE4LjA1NywyMi44OUwxOC4wMTMsMjIuOTY0TDE3Ljk2OSwyMy4wMzhMMTcuOTI1LDIzLjExMkwxNy44ODIsMjMuMTg3TDE3LjgzOSwyMy4yNjJMMTcuNzk3LDIzLjMzN0wxNy43NTUsMjMuNDEyTDE3LjcxNCwyMy40ODdMMTcuNjczLDIzLjU2M0wxNy42MzIsMjMuNjM5TDE3LjU5MiwyMy43MTZMMTcuNTUzLDIzLjc5MkwxNy41MTQsMjMuODY5TDE3LjQ3NSwyMy45NDZMMTcuNDM3LDI0LjAyM0wxNy4zOTksMjQuMTAxTDE3LjM2MiwyNC4xNzlMMTcuMzI1LDI0LjI1N0wxNy4yODksMjQuMzM1TDE3LjI1MywyNC40MTNMMTcuMjE4LDI0LjQ5MkwxNy4xODMsMjQuNTcxTDE3LjE0OSwyNC42NUwxNy4xMTUsMjQuNzI5TDE3LjA4MiwyNC44MDlMMTcuMDQ5LDI0Ljg4OUwxNy4wMTYsMjQuOTY5TDE2Ljk4NCwyNS4wNDlMMTYuOTUzLDI1LjEyOUwxNi45MjIsMjUuMjFMMTYuODkxLDI1LjI5MUwxNi44NjEsMjUuMzcyTDE2LjgzMiwyNS40NTRMMTYuODAzLDI1LjUzNUwxNi43NzQsMjUuNjE3TDE2Ljc0NiwyNS42OTlMMTYuNzE5LDI1Ljc4MUwxNi42OTEsMjUuODY0TDE2LjY2NSwyNS45NDZMMTYuNjM5LDI2LjAyOUwxNi42MTMsMjYuMTEyTDE2LjU4OCwyNi4xOTVMMTYuNTY0LDI2LjI3OUwxNi41MzksMjYuMzYzTDE2LjUxNiwyNi40NDdMMTYuNDkzLDI2LjUzMUwxNi40NywyNi42MTVMMTYuNDQ4LDI2LjdMMTYuNDI3LDI2Ljc4NUwxNi40MDYsMjYuODdMMTYuMzg1LDI2Ljk1NUwxNi4zNjUsMjcuMDRMMTYuMzQ1LDI3LjEyNkwxNi4zMjYsMjcuMjEyTDE2LjMwOCwyNy4yOThMMTYuMjksMjcuMzg0TDE2LjI3MywyNy40NzFMMTYuMjU2LDI3LjU1N0wxNi4yMzksMjcuNjQ0TDE2LjIyMywyNy43MzJMMTYuMjA4LDI3LjgxOUwxNi4xOTMsMjcuOTA3TDE2LjE3OSwyNy45OTVMMTYuMTY1LDI4LjA4M0wxNi4xNTIsMjguMTcxTDE2LjEzOSwyOC4yNkwxNi4xMjcsMjguMzQ4TDE2LjExNSwyOC40MzhMMTYuMTA0LDI4LjUyN0wxNi4wOTQsMjguNjE2TDE2LjA4NCwyOC43MDZMMTYuMDc0LDI4Ljc5NkwxNi4wNjYsMjguODg2TDE2LjA1NywyOC45NzdMMTYuMDQ5LDI5LjA2OEwxNi4wNDIsMjkuMTU5TDE2LjAzNiwyOS4yNUwxNi4wMjksMjkuMzQxTDE2LjAyNCwyOS40MzNMMTYuMDE5LDI5LjUyNUwxNi4wMTUsMjkuNjE3TDE2LjAxMSwyOS43MUwxNi4wMDcsMjkuODAzTDE2LjAwNSwyOS44OTZMMTYuMDAzLDI5Ljk4OUwxNi4wMDEsMzAuMDgzTDE2LDMwLjE3NkwxNiwyNjkuODI0TDE2LjAwMSwyNjkuOTE3TDE2LjAwNSwyNzAuMTA0TDE2LjAwNywyNzAuMTk3TDE2LjAxNSwyNzAuMzgzTDE2LjAxOSwyNzAuNDc1TDE2LjAyOSwyNzAuNjU5TDE2LjAzNiwyNzAuNzVMMTYuMDQyLDI3MC44NDFMMTYuMDQ5LDI3MC45MzJMMTYuMDU3LDI3MS4wMjNMMTYuMDY2LDI3MS4xMTRMMTYuMDc0LDI3MS4yMDRMMTYuMDk0LDI3MS4zODRMMTYuMTA0LDI3MS40NzNMMTYuMTE1LDI3MS41NjJMMTYuMTI3LDI3MS42NTJMMTYuMTM5LDI3MS43NEwxNi4xNTIsMjcxLjgyOUwxNi4xNjUsMjcxLjkxN0wxNi4xOTMsMjcyLjA5M0wxNi4yMDgsMjcyLjE4MUwxNi4yMjMsMjcyLjI2OEwxNi4yMzksMjcyLjM1NUwxNi4yOSwyNzIuNjE2TDE2LjMwOCwyNzIuNzAyTDE2LjMyNywyNzIuNzg4TDE2LjM0NSwyNzIuODc0TDE2LjM2NSwyNzIuOTZMMTYuMzg1LDI3My4wNDVMMTYuNDA2LDI3My4xM0wxNi40MjcsMjczLjIxNkwxNi40NDgsMjczLjNMMTYuNDcsMjczLjM4NUwxNi41MzksMjczLjYzN0wxNi41NjQsMjczLjcyMUwxNi41ODgsMjczLjgwNUwxNi42MTMsMjczLjg4OEwxNi42OTEsMjc0LjEzN0wxNi43MTksMjc0LjIxOUwxNi43NDYsMjc0LjMwMUwxNi43NzQsMjc0LjM4M0wxNi44MDMsMjc0LjQ2NUwxNi44MzIsMjc0LjU0NkwxNi44NjEsMjc0LjYyOEwxNi44OTEsMjc0LjcwOUwxNi45NTMsMjc0Ljg3MUwxNi45ODQsMjc0Ljk1MUwxNy4wMTYsMjc1LjAzMUwxNy4xMTUsMjc1LjI3MUwxNy4xNDksMjc1LjM1MUwxNy4xODMsMjc1LjQyOUwxNy4yNTMsMjc1LjU4N0wxNy4zMjUsMjc1Ljc0M0wxNy4zOTksMjc1Ljg5OUwxNy40MzcsMjc1Ljk3N0wxNy40NzUsMjc2LjA1NEwxNy41OTIsMjc2LjI4NUwxNy42MzIsMjc2LjM2MUwxNy42NzIsMjc2LjQzNkwxNy43MTMsMjc2LjUxMkwxNy43NTUsMjc2LjU4OUwxNy43OTcsMjc2LjY2M0wxNy44MzksMjc2LjczOEwxNy44ODIsMjc2LjgxM0wxNy45MjUsMjc2Ljg4N0wxNy45NjksMjc2Ljk2MkwxOC4wNTcsMjc3LjExTDE4LjE0NywyNzcuMjU2TDE4LjE5NCwyNzcuMzNMMTguMjg2LDI3Ny40NzRMMTguMzM0LDI3Ny41NDdMMTguMzgyLDI3Ny42MTlMMTguNDI5LDI3Ny42OUwxOC40NzgsMjc3Ljc2MUwxOC41MjYsMjc3LjgzMkwxOC41NzYsMjc3LjkwM0wxOC42MjYsMjc3Ljk3M0wxOC42NzYsMjc4LjA0NEwxOC43MjcsMjc4LjExM0wxOC43NzcsMjc4LjE4MkwxOC44MjksMjc4LjI1MkwxOC44ODEsMjc4LjMyMUwxOC45MzMsMjc4LjM4OUwxOC45ODYsMjc4LjQ1OEwxOS4wMzksMjc4LjUyNkwxOS4wOTIsMjc4LjU5M0wxOS4xNDcsMjc4LjY2MUwxOS4yMDEsMjc4LjcyOEwxOS4yNTYsMjc4Ljc5NUwxOS4zMSwyNzguODZMMTkuMzY2LDI3OC45MjdMMTkuNDIyLDI3OC45OTNMMTkuNDc4LDI3OS4wNThMMTkuNTkyLDI3OS4xODhMMTkuNjQ5LDI3OS4yNTJMMTkuNzA3LDI3OS4zMTZMMTkuODI1LDI3OS40NDRMMTkuODg0LDI3OS41MDZMMTkuOTQyLDI3OS41NjhMMjAuMDAzLDI3OS42MzJMMjAuMDYzLDI3OS42OTNMMjAuMTIzLDI3OS43NTVMMjAuMjQ1LDI3OS44NzdMMjAuMzA3LDI3OS45MzhMMjAuMzY4LDI3OS45OTdMMjAuNDk0LDI4MC4xMTdMMjAuNTU3LDI4MC4xNzZMMjAuNjIsMjgwLjIzNEwyMC42ODQsMjgwLjI5M0wyMC43NDgsMjgwLjM1TDIwLjgxMiwyODAuNDA4TDIwLjk0MiwyODAuNTIyTDIxLjAwNywyODAuNTc4TDIxLjA3MywyODAuNjM0TDIxLjEzOSwyODAuNjg5TDIxLjIwNiwyODAuNzQ1TDIxLjI3MiwyODAuNzk5TDIxLjM0LDI4MC44NTRMMjEuNDA3LDI4MC45MDhMMjEuNDc0LDI4MC45NjFMMjEuNjEsMjgxLjA2N0wyMS42NzgsMjgxLjExOUwyMS43NDgsMjgxLjE3MUwyMS44MTcsMjgxLjIyM0wyMS44ODYsMjgxLjI3M0wyMS45NTcsMjgxLjMyNEwyMi4wOTcsMjgxLjQyNEwyMi4xNjgsMjgxLjQ3NEwyMi4yMzksMjgxLjUyMkwyMi4zMSwyODEuNTcxTDIyLjM4MSwyODEuNjE5TDIyLjQ1NCwyODEuNjY2TDIyLjUyNiwyODEuNzE0TDIyLjU5OCwyODEuNzYxTDIyLjY3LDI4MS44MDZMMjIuNzQzLDI4MS44NTJMMjIuODE3LDI4MS44OThMMjIuODksMjgxLjk0M0wyMi45NjQsMjgxLjk4N0wyMy4wMzgsMjgyLjAzMkwyMy4xODYsMjgyLjExOEwyMy4yNjIsMjgyLjE2MUwyMy4zMzYsMjgyLjIwM0wyMy40MTEsMjgyLjI0NUwyMy41NjMsMjgyLjMyN0wyMy42NCwyODIuMzY4TDIzLjcxNiwyODIuNDA4TDIzLjc5MywyODIuNDQ3TDIzLjg2OSwyODIuNDg3TDI0LjEsMjgyLjYwMUwyNC4xNzgsMjgyLjYzOEwyNC4yNTYsMjgyLjY3NEwyNC4zMzUsMjgyLjcxMUwyNC40MTQsMjgyLjc0N0wyNC41NywyODIuODE3TDI0LjY0OSwyODIuODUxTDI0LjcyOSwyODIuODg1TDI0LjgxLDI4Mi45MTlMMjQuODg4LDI4Mi45NTFMMjQuOTY5LDI4Mi45ODRMMjUuMDUsMjgzLjAxNkwyNS4xMjksMjgzLjA0N0wyNS4yOTEsMjgzLjEwOUwyNS4zNzMsMjgzLjEzOUwyNS40NTQsMjgzLjE2OEwyNS41MzQsMjgzLjE5N0wyNS42MTcsMjgzLjIyNkwyNS43ODEsMjgzLjI4MkwyNS44NjQsMjgzLjMwOUwyNi4wMjgsMjgzLjM2MUwyNi4xMTMsMjgzLjM4N0wyNi4xOTYsMjgzLjQxMkwyNi4yNzgsMjgzLjQzNkwyNi4zNjIsMjgzLjQ2TDI2LjQ0NywyODMuNDg0TDI2LjYxNSwyODMuNTNMMjYuNywyODMuNTUyTDI2Ljc4NiwyODMuNTc0TDI2Ljg2OSwyODMuNTk0TDI2Ljk1NSwyODMuNjE1TDI3LjA0LDI4My42MzVMMjcuMTI1LDI4My42NTRMMjcuMjEyLDI4My42NzRMMjcuMzg0LDI4My43MUwyNy40NywyODMuNzI3TDI3LjU1OCwyODMuNzQ0TDI3LjY0NSwyODMuNzYxTDI3LjczMiwyODMuNzc3TDI3LjkwNiwyODMuODA3TDI3Ljk5NCwyODMuODIxTDI4LjA4MywyODMuODM1TDI4LjI1OSwyODMuODYxTDI4LjM1LDI4My44NzNMMjguNDM4LDI4My44ODVMMjguNTI3LDI4My44OTZMMjguNjE2LDI4My45MDZMMjguNzk2LDI4My45MjZMMjguODg2LDI4My45MzRMMjguOTc2LDI4My45NDNMMjkuMDY3LDI4My45NTFMMjkuMjUxLDI4My45NjVMMjkuMzQyLDI4My45NzFMMjkuNDMyLDI4My45NzZMMjkuNTI1LDI4My45ODFMMjkuNjE4LDI4My45ODVMMjkuNzEsMjgzLjk4OUwyOS44MDMsMjgzLjk5M0wyOS44OTUsMjgzLjk5NUwzMC4wODMsMjgzLjk5OUwzMC4xNzYsMjg0TDI2OS44MjQsMjg0TDI2OS45MTcsMjgzLjk5OUwyNzAuMDExLDI4My45OTdMMjcwLjEwNSwyODMuOTk1TDI3MC4xOTcsMjgzLjk5M0wyNzAuMjksMjgzLjk4OUwyNzAuMzgyLDI4My45ODVMMjcwLjQ3NSwyODMuOTgxTDI3MC41NjgsMjgzLjk3NkwyNzAuNjU4LDI4My45NzFMMjcwLjc0OSwyODMuOTY1TDI3MC44NDEsMjgzLjk1OEwyNzAuOTMzLDI4My45NTFMMjcxLjAyNCwyODMuOTQzTDI3MS4xMTQsMjgzLjkzNEwyNzEuMjA0LDI4My45MjZMMjcxLjI5NCwyODMuOTE2TDI3MS4zODQsMjgzLjkwNkwyNzEuNDczLDI4My44OTZMMjcxLjU2MiwyODMuODg1TDI3MS42NSwyODMuODczTDI3MS43NDEsMjgzLjg2MUwyNzEuODI5LDI4My44NDhMMjcxLjkxNywyODMuODM1TDI3Mi4wMDYsMjgzLjgyMUwyNzIuMDk0LDI4My44MDdMMjcyLjE4MSwyODMuNzkyTDI3Mi4yNjgsMjgzLjc3N0wyNzIuMzU1LDI4My43NjFMMjcyLjQ0MiwyODMuNzQ0TDI3Mi41MywyODMuNzI3TDI3Mi42MTYsMjgzLjcxTDI3Mi43MDIsMjgzLjY5MkwyNzIuNzg4LDI4My42NzRMMjcyLjg3NSwyODMuNjU0TDI3Mi45NiwyODMuNjM1TDI3My4wNDUsMjgzLjYxNUwyNzMuMTMxLDI4My41OTRMMjczLjIxNSwyODMuNTc0TDI3My4zLDI4My41NTJMMjczLjM4NSwyODMuNTNMMjczLjQ2OSwyODMuNTA3TDI3My41NTMsMjgzLjQ4NEwyNzMuNjM4LDI4My40NkwyNzMuNzIyLDI4My40MzZMMjczLjgwNCwyODMuNDEyTDI3My44ODcsMjgzLjM4N0wyNzMuOTcyLDI4My4zNjFMMjc0LjA1NCwyODMuMzM1TDI3NC4xMzYsMjgzLjMwOUwyNzQuMjE5LDI4My4yODFMMjc0LjMwMSwyODMuMjU0TDI3NC4zODMsMjgzLjIyNkwyNzQuNDY1LDI4My4xOTdMMjc0LjU0NiwyODMuMTY4TDI3NC42MjcsMjgzLjEzOUwyNzQuNzA5LDI4My4xMDlMMjc0Ljc5LDI4My4wNzhMMjc0Ljg3MSwyODMuMDQ3TDI3NC45NSwyODMuMDE2TDI3NS4wMzEsMjgyLjk4NEwyNzUuMTEyLDI4Mi45NTFMMjc1LjE5LDI4Mi45MTlMMjc1LjI3MSwyODIuODg1TDI3NS4zNTIsMjgyLjg1MUwyNzUuNDI5LDI4Mi44MTdMMjc1LjUwNywyODIuNzgyTDI3NS41ODYsMjgyLjc0N0wyNzUuNjY1LDI4Mi43MTFMMjc1Ljc0NCwyODIuNjc1TDI3NS44MjIsMjgyLjYzOEwyNzUuOSwyODIuNjAxTDI3NS45NzcsMjgyLjU2M0wyNzYuMDUzLDI4Mi41MjVMMjc2LjEzMSwyODIuNDg2TDI3Ni4yMDgsMjgyLjQ0N0wyNzYuMjg0LDI4Mi40MDhMMjc2LjM2MSwyODIuMzY4TDI3Ni40MzYsMjgyLjMyOEwyNzYuNTEyLDI4Mi4yODdMMjc2LjU4OSwyODIuMjQ0TDI3Ni42NjMsMjgyLjIwM0wyNzYuNzM4LDI4Mi4xNjFMMjc2LjgxNCwyODIuMTE4TDI3Ni44ODgsMjgyLjA3NUwyNzYuOTYyLDI4Mi4wMzJMMjc3LjAzNiwyODEuOTg3TDI3Ny4xMSwyODEuOTQzTDI3Ny4xODMsMjgxLjg5OEwyNzcuMjU2LDI4MS44NTJMMjc3LjMzLDI4MS44MDZMMjc3LjQwMiwyODEuNzYxTDI3Ny40NzMsMjgxLjcxNEwyNzcuNTQ3LDI4MS42NjZMMjc3LjYxOSwyODEuNjE4TDI3Ny42OSwyODEuNTcxTDI3Ny43NjEsMjgxLjUyMkwyNzcuODMxLDI4MS40NzRMMjc3LjkwMywyODEuNDI0TDI3Ny45NzMsMjgxLjM3NEwyNzguMDQ0LDI4MS4zMjRMMjc4LjExNCwyODEuMjczTDI3OC4xODIsMjgxLjIyM0wyNzguMjUyLDI4MS4xNzFMMjc4LjMyMiwyODEuMTE4TDI3OC4zODksMjgxLjA2N0wyNzguNDU4LDI4MS4wMTRMMjc4LjUyNiwyODAuOTYxTDI3OC41OTMsMjgwLjkwOEwyNzguNjYsMjgwLjg1NEwyNzguNzI4LDI4MC43OTlMMjc4Ljc5NSwyODAuNzQ0TDI3OC44NiwyODAuNjlMMjc4LjkyNywyODAuNjMzTDI3OC45OTMsMjgwLjU3OEwyNzkuMDU4LDI4MC41MjJMMjc5LjEyMywyODAuNDY1TDI3OS4xODcsMjgwLjQwOEwyNzkuMjUyLDI4MC4zNUwyNzkuMzE2LDI4MC4yOTNMMjc5LjM4LDI4MC4yMzRMMjc5LjQ0NCwyODAuMTc1TDI3OS41MDYsMjgwLjExN0wyNzkuNTY5LDI4MC4wNTdMMjc5LjYzMiwyNzkuOTk3TDI3OS42OTMsMjc5LjkzOEwyNzkuNzU1LDI3OS44NzdMMjc5LjgxNiwyNzkuODE2TDI3OS44NzcsMjc5Ljc1NUwyNzkuOTM4LDI3OS42OTNMMjc5Ljk5NywyNzkuNjMyTDI4MC4wNTcsMjc5LjU2OUwyODAuMTE3LDI3OS41MDZMMjgwLjE3NSwyNzkuNDQ0TDI4MC4yMzQsMjc5LjM4TDI4MC4yOTMsMjc5LjMxNkwyODAuMzUsMjc5LjI1MkwyODAuNDA4LDI3OS4xODdMMjgwLjQ2NSwyNzkuMTIzTDI4MC41MjIsMjc5LjA1OEwyODAuNTc4LDI3OC45OTNMMjgwLjYzMywyNzguOTI3TDI4MC42OSwyNzguODZMMjgwLjc0NCwyNzguNzk1TDI4MC43OTksMjc4LjcyOEwyODAuODU0LDI3OC42NkwyODAuOTA4LDI3OC41OTNMMjgwLjk2MSwyNzguNTI2TDI4MS4wMTQsMjc4LjQ1OEwyODEuMDY3LDI3OC4zODlMMjgxLjExOCwyNzguMzIyTDI4MS4xNzEsMjc4LjI1MkwyODEuMjIzLDI3OC4xODJMMjgxLjI3MywyNzguMTE0TDI4MS4zMjQsMjc4LjA0NEwyODEuMzc0LDI3Ny45NzNMMjgxLjQyNCwyNzcuOTAzTDI4MS40NzQsMjc3LjgzMUwyODEuNTIyLDI3Ny43NjFMMjgxLjU3MSwyNzcuNjlMMjgxLjYxOCwyNzcuNjE5TDI4MS42NjYsMjc3LjU0N0wyODEuNzE0LDI3Ny40NzNMMjgxLjc2MSwyNzcuNDAyTDI4MS44MDYsMjc3LjMzTDI4MS44NTIsMjc3LjI1NkwyODEuODk4LDI3Ny4xODNMMjgxLjk0MywyNzcuMTFMMjgxLjk4NywyNzcuMDM2TDI4Mi4wMzIsMjc2Ljk2MkwyODIuMDc1LDI3Ni44ODhMMjgyLjExOCwyNzYuODE0TDI4Mi4xNjEsMjc2LjczOEwyODIuMjAzLDI3Ni42NjNMMjgyLjI0NCwyNzYuNTg5TDI4Mi4yODcsMjc2LjUxMkwyODIuMzI4LDI3Ni40MzZMMjgyLjM2OCwyNzYuMzYxTDI4Mi40MDgsMjc2LjI4NEwyODIuNDQ3LDI3Ni4yMDhMMjgyLjQ4NiwyNzYuMTMxTDI4Mi41MjUsMjc2LjA1M0wyODIuNTYzLDI3NS45NzdMMjgyLjYwMSwyNzUuOUwyODIuNjM4LDI3NS44MjJMMjgyLjY3NSwyNzUuNzQ0TDI4Mi43MTEsMjc1LjY2NUwyODIuNzQ3LDI3NS41ODZMMjgyLjc4MiwyNzUuNTA3TDI4Mi44MTcsMjc1LjQyOUwyODIuODUxLDI3NS4zNTJMMjgyLjg4NSwyNzUuMjcxTDI4Mi45MTksMjc1LjE5TDI4Mi45NTEsMjc1LjExMkwyODIuOTg0LDI3NS4wMzFMMjgzLjAxNiwyNzQuOTVMMjgzLjA0NywyNzQuODcxTDI4My4wNzgsMjc0Ljc5TDI4My4xMDksMjc0LjcwOUwyODMuMTM5LDI3NC42MjdMMjgzLjE2OCwyNzQuNTQ2TDI4My4xOTcsMjc0LjQ2NUwyODMuMjI2LDI3NC4zODNMMjgzLjI1NCwyNzQuMzAxTDI4My4yODEsMjc0LjIxOUwyODMuMzA5LDI3NC4xMzZMMjgzLjMzNSwyNzQuMDU0TDI4My4zNjEsMjczLjk3MkwyODMuMzg3LDI3My44ODdMMjgzLjQxMiwyNzMuODA0TDI4My40MzYsMjczLjcyMkwyODMuNDYsMjczLjYzOEwyODMuNDg0LDI3My41NTNMMjgzLjUwNywyNzMuNDY5TDI4My41MywyNzMuMzg1TDI4My41NTIsMjczLjNMMjgzLjU3NCwyNzMuMjE1TDI4My41OTQsMjczLjEzMUwyODMuNjE1LDI3My4wNDVMMjgzLjYzNSwyNzIuOTZMMjgzLjY1NCwyNzIuODc1TDI4My42NzQsMjcyLjc4OEwyODMuNjkyLDI3Mi43MDJMMjgzLjcxLDI3Mi42MTZMMjgzLjcyNywyNzIuNTNMMjgzLjc0NCwyNzIuNDQyTDI4My43NjEsMjcyLjM1NUwyODMuNzc3LDI3Mi4yNjhMMjgzLjc5MiwyNzIuMTgxTDI4My44MDcsMjcyLjA5NEwyODMuODIxLDI3Mi4wMDZMMjgzLjgzNSwyNzEuOTE3TDI4My44NDgsMjcxLjgyOUwyODMuODYxLDI3MS43NDFMMjgzLjg3MywyNzEuNjVMMjgzLjg4NSwyNzEuNTYyTDI4My44OTYsMjcxLjQ3M0wyODMuOTA2LDI3MS4zODRMMjgzLjkxNiwyNzEuMjk0TDI4My45MjYsMjcxLjIwNEwyODMuOTM0LDI3MS4xMTRMMjgzLjk0MywyNzEuMDI0TDI4My45NTEsMjcwLjkzM0wyODMuOTU4LDI3MC44NDFMMjgzLjk2NSwyNzAuNzQ5TDI4My45NzEsMjcwLjY1OEwyODMuOTc2LDI3MC41NjhMMjgzLjk4MSwyNzAuNDc1TDI4My45ODUsMjcwLjM4MkwyODMuOTg5LDI3MC4yOUwyODMuOTkzLDI3MC4xOTdMMjgzLjk5NSwyNzAuMTA1TDI4My45OTcsMjcwLjAxMUwyODMuOTk5LDI2OS45MTdMMjg0LDI2OS44MjRMMjg0LDI2OS43MDRMMjg0LDMwLjI5NkwyODQsMzAuMTc2TDI4My45OTksMzAuMDgzTDI4My45OTcsMjkuOTg5TDI4My45OTUsMjkuODk1TDI4My45OTMsMjkuODAzTDI4My45ODksMjkuNzFMMjgzLjk4NSwyOS42MThMMjgzLjk4MSwyOS41MjVMMjgzLjk3NiwyOS40MzJMMjgzLjk3MSwyOS4zNDJMMjgzLjk2NSwyOS4yNTFMMjgzLjk1OCwyOS4xNTlMMjgzLjk1MSwyOS4wNjdMMjgzLjk0MywyOC45NzZMMjgzLjkzNCwyOC44ODZMMjgzLjkyNiwyOC43OTZMMjgzLjkxNiwyOC43MDZMMjgzLjkwNiwyOC42MTZMMjgzLjg5NiwyOC41MjdMMjgzLjg4NSwyOC40MzhMMjgzLjg3MywyOC4zNUwyODMuODYxLDI4LjI1OUwyODMuODQ4LDI4LjE3MUwyODMuODM1LDI4LjA4M0wyODMuODIxLDI3Ljk5NEwyODMuODA3LDI3LjkwNkwyODMuNzkyLDI3LjgxOUwyODMuNzc3LDI3LjczMkwyODMuNzYxLDI3LjY0NUwyODMuNzQ0LDI3LjU1OEwyODMuNzI3LDI3LjQ3TDI4My43MSwyNy4zODRMMjgzLjY5MiwyNy4yOThMMjgzLjY3NCwyNy4yMTJMMjgzLjY1NCwyNy4xMjVMMjgzLjYzNSwyNy4wNEwyODMuNjE1LDI2Ljk1NUwyODMuNTk0LDI2Ljg2OUwyODMuNTc0LDI2Ljc4NkwyODMuNTUyLDI2LjdMMjgzLjUzLDI2LjYxNUwyODMuNTA3LDI2LjUzMUwyODMuNDg0LDI2LjQ0N0wyODMuNDYsMjYuMzYyTDI4My40MzYsMjYuMjc4TDI4My40MTIsMjYuMTk2TDI4My4zODcsMjYuMTEzTDI4My4zNjEsMjYuMDI4TDI4My4zMzUsMjUuOTQ2TDI4My4zMDksMjUuODY0TDI4My4yODIsMjUuNzgxTDI4My4yNTQsMjUuNjk5TDI4My4yMjYsMjUuNjE3TDI4My4xOTcsMjUuNTM0TDI4My4xNjgsMjUuNDU0TDI4My4xMzksMjUuMzczTDI4My4xMDksMjUuMjkxTDI4My4wNzgsMjUuMjFMMjgzLjA0NywyNS4xMjlMMjgzLjAxNiwyNS4wNUwyODIuOTg0LDI0Ljk2OUwyODIuOTUxLDI0Ljg4OEwyODIuOTE5LDI0LjgxTDI4Mi44ODUsMjQuNzI5TDI4Mi44NTEsMjQuNjQ5TDI4Mi44MTcsMjQuNTdMMjgyLjc4MiwyNC40OTJMMjgyLjc0NywyNC40MTRMMjgyLjcxMSwyNC4zMzVMMjgyLjY3NCwyNC4yNTZMMjgyLjYzOCwyNC4xNzhMMjgyLjYwMSwyNC4xTDI4Mi41NjMsMjQuMDIzTDI4Mi41MjUsMjMuOTQ2TDI4Mi40ODcsMjMuODY5TDI4Mi40NDcsMjMuNzkzTDI4Mi40MDgsMjMuNzE2TDI4Mi4zNjgsMjMuNjRMMjgyLjMyNywyMy41NjNMMjgyLjI4NiwyMy40ODdMMjgyLjI0NSwyMy40MTFMMjgyLjIwMywyMy4zMzZMMjgyLjE2MSwyMy4yNjJMMjgyLjExOCwyMy4xODZMMjgyLjA3NSwyMy4xMTJMMjgyLjAzMiwyMy4wMzhMMjgxLjk4NywyMi45NjRMMjgxLjk0MywyMi44OUwyODEuODk4LDIyLjgxN0wyODEuODUyLDIyLjc0M0wyODEuODA2LDIyLjY3TDI4MS43NjEsMjIuNTk4TDI4MS43MTQsMjIuNTI2TDI4MS42NjYsMjIuNDU0TDI4MS42MTksMjIuMzgxTDI4MS41NzEsMjIuMzFMMjgxLjUyMiwyMi4yMzlMMjgxLjQ3NCwyMi4xNjhMMjgxLjQyNCwyMi4wOTdMMjgxLjM3NCwyMi4wMjdMMjgxLjMyNCwyMS45NTdMMjgxLjI3MywyMS44ODZMMjgxLjIyMywyMS44MTdMMjgxLjE3MSwyMS43NDhMMjgxLjExOSwyMS42NzhMMjgxLjA2NywyMS42MUwyODEuMDE0LDIxLjU0MkwyODAuOTYxLDIxLjQ3NEwyODAuOTA4LDIxLjQwN0wyODAuODU0LDIxLjM0TDI4MC43OTksMjEuMjcyTDI4MC43NDUsMjEuMjA2TDI4MC42ODksMjEuMTM5TDI4MC42MzQsMjEuMDczTDI4MC41NzgsMjEuMDA3TDI4MC41MjIsMjAuOTQyTDI4MC40NjUsMjAuODc3TDI4MC40MDgsMjAuODEyTDI4MC4zNSwyMC43NDhMMjgwLjI5MywyMC42ODRMMjgwLjIzNCwyMC42MkwyODAuMTc2LDIwLjU1N0wyODAuMTE3LDIwLjQ5NEwyODAuMDU3LDIwLjQzMUwyNzkuOTk3LDIwLjM2OEwyNzkuOTM4LDIwLjMwN0wyNzkuODc3LDIwLjI0NUwyNzkuODE2LDIwLjE4NEwyNzkuNzU1LDIwLjEyM0wyNzkuNjkzLDIwLjA2M0wyNzkuNjMyLDIwLjAwM0wyNzkuNTY4LDE5Ljk0MkwyNzkuNTA2LDE5Ljg4NEwyNzkuNDQ0LDE5LjgyNUwyNzkuMzgsMTkuNzY2TDI3OS4zMTYsMTkuNzA3TDI3OS4yNTIsMTkuNjQ5TDI3OS4xODgsMTkuNTkyTDI3OS4xMjMsMTkuNTM1TDI3OS4wNTgsMTkuNDc4TDI3OC45OTMsMTkuNDIyTDI3OC45MjcsMTkuMzY2TDI3OC44NiwxOS4zMUwyNzguNzk1LDE5LjI1NkwyNzguNzI4LDE5LjIwMUwyNzguNjYxLDE5LjE0N0wyNzguNTkzLDE5LjA5MkwyNzguNTI2LDE5LjAzOUwyNzguNDU4LDE4Ljk4NkwyNzguMzg5LDE4LjkzM0wyNzguMzIxLDE4Ljg4MUwyNzguMjUyLDE4LjgyOUwyNzguMTgyLDE4Ljc3N0wyNzguMTEzLDE4LjcyN0wyNzguMDQ0LDE4LjY3NkwyNzcuOTczLDE4LjYyNkwyNzcuOTAzLDE4LjU3NkwyNzcuODMyLDE4LjUyNkwyNzcuNzYxLDE4LjQ3OEwyNzcuNjksMTguNDI5TDI3Ny42MTksMTguMzgyTDI3Ny41NDcsMTguMzM0TDI3Ny40NzQsMTguMjg2TDI3Ny40MDIsMTguMjRMMjc3LjMzLDE4LjE5NEwyNzcuMjU2LDE4LjE0N0wyNzcuMTgzLDE4LjEwMkwyNzcuMTEsMTguMDU3TDI3Ny4wMzYsMTguMDEzTDI3Ni45NjIsMTcuOTY5TDI3Ni44ODcsMTcuOTI1TDI3Ni44MTMsMTcuODgyTDI3Ni43MzgsMTcuODM5TDI3Ni42NjMsMTcuNzk3TDI3Ni41ODksMTcuNzU1TDI3Ni41MTIsMTcuNzEzTDI3Ni40MzYsMTcuNjcyTDI3Ni4zNjEsMTcuNjMyTDI3Ni4yODUsMTcuNTkyTDI3Ni4yMDgsMTcuNTUzTDI3Ni4xMzEsMTcuNTE0TDI3Ni4wNTQsMTcuNDc1TDI3NS45NzcsMTcuNDM3TDI3NS44OTksMTcuMzk5TDI3NS44MjEsMTcuMzYyTDI3NS43NDMsMTcuMzI1TDI3NS42NjUsMTcuMjg5TDI3NS41ODcsMTcuMjUzTDI3NS41MDgsMTcuMjE4TDI3NS40MjksMTcuMTgzTDI3NS4zNTEsMTcuMTQ5TDI3NS4yNzEsMTcuMTE1TDI3NS4xOTEsMTcuMDgyTDI3NS4xMTEsMTcuMDQ5TDI3NS4wMzEsMTcuMDE2TDI3NC45NTEsMTYuOTg0TDI3NC44NzEsMTYuOTUzTDI3NC43OSwxNi45MjJMMjc0LjcwOSwxNi44OTFMMjc0LjYyOCwxNi44NjFMMjc0LjU0NiwxNi44MzJMMjc0LjQ2NSwxNi44MDNMMjc0LjM4MywxNi43NzRMMjc0LjMwMSwxNi43NDZMMjc0LjIxOSwxNi43MTlMMjc0LjEzNywxNi42OTFMMjc0LjA1NCwxNi42NjVMMjczLjk3MSwxNi42MzlMMjczLjg4OCwxNi42MTNMMjczLjgwNSwxNi41ODhMMjczLjcyMSwxNi41NjRMMjczLjYzNywxNi41MzlMMjczLjU1MywxNi41MTZMMjczLjQ2OSwxNi40OTNMMjczLjM4NSwxNi40N0wyNzMuMywxNi40NDhMMjczLjIxNiwxNi40MjdMMjczLjEzLDE2LjQwNkwyNzMuMDQ1LDE2LjM4NUwyNzIuOTYsMTYuMzY1TDI3Mi44NzQsMTYuMzQ1TDI3Mi43ODgsMTYuMzI3TDI3Mi43MDIsMTYuMzA4TDI3Mi42MTYsMTYuMjlMMjcyLjUyOSwxNi4yNzNMMjcyLjQ0MiwxNi4yNTZMMjcyLjM1NSwxNi4yMzlMMjcyLjI2OCwxNi4yMjNMMjcyLjE4MSwxNi4yMDhMMjcyLjA5MywxNi4xOTNMMjcyLjAwNSwxNi4xNzlMMjcxLjkxNywxNi4xNjVMMjcxLjgyOSwxNi4xNTJMMjcxLjc0LDE2LjEzOUwyNzEuNjUyLDE2LjEyN0wyNzEuNTYyLDE2LjExNUwyNzEuNDczLDE2LjEwNEwyNzEuMzg0LDE2LjA5NEwyNzEuMjk0LDE2LjA4NEwyNzEuMjA0LDE2LjA3NEwyNzEuMTE0LDE2LjA2NkwyNzEuMDIzLDE2LjA1N0wyNzAuOTMyLDE2LjA0OUwyNzAuODQxLDE2LjA0MkwyNzAuNzUsMTYuMDM2TDI3MC42NTksMTYuMDI5TDI3MC41NjcsMTYuMDI0TDI3MC40NzUsMTYuMDE5TDI3MC4zODMsMTYuMDE1TDI3MC4yOSwxNi4wMTFMMjcwLjE5NywxNi4wMDdMMjcwLjEwNCwxNi4wMDVMMjcwLjAxMSwxNi4wMDNMMjY5LjkxNywxNi4wMDFMMjY5LjgyNCwxNkwyNjkuNzA0LDE2TDMwLjI5NiwxNloiLz4mI3hhOyAgICAgICAgPC9nPiYjeGE7ICAgICAgICA8Zz4mI3hhOyAgICAgICAgICAgIDxwYXRoIHN0eWxlPSJmaWxsOnJnYigyMjcsNDEsNDYpOyIgZD0iTTk2LjU3OSwxMjEuMzE5TDE1MCwxMjEuMzE5TDE1MCwxNDEuNjY1TDk2LjY4NSwxNDEuNjY1TDExNS41OTcsMTYwLjU3N0w4Ni4zMDcsMTYwLjU3N0w1Ny4yMTEsMTMxLjQ4MUw4Ni4zMDcsMTAyLjM4NUwxMTUuNTEzLDEwMi4zODVMOTYuNTc5LDEyMS4zMTlaIi8+JiN4YTsgICAgICAgICAgICA8ZyB0cmFuc2Zvcm09Im1hdHJpeCgxLDAsMCwxLDAsNjguNTMxMSkiPiYjeGE7ICAgICAgICAgICAgICAgIDxwYXRoIHN0eWxlPSJmaWxsOnJnYigyMjcsNDEsNDYpOyIgZD0iTTk2LjU3OSwxMjEuMzE5TDE1MCwxMjEuMzE5TDE1MCwxNDEuNjY1TDk2LjY4NSwxNDEuNjY1TDExNS41OTcsMTYwLjU3N0w4Ni4zMDcsMTYwLjU3N0w1Ny4yMTEsMTMxLjQ4MUw4Ni4zMDcsMTAyLjM4NUwxMTUuNTEzLDEwMi4zODVMOTYuNTc5LDEyMS4zMTlaIi8+JiN4YTsgICAgICAgICAgICA8L2c+JiN4YTsgICAgICAgICAgICA8ZyB0cmFuc2Zvcm09Im1hdHJpeCgtMSwwLDAsMSwzMDAsMzcuMDE3NykiPiYjeGE7ICAgICAgICAgICAgICAgIDxwYXRoIHN0eWxlPSJmaWxsOnJnYigyMjcsNDEsNDYpOyIgZD0iTTk2LjU3OSwxMjEuMzE5TDE1MCwxMjEuMzE5TDE1MCwxNDEuNjY1TDk2LjY4NSwxNDEuNjY1TDExNS41OTcsMTYwLjU3N0w4Ni4zMDcsMTYwLjU3N0w1Ny4yMTEsMTMxLjQ4MUw4Ni4zMDcsMTAyLjM4NUwxMTUuNTEzLDEwMi4zODVMOTYuNTc5LDEyMS4zMTlaIi8+JiN4YTsgICAgICAgICAgICA8L2c+JiN4YTsgICAgICAgICAgICA8ZyB0cmFuc2Zvcm09Im1hdHJpeCgtMSwwLDAsMSwzMDAsLTMxLjUxMzUpIj4mI3hhOyAgICAgICAgICAgICAgICA8cGF0aCBzdHlsZT0iZmlsbDpyZ2IoMjI3LDQxLDQ2KTsiIGQ9Ik05Ni41NzksMTIxLjMxOUwxNTAsMTIxLjMxOUwxNTAsMTQxLjY2NUw5Ni42ODUsMTQxLjY2NUwxMTUuNTk3LDE2MC41NzdMODYuMzA3LDE2MC41NzdMNTcuMjExLDEzMS40ODFMODYuMzA3LDEwMi4zODVMMTE1LjUxMywxMDIuMzg1TDk2LjU3OSwxMjEuMzE5WiIvPiYjeGE7ICAgICAgICAgICAgPC9nPiYjeGE7ICAgICAgICA8L2c+JiN4YTsgICAgPC9nPiYjeGE7PC9zdmc+;" vertex="1" parent="1">
          <mxGeometry x="130" y="630" width="220" height="220" as="geometry" />
        </mxCell>
        <mxCell id="thXLSm3wJikO7Sc-p7p8-7" value="" style="shape=image;verticalLabelPosition=bottom;labelBackgroundColor=default;verticalAlign=top;aspect=fixed;imageAspect=0;image=data:image/svg+xml,PHN2ZyB4bWxuczp4bGluaz0iaHR0cDovL3d3dy53My5vcmcvMTk5OS94bGluayIgeG1sbnM9Imh0dHA6Ly93d3cudzMub3JnLzIwMDAvc3ZnIiBzdHlsZT0iZmlsbC1ydWxlOmV2ZW5vZGQ7Y2xpcC1ydWxlOmV2ZW5vZGQ7c3Ryb2tlLWxpbmVqb2luOnJvdW5kO3N0cm9rZS1taXRlcmxpbWl0OjEuNDE0MjE7IiB4bWw6c3BhY2U9InByZXNlcnZlIiB2ZXJzaW9uPSIxLjEiIHZpZXdCb3g9IjAgMCAzMDAgMzAwIiBoZWlnaHQ9IjEwMCUiIHdpZHRoPSIxMDAlIj4mI3hhOyAgICA8Zz4mI3hhOyAgICAgICAgPGcgaWQ9IkJhY2tncm91bmQiPiYjeGE7ICAgICAgICAgICAgPHBhdGggc3R5bGU9ImZpbGw6cmdiKDI1NSwyNTQsMjU0KTsiIGQ9Ik0zMDAsMzAuMjcxQzMwMCwxMy41NjQgMjg2LjQzNiwwIDI2OS43MjksMEwzMC4yNzEsMEMxMy41NjQsMCAwLDEzLjU2NCAwLDMwLjI3MUwwLDI2OS43MjlDMCwyODYuNDM2IDEzLjU2NCwzMDAgMzAuMjcxLDMwMEwyNjkuNzI5LDMwMEMyODYuNDM2LDMwMCAzMDAsMjg2LjQzNiAzMDAsMjY5LjcyOUwzMDAsMzAuMjcxWiIvPiYjeGE7ICAgICAgICAgICAgPHBhdGggc3R5bGU9ImZpbGw6cmdiKDIyNyw0MSw0Nik7IiBkPSJNMjY5LjkyNSwwLjAwMUwyNzAuMTIsMC4wMDJMMjcwLjUxLDAuMDFMMjcwLjcwNSwwLjAxNUwyNzAuODk5LDAuMDIyTDI3MS4wOTMsMC4wM0wyNzEuMjg2LDAuMDM5TDI3MS42NzIsMC4wNjFMMjcxLjg2NSwwLjA3NEwyNzIuMDU3LDAuMDg4TDI3Mi4yNDksMC4xMDRMMjcyLjQ0LDAuMTJMMjcyLjYzMiwwLjEzOEwyNzIuODIzLDAuMTU2TDI3My4wMTMsMC4xNzZMMjczLjM5MywwLjIyTDI3My41ODMsMC4yNDNMMjczLjc3MiwwLjI2OEwyNzMuOTYsMC4yOTRMMjc0LjE0OSwwLjMyMUwyNzQuMzM3LDAuMzQ5TDI3NC41MjQsMC4zNzhMMjc0LjcxMiwwLjQwOUwyNzQuODk4LDAuNDRMMjc1LjA4NSwwLjQ3M0wyNzUuMjcxLDAuNTA3TDI3NS40NTcsMC41NDJMMjc1LjY0MiwwLjU3OEwyNzUuODI3LDAuNjE1TDI3Ni4xOTUsMC42OTNMMjc2LjM3OSwwLjczNEwyNzYuNTYyLDAuNzc2TDI3Ni43NDUsMC44MTlMMjc2LjkyNywwLjg2MkwyNzcuMjkxLDAuOTU0TDI3Ny40NzIsMS4wMDFMMjc3LjY1MiwxLjA0OUwyNzcuODMzLDEuMDk5TDI3OC4wMTIsMS4xNDlMMjc4LjE5MiwxLjIwMUwyNzguMzcxLDEuMjUzTDI3OC41NDksMS4zMDdMMjc4LjcyNywxLjM2MkwyNzguOTA0LDEuNDE4TDI3OS4wODEsMS40NzVMMjc5LjI1OCwxLjUzM0wyNzkuNDM0LDEuNTkyTDI3OS42MDksMS42NTJMMjc5Ljc4NCwxLjcxM0wyNzkuOTU5LDEuNzc1TDI4MC4xMzMsMS44MzhMMjgwLjMwNywxLjkwMkwyODAuNDgsMS45NjhMMjgwLjY1MiwyLjAzNEwyODAuODI0LDIuMTAxTDI4MC45OTYsMi4xNjlMMjgxLjE2NywyLjIzOUwyODEuMzM3LDIuMzA5TDI4MS41MDcsMi4zOEwyODEuNjc3LDIuNDUzTDI4MS44NDYsMi41MjZMMjgyLjAxNCwyLjZMMjgyLjE4MiwyLjY3NkwyODIuMzQ5LDIuNzUyTDI4Mi41MTYsMi44MjlMMjgyLjg0OCwyLjk4N0wyODMuMDEzLDMuMDY3TDI4My4xNzgsMy4xNDhMMjgzLjM0MiwzLjIzMUwyODMuNTA1LDMuMzE0TDI4My42NjgsMy4zOThMMjgzLjgzLDMuNDgzTDI4My45OTIsMy41NjlMMjg0LjE1MywzLjY1NkwyODQuMzE0LDMuNzQ0TDI4NC40NzQsMy44MzJMMjg0LjYzMywzLjkyMkwyODQuNzkyLDQuMDEzTDI4NS4xMDgsNC4xOTdMMjg1LjI2NSw0LjI5MUwyODUuNDIxLDQuMzg1TDI4NS41NzcsNC40OEwyODUuNzMyLDQuNTc2TDI4Ni4wNCw0Ljc3MkwyODYuMzQ2LDQuOTdMMjg2LjQ5OCw1LjA3MUwyODYuOCw1LjI3NUwyODYuOTUsNS4zNzlMMjg3LjA5OSw1LjQ4M0wyODcuMjQ4LDUuNTg4TDI4Ny4zOTYsNS42OTRMMjg3LjY5LDUuOTA4TDI4Ny44MzYsNi4wMTdMMjg3Ljk4MSw2LjEyNkwyODguMTI2LDYuMjM3TDI4OC4yNyw2LjM0OEwyODguNDEzLDYuNDZMMjg4LjU1Niw2LjU3M0wyODguNjk4LDYuNjg2TDI4OC45OCw2LjkxNkwyODkuMTE5LDcuMDMyTDI4OS4yNTksNy4xNDlMMjg5LjUzNSw3LjM4NUwyODkuNjcyLDcuNTA1TDI4OS44MDgsNy42MjVMMjg5Ljk0Myw3Ljc0NkwyOTAuMDc4LDcuODY4TDI5MC4yMTIsNy45OUwyOTAuMzQ2LDguMTE0TDI5MC40NzgsOC4yMzhMMjkwLjYxLDguMzYzTDI5MC43NDEsOC40ODhMMjkxLjAwMSw4Ljc0MkwyOTEuMTMsOC44N0wyOTEuMjU4LDguOTk5TDI5MS41MTIsOS4yNTlMMjkxLjYzNyw5LjM5TDI5MS43NjIsOS41MjJMMjkxLjg4Niw5LjY1NEwyOTIuMDEsOS43ODhMMjkyLjEzMiw5LjkyMkwyOTIuMjU0LDEwLjA1N0wyOTIuMzc1LDEwLjE5MkwyOTIuNDk1LDEwLjMyOEwyOTIuNjE1LDEwLjQ2NUwyOTIuODUxLDEwLjc0MUwyOTIuOTY4LDEwLjg4MUwyOTMuMDg0LDExLjAyTDI5My4zMTQsMTEuMzAyTDI5My40MjcsMTEuNDQ0TDI5My41NCwxMS41ODdMMjkzLjY1MiwxMS43M0wyOTMuNzYzLDExLjg3NEwyOTMuODc0LDEyLjAxOUwyOTMuOTgzLDEyLjE2NEwyOTQuMDkyLDEyLjMxTDI5NC4zMDYsMTIuNjA0TDI5NC40MTIsMTIuNzUyTDI5NC41MTcsMTIuOTAxTDI5NC42MjEsMTMuMDVMMjk0LjcyNSwxMy4yTDI5NC45MjksMTMuNTAyTDI5NS4wMywxMy42NTRMMjk1LjIyOCwxMy45NkwyOTUuNDI0LDE0LjI2OEwyOTUuNTIsMTQuNDIzTDI5NS42MTUsMTQuNTc5TDI5NS43MDksMTQuNzM1TDI5NS44MDMsMTQuODkyTDI5NS45ODcsMTUuMjA4TDI5Ni4wNzgsMTUuMzY3TDI5Ni4xNjgsMTUuNTI2TDI5Ni4yNTYsMTUuNjg2TDI5Ni4zNDQsMTUuODQ3TDI5Ni40MzEsMTYuMDA4TDI5Ni41MTcsMTYuMTdMMjk2LjYwMiwxNi4zMzJMMjk2LjY4NiwxNi40OTVMMjk2Ljc2OSwxNi42NThMMjk2Ljg1MiwxNi44MjJMMjk2LjkzMywxNi45ODdMMjk3LjAxMywxNy4xNTJMMjk3LjE3MSwxNy40ODRMMjk3LjI0OCwxNy42NTFMMjk3LjMyNCwxNy44MThMMjk3LjQsMTcuOTg2TDI5Ny40NzQsMTguMTU0TDI5Ny41NDcsMTguMzIzTDI5Ny42MiwxOC40OTNMMjk3LjY5MSwxOC42NjNMMjk3Ljc2MSwxOC44MzNMMjk3LjgzMSwxOS4wMDRMMjk3Ljg5OSwxOS4xNzZMMjk3Ljk2NiwxOS4zNDhMMjk4LjAzMiwxOS41MkwyOTguMDk4LDE5LjY5M0wyOTguMTYyLDE5Ljg2N0wyOTguMjI1LDIwLjA0MUwyOTguMjg3LDIwLjIxNkwyOTguMzQ4LDIwLjM5MUwyOTguNDA4LDIwLjU2NkwyOTguNDY3LDIwLjc0MkwyOTguNTI1LDIwLjkxOUwyOTguNTgyLDIxLjA5NkwyOTguNjM4LDIxLjI3M0wyOTguNjkzLDIxLjQ1MUwyOTguNzQ3LDIxLjYyOUwyOTguNzk5LDIxLjgwOEwyOTguODUxLDIxLjk4OEwyOTguOTAxLDIyLjE2N0wyOTguOTUxLDIyLjM0OEwyOTguOTk5LDIyLjUyOEwyOTkuMDQ2LDIyLjcwOUwyOTkuMTM4LDIzLjA3M0wyOTkuMTgxLDIzLjI1NUwyOTkuMjI0LDIzLjQzOEwyOTkuMjY2LDIzLjYyMUwyOTkuMzA3LDIzLjgwNUwyOTkuMzg1LDI0LjE3M0wyOTkuNDIyLDI0LjM1OEwyOTkuNDU4LDI0LjU0M0wyOTkuNDkzLDI0LjcyOUwyOTkuNTI3LDI0LjkxNUwyOTkuNTYsMjUuMTAyTDI5OS41OTEsMjUuMjg4TDI5OS42MjIsMjUuNDc2TDI5OS42NTEsMjUuNjYzTDI5OS42NzksMjUuODUxTDI5OS43MDYsMjYuMDRMMjk5LjczMiwyNi4yMjhMMjk5Ljc1NywyNi40MTdMMjk5Ljc4LDI2LjYwN0wyOTkuODI0LDI2Ljk4N0wyOTkuODQ0LDI3LjE3N0wyOTkuODYyLDI3LjM2OEwyOTkuODgsMjcuNTZMMjk5Ljg5NiwyNy43NTFMMjk5LjkxMiwyNy45NDNMMjk5LjkyNiwyOC4xMzVMMjk5LjkzOSwyOC4zMjhMMjk5Ljk2MSwyOC43MTRMMjk5Ljk3LDI4LjkwN0wyOTkuOTc4LDI5LjEwMUwyOTkuOTg1LDI5LjI5NUwyOTkuOTksMjkuNDlMMjk5Ljk5OCwyOS44OEwzMDAsMzAuMjcxTDMwMCwyNjkuNzI5TDI5OS45OTksMjY5LjkyNUwyOTkuOTk4LDI3MC4xMkwyOTkuOTk0LDI3MC4zMTVMMjk5Ljk5LDI3MC41MUwyOTkuOTg1LDI3MC43MDVMMjk5Ljk3OCwyNzAuODk5TDI5OS45NywyNzEuMDkzTDI5OS45NjEsMjcxLjI4NkwyOTkuOTUsMjcxLjQ3OUwyOTkuOTM5LDI3MS42NzJMMjk5LjkyNiwyNzEuODY1TDI5OS45MTIsMjcyLjA1N0wyOTkuODk2LDI3Mi4yNDlMMjk5Ljg4LDI3Mi40NEwyOTkuODYyLDI3Mi42MzJMMjk5Ljg0NCwyNzIuODIzTDI5OS44MjQsMjczLjAxM0wyOTkuODAyLDI3My4yMDNMMjk5Ljc4LDI3My4zOTNMMjk5Ljc1NywyNzMuNTgzTDI5OS43MzIsMjczLjc3MkwyOTkuNzA2LDI3My45NkwyOTkuNjc5LDI3NC4xNDlMMjk5LjY1MSwyNzQuMzM3TDI5OS42MjIsMjc0LjUyNEwyOTkuNTkxLDI3NC43MTJMMjk5LjU2LDI3NC44OThMMjk5LjUyNywyNzUuMDg1TDI5OS40OTMsMjc1LjI3MUwyOTkuNDU4LDI3NS40NTdMMjk5LjQyMiwyNzUuNjQyTDI5OS4zODUsMjc1LjgyN0wyOTkuMzQ2LDI3Ni4wMTFMMjk5LjMwNywyNzYuMTk1TDI5OS4yNjYsMjc2LjM3OUwyOTkuMjI0LDI3Ni41NjJMMjk5LjE4MSwyNzYuNzQ1TDI5OS4xMzgsMjc2LjkyN0wyOTkuMDkyLDI3Ny4xMDlMMjk5LjA0NiwyNzcuMjkxTDI5OC45OTksMjc3LjQ3MkwyOTguOTUxLDI3Ny42NTJMMjk4LjkwMSwyNzcuODMzTDI5OC44NTEsMjc4LjAxMkwyOTguNzk5LDI3OC4xOTJMMjk4Ljc0NywyNzguMzcxTDI5OC42OTMsMjc4LjU0OUwyOTguNjM4LDI3OC43MjdMMjk4LjU4MiwyNzguOTA0TDI5OC41MjUsMjc5LjA4MUwyOTguNDY3LDI3OS4yNThMMjk4LjQwOCwyNzkuNDM0TDI5OC4zNDgsMjc5LjYwOUwyOTguMjg3LDI3OS43ODRMMjk4LjIyNSwyNzkuOTU5TDI5OC4xNjIsMjgwLjEzM0wyOTguMDk4LDI4MC4zMDdMMjk4LjAzMiwyODAuNDhMMjk3Ljk2NiwyODAuNjUyTDI5Ny44OTksMjgwLjgyNEwyOTcuODMxLDI4MC45OTZMMjk3Ljc2MSwyODEuMTY3TDI5Ny42OTEsMjgxLjMzN0wyOTcuNjIsMjgxLjUwN0wyOTcuNTQ3LDI4MS42NzdMMjk3LjQ3NCwyODEuODQ2TDI5Ny40LDI4Mi4wMTRMMjk3LjMyNCwyODIuMTgyTDI5Ny4yNDgsMjgyLjM0OUwyOTcuMTcxLDI4Mi41MTZMMjk3LjA5MiwyODIuNjgyTDI5Ny4wMTMsMjgyLjg0OEwyOTYuOTMzLDI4My4wMTNMMjk2Ljg1MiwyODMuMTc4TDI5Ni43NjksMjgzLjM0MkwyOTYuNjg2LDI4My41MDVMMjk2LjYwMiwyODMuNjY4TDI5Ni41MTcsMjgzLjgzTDI5Ni40MzEsMjgzLjk5MkwyOTYuMzQ0LDI4NC4xNTNMMjk2LjI1NiwyODQuMzE0TDI5Ni4xNjgsMjg0LjQ3NEwyOTYuMDc4LDI4NC42MzNMMjk1Ljk4NywyODQuNzkyTDI5NS44OTUsMjg0Ljk1TDI5NS44MDMsMjg1LjEwOEwyOTUuNzA5LDI4NS4yNjVMMjk1LjYxNSwyODUuNDIxTDI5NS41MiwyODUuNTc3TDI5NS40MjQsMjg1LjczMkwyOTUuMzI2LDI4NS44ODZMMjk1LjIyOCwyODYuMDRMMjk1LjEyOSwyODYuMTkzTDI5NS4wMywyODYuMzQ2TDI5NC45MjksMjg2LjQ5OEwyOTQuODI3LDI4Ni42NDlMMjk0LjcyNSwyODYuOEwyOTQuNjIxLDI4Ni45NUwyOTQuNTE3LDI4Ny4wOTlMMjk0LjQxMiwyODcuMjQ4TDI5NC4zMDYsMjg3LjM5NkwyOTQuMTk5LDI4Ny41NDNMMjk0LjA5MiwyODcuNjlMMjkzLjk4MywyODcuODM2TDI5My44NzQsMjg3Ljk4MUwyOTMuNzYzLDI4OC4xMjZMMjkzLjY1MiwyODguMjdMMjkzLjU0LDI4OC40MTNMMjkzLjQyNywyODguNTU2TDI5My4zMTQsMjg4LjY5OEwyOTMuMTk5LDI4OC44MzlMMjkzLjA4NCwyODguOThMMjkyLjk2OCwyODkuMTE5TDI5Mi44NTEsMjg5LjI1OUwyOTIuNzMzLDI4OS4zOTdMMjkyLjYxNSwyODkuNTM1TDI5Mi40OTUsMjg5LjY3MkwyOTIuMzc1LDI4OS44MDhMMjkyLjI1NCwyODkuOTQzTDI5Mi4xMzIsMjkwLjA3OEwyOTIuMDEsMjkwLjIxMkwyOTEuODg2LDI5MC4zNDZMMjkxLjc2MiwyOTAuNDc4TDI5MS42MzcsMjkwLjYxTDI5MS41MTIsMjkwLjc0MUwyOTEuMzg1LDI5MC44NzFMMjkxLjI1OCwyOTEuMDAxTDI5MS4xMywyOTEuMTNMMjkxLjAwMSwyOTEuMjU4TDI5MC44NzEsMjkxLjM4NUwyOTAuNzQxLDI5MS41MTJMMjkwLjYxLDI5MS42MzdMMjkwLjQ3OCwyOTEuNzYyTDI5MC4zNDYsMjkxLjg4NkwyOTAuMjEyLDI5Mi4wMUwyOTAuMDc4LDI5Mi4xMzJMMjg5Ljk0MywyOTIuMjU0TDI4OS44MDgsMjkyLjM3NUwyODkuNjcyLDI5Mi40OTVMMjg5LjUzNSwyOTIuNjE1TDI4OS4zOTcsMjkyLjczM0wyODkuMjU5LDI5Mi44NTFMMjg5LjExOSwyOTIuOTY4TDI4OC45OCwyOTMuMDg0TDI4OC44MzksMjkzLjE5OUwyODguNjk4LDI5My4zMTRMMjg4LjU1NiwyOTMuNDI3TDI4OC40MTMsMjkzLjU0TDI4OC4yNywyOTMuNjUyTDI4OC4xMjYsMjkzLjc2M0wyODcuOTgxLDI5My44NzRMMjg3LjgzNiwyOTMuOTgzTDI4Ny42OSwyOTQuMDkyTDI4Ny41NDMsMjk0LjE5OUwyODcuMzk2LDI5NC4zMDZMMjg3LjI0OCwyOTQuNDEyTDI4Ny4wOTksMjk0LjUxN0wyODYuOTUsMjk0LjYyMUwyODYuOCwyOTQuNzI1TDI4Ni42NDksMjk0LjgyN0wyODYuNDk4LDI5NC45MjlMMjg2LjM0NiwyOTUuMDNMMjg2LjE5MywyOTUuMTI5TDI4Ni4wNCwyOTUuMjI4TDI4NS44ODYsMjk1LjMyNkwyODUuNzMyLDI5NS40MjRMMjg1LjU3NywyOTUuNTJMMjg1LjQyMSwyOTUuNjE1TDI4NS4yNjUsMjk1LjcwOUwyODUuMTA4LDI5NS44MDNMMjg0Ljk1LDI5NS44OTVMMjg0Ljc5MiwyOTUuOTg3TDI4NC42MzMsMjk2LjA3OEwyODQuNDc0LDI5Ni4xNjhMMjg0LjMxNCwyOTYuMjU2TDI4NC4xNTMsMjk2LjM0NEwyODMuOTkyLDI5Ni40MzFMMjgzLjgzLDI5Ni41MTdMMjgzLjY2OCwyOTYuNjAyTDI4My41MDUsMjk2LjY4NkwyODMuMzQyLDI5Ni43NjlMMjgzLjE3OCwyOTYuODUyTDI4My4wMTMsMjk2LjkzM0wyODIuODQ4LDI5Ny4wMTNMMjgyLjY4MiwyOTcuMDkyTDI4Mi41MTYsMjk3LjE3MUwyODIuMzQ5LDI5Ny4yNDhMMjgyLjE4MiwyOTcuMzI0TDI4Mi4wMTQsMjk3LjRMMjgxLjg0NiwyOTcuNDc0TDI4MS42NzcsMjk3LjU0N0wyODEuNTA3LDI5Ny42MkwyODEuMzM3LDI5Ny42OTFMMjgxLjE2NywyOTcuNzYxTDI4MC45OTYsMjk3LjgzMUwyODAuODI0LDI5Ny44OTlMMjgwLjY1MiwyOTcuOTY2TDI4MC40OCwyOTguMDMyTDI4MC4zMDcsMjk4LjA5OEwyODAuMTMzLDI5OC4xNjJMMjc5Ljk1OSwyOTguMjI1TDI3OS43ODQsMjk4LjI4N0wyNzkuNjA5LDI5OC4zNDhMMjc5LjQzNCwyOTguNDA4TDI3OS4yNTgsMjk4LjQ2N0wyNzkuMDgxLDI5OC41MjVMMjc4LjkwNCwyOTguNTgyTDI3OC43MjcsMjk4LjYzOEwyNzguNTQ5LDI5OC42OTNMMjc4LjM3MSwyOTguNzQ3TDI3OC4xOTIsMjk4Ljc5OUwyNzguMDEyLDI5OC44NTFMMjc3LjgzMywyOTguOTAxTDI3Ny42NTIsMjk4Ljk1MUwyNzcuNDcyLDI5OC45OTlMMjc3LjI5MSwyOTkuMDQ2TDI3Ny4xMDksMjk5LjA5MkwyNzYuOTI3LDI5OS4xMzhMMjc2Ljc0NSwyOTkuMTgxTDI3Ni41NjIsMjk5LjIyNEwyNzYuMzc5LDI5OS4yNjZMMjc2LjE5NSwyOTkuMzA3TDI3Ni4wMTEsMjk5LjM0NkwyNzUuODI3LDI5OS4zODVMMjc1LjY0MiwyOTkuNDIyTDI3NS40NTcsMjk5LjQ1OEwyNzUuMjcxLDI5OS40OTNMMjc1LjA4NSwyOTkuNTI3TDI3NC44OTgsMjk5LjU2TDI3NC43MTIsMjk5LjU5MUwyNzQuNTI0LDI5OS42MjJMMjc0LjMzNywyOTkuNjUxTDI3NC4xNDksMjk5LjY3OUwyNzMuOTYsMjk5LjcwNkwyNzMuNzcyLDI5OS43MzJMMjczLjU4MywyOTkuNzU3TDI3My4zOTMsMjk5Ljc4TDI3My4yMDMsMjk5LjgwMkwyNzMuMDEzLDI5OS44MjRMMjcyLjgyMywyOTkuODQ0TDI3Mi42MzIsMjk5Ljg2MkwyNzIuNDQsMjk5Ljg4TDI3Mi4yNDksMjk5Ljg5NkwyNzIuMDU3LDI5OS45MTJMMjcxLjg2NSwyOTkuOTI2TDI3MS42NzIsMjk5LjkzOUwyNzEuNDc5LDI5OS45NUwyNzEuMjg2LDI5OS45NjFMMjcxLjA5MywyOTkuOTdMMjcwLjg5OSwyOTkuOTc4TDI3MC43MDUsMjk5Ljk4NUwyNzAuNTEsMjk5Ljk5TDI3MC4zMTUsMjk5Ljk5NEwyNzAuMTIsMjk5Ljk5OEwyNjkuOTI1LDI5OS45OTlMMjY5LjcyOSwzMDBMMzAuMjcxLDMwMEwzMC4wNzUsMjk5Ljk5OUwyOS44OCwyOTkuOTk4TDI5LjY4NSwyOTkuOTk0TDI5LjQ5LDI5OS45OUwyOS4yOTUsMjk5Ljk4NUwyOS4xMDEsMjk5Ljk3OEwyOC45MDcsMjk5Ljk3TDI4LjcxNCwyOTkuOTYxTDI4LjUyMSwyOTkuOTVMMjguMzI4LDI5OS45MzlMMjguMTM1LDI5OS45MjZMMjcuOTQzLDI5OS45MTJMMjcuNzUxLDI5OS44OTZMMjcuNTYsMjk5Ljg4TDI3LjM2OCwyOTkuODYyTDI3LjE3NywyOTkuODQ0TDI2Ljk4NywyOTkuODI0TDI2Ljc5NywyOTkuODAyTDI2LjYwNywyOTkuNzhMMjYuNDE3LDI5OS43NTdMMjYuMjI4LDI5OS43MzJMMjYuMDQsMjk5LjcwNkwyNS44NTEsMjk5LjY3OUwyNS42NjMsMjk5LjY1MUwyNS40NzYsMjk5LjYyMkwyNS4yODgsMjk5LjU5MUwyNS4xMDIsMjk5LjU2TDI0LjkxNSwyOTkuNTI3TDI0LjcyOSwyOTkuNDkzTDI0LjU0MywyOTkuNDU4TDI0LjM1OCwyOTkuNDIyTDI0LjE3MywyOTkuMzg1TDIzLjk4OSwyOTkuMzQ2TDIzLjgwNSwyOTkuMzA3TDIzLjYyMSwyOTkuMjY2TDIzLjQzOCwyOTkuMjI0TDIzLjI1NSwyOTkuMTgxTDIzLjA3MywyOTkuMTM4TDIyLjg5MSwyOTkuMDkyTDIyLjcwOSwyOTkuMDQ2TDIyLjUyOCwyOTguOTk5TDIyLjM0OCwyOTguOTUxTDIyLjE2NywyOTguOTAxTDIxLjk4OCwyOTguODUxTDIxLjgwOCwyOTguNzk5TDIxLjYyOSwyOTguNzQ3TDIxLjQ1MSwyOTguNjkzTDIxLjI3MywyOTguNjM4TDIxLjA5NiwyOTguNTgyTDIwLjkxOSwyOTguNTI1TDIwLjc0MiwyOTguNDY3TDIwLjU2NiwyOTguNDA4TDIwLjM5MSwyOTguMzQ4TDIwLjIxNiwyOTguMjg3TDIwLjA0MSwyOTguMjI1TDE5Ljg2NywyOTguMTYyTDE5LjY5MywyOTguMDk4TDE5LjUyLDI5OC4wMzJMMTkuMzQ4LDI5Ny45NjZMMTkuMTc2LDI5Ny44OTlMMTkuMDA0LDI5Ny44MzFMMTguODMzLDI5Ny43NjFMMTguNjYzLDI5Ny42OTFMMTguNDkzLDI5Ny42MkwxOC4zMjMsMjk3LjU0N0wxOC4xNTQsMjk3LjQ3NEwxNy45ODYsMjk3LjRMMTcuODE4LDI5Ny4zMjRMMTcuNjUxLDI5Ny4yNDhMMTcuNDg0LDI5Ny4xNzFMMTcuMzE4LDI5Ny4wOTJMMTcuMTUyLDI5Ny4wMTNMMTYuOTg3LDI5Ni45MzNMMTYuODIyLDI5Ni44NTJMMTYuNjU4LDI5Ni43NjlMMTYuNDk1LDI5Ni42ODZMMTYuMzMyLDI5Ni42MDJMMTYuMTcsMjk2LjUxN0wxNi4wMDgsMjk2LjQzMUwxNS44NDcsMjk2LjM0NEwxNS42ODYsMjk2LjI1NkwxNS41MjYsMjk2LjE2OEwxNS4zNjcsMjk2LjA3OEwxNS4yMDgsMjk1Ljk4N0wxNS4wNSwyOTUuODk1TDE0Ljg5MiwyOTUuODAzTDE0LjczNSwyOTUuNzA5TDE0LjU3OSwyOTUuNjE1TDE0LjQyMywyOTUuNTJMMTQuMjY4LDI5NS40MjRMMTQuMTE0LDI5NS4zMjZMMTMuOTYsMjk1LjIyOEwxMy44MDcsMjk1LjEyOUwxMy42NTQsMjk1LjAzTDEzLjUwMiwyOTQuOTI5TDEzLjM1MSwyOTQuODI3TDEzLjIsMjk0LjcyNUwxMy4wNSwyOTQuNjIxTDEyLjkwMSwyOTQuNTE3TDEyLjc1MiwyOTQuNDEyTDEyLjYwNCwyOTQuMzA2TDEyLjQ1NywyOTQuMTk5TDEyLjMxLDI5NC4wOTJMMTIuMTY0LDI5My45ODNMMTIuMDE5LDI5My44NzRMMTEuODc0LDI5My43NjNMMTEuNzMsMjkzLjY1MkwxMS41ODcsMjkzLjU0TDExLjQ0NCwyOTMuNDI3TDExLjMwMiwyOTMuMzE0TDExLjE2MSwyOTMuMTk5TDExLjAyLDI5My4wODRMMTAuODgxLDI5Mi45NjhMMTAuNzQxLDI5Mi44NTFMMTAuNjAzLDI5Mi43MzNMMTAuNDY1LDI5Mi42MTVMMTAuMzI4LDI5Mi40OTVMMTAuMTkyLDI5Mi4zNzVMMTAuMDU3LDI5Mi4yNTRMOS45MjIsMjkyLjEzMkw5Ljc4OCwyOTIuMDFMOS42NTQsMjkxLjg4Nkw5LjUyMiwyOTEuNzYyTDkuMzksMjkxLjYzN0w5LjI1OSwyOTEuNTEyTDkuMTI5LDI5MS4zODVMOC45OTksMjkxLjI1OEw4Ljg3LDI5MS4xM0w4Ljc0MiwyOTEuMDAxTDguNjE1LDI5MC44NzFMOC40ODgsMjkwLjc0MUw4LjM2MywyOTAuNjFMOC4yMzgsMjkwLjQ3OEw4LjExNCwyOTAuMzQ2TDcuOTksMjkwLjIxMkw3Ljg2OCwyOTAuMDc4TDcuNzQ2LDI4OS45NDNMNy42MjUsMjg5LjgwOEw3LjUwNSwyODkuNjcyTDcuMzg1LDI4OS41MzVMNy4yNjcsMjg5LjM5N0w3LjE0OSwyODkuMjU5TDcuMDMyLDI4OS4xMTlMNi45MTYsMjg4Ljk4TDYuODAxLDI4OC44MzlMNi42ODYsMjg4LjY5OEw2LjU3MywyODguNTU2TDYuNDYsMjg4LjQxM0w2LjM0OCwyODguMjdMNi4yMzcsMjg4LjEyNkw2LjEyNiwyODcuOTgxTDYuMDE3LDI4Ny44MzZMNS45MDgsMjg3LjY5TDUuODAxLDI4Ny41NDNMNS42OTQsMjg3LjM5Nkw1LjU4OCwyODcuMjQ4TDUuNDgzLDI4Ny4wOTlMNS4zNzksMjg2Ljk1TDUuMjc1LDI4Ni44TDUuMTczLDI4Ni42NDlMNS4wNzEsMjg2LjQ5OEw0Ljk3LDI4Ni4zNDZMNC44NzEsMjg2LjE5M0w0Ljc3MiwyODYuMDRMNC42NzQsMjg1Ljg4Nkw0LjU3NiwyODUuNzMyTDQuNDgsMjg1LjU3N0w0LjM4NSwyODUuNDIxTDQuMjkxLDI4NS4yNjVMNC4xOTcsMjg1LjEwOEw0LjEwNSwyODQuOTVMNC4wMTMsMjg0Ljc5MkwzLjkyMiwyODQuNjMzTDMuODMyLDI4NC40NzRMMy43NDQsMjg0LjMxNEwzLjY1NiwyODQuMTUzTDMuNTY5LDI4My45OTJMMy40ODMsMjgzLjgzTDMuMzk4LDI4My42NjhMMy4zMTQsMjgzLjUwNUwzLjIzMSwyODMuMzQyTDMuMTQ4LDI4My4xNzhMMy4wNjcsMjgzLjAxM0wyLjk4NywyODIuODQ4TDIuOTA4LDI4Mi42ODJMMi44MjksMjgyLjUxNkwyLjc1MiwyODIuMzQ5TDIuNjc2LDI4Mi4xODJMMi42LDI4Mi4wMTRMMi41MjYsMjgxLjg0NkwyLjQ1MywyODEuNjc3TDIuMzgsMjgxLjUwN0wyLjMwOSwyODEuMzM3TDIuMjM5LDI4MS4xNjdMMi4xNjksMjgwLjk5NkwyLjEwMSwyODAuODI0TDIuMDM0LDI4MC42NTJMMS45NjgsMjgwLjQ4TDEuOTAyLDI4MC4zMDdMMS44MzgsMjgwLjEzM0wxLjc3NSwyNzkuOTU5TDEuNzEzLDI3OS43ODRMMS42NTIsMjc5LjYwOUwxLjU5MiwyNzkuNDM0TDEuNTMzLDI3OS4yNThMMS40NzUsMjc5LjA4MUwxLjQxOCwyNzguOTA0TDEuMzYyLDI3OC43MjdMMS4zMDcsMjc4LjU0OUwxLjI1MywyNzguMzcxTDEuMjAxLDI3OC4xOTJMMS4xNDksMjc4LjAxMkwxLjA5OSwyNzcuODMzTDEuMDQ5LDI3Ny42NTJMMS4wMDEsMjc3LjQ3MkwwLjk1NCwyNzcuMjkxTDAuOTA4LDI3Ny4xMDlMMC44NjIsMjc2LjkyN0wwLjgxOSwyNzYuNzQ1TDAuNzc2LDI3Ni41NjJMMC43MzQsMjc2LjM3OUwwLjY5MywyNzYuMTk1TDAuNjU0LDI3Ni4wMTFMMC42MTUsMjc1LjgyN0wwLjU3OCwyNzUuNjQyTDAuNTQyLDI3NS40NTdMMC41MDcsMjc1LjI3MUwwLjQ3MywyNzUuMDg1TDAuNDQsMjc0Ljg5OEwwLjQwOSwyNzQuNzEyTDAuMzc4LDI3NC41MjRMMC4zNDksMjc0LjMzN0wwLjMyMSwyNzQuMTQ5TDAuMjk0LDI3My45NkwwLjI2OCwyNzMuNzcyTDAuMjQzLDI3My41ODNMMC4yMiwyNzMuMzkzTDAuMTk4LDI3My4yMDNMMC4xNzYsMjczLjAxM0wwLjE1NiwyNzIuODIzTDAuMTM4LDI3Mi42MzJMMC4xMiwyNzIuNDRMMC4xMDQsMjcyLjI0OUwwLjA4OCwyNzIuMDU3TDAuMDc0LDI3MS44NjVMMC4wNjEsMjcxLjY3MkwwLjA1LDI3MS40NzlMMC4wMzksMjcxLjI4NkwwLjAzLDI3MS4wOTNMMC4wMjIsMjcwLjg5OUwwLjAxNSwyNzAuNzA1TDAuMDEsMjcwLjUxTDAuMDA2LDI3MC4zMTVMMC4wMDIsMjcwLjEyTDAuMDAxLDI2OS45MjVMMCwyNjkuNzI5TDAsMzAuMjcxTDAuMDAxLDMwLjA3NUwwLjAwMiwyOS44OEwwLjAwNiwyOS42ODVMMC4wMSwyOS40OUwwLjAxNSwyOS4yOTVMMC4wMjIsMjkuMTAxTDAuMDMsMjguOTA3TDAuMDM5LDI4LjcxNEwwLjA1LDI4LjUyMUwwLjA2MSwyOC4zMjhMMC4wNzQsMjguMTM1TDAuMDg4LDI3Ljk0M0wwLjEwNCwyNy43NTFMMC4xMiwyNy41NkwwLjEzOCwyNy4zNjhMMC4xNTYsMjcuMTc3TDAuMTc2LDI2Ljk4N0wwLjE5OCwyNi43OTdMMC4yMiwyNi42MDdMMC4yNDMsMjYuNDE3TDAuMjY4LDI2LjIyOEwwLjI5NCwyNi4wNEwwLjMyMSwyNS44NTFMMC4zNDksMjUuNjYzTDAuMzc4LDI1LjQ3NkwwLjQwOSwyNS4yODhMMC40NCwyNS4xMDJMMC40NzMsMjQuOTE1TDAuNTA3LDI0LjcyOUwwLjU0MiwyNC41NDNMMC41NzgsMjQuMzU4TDAuNjE1LDI0LjE3M0wwLjY1NCwyMy45ODlMMC42OTMsMjMuODA1TDAuNzM0LDIzLjYyMUwwLjc3NiwyMy40MzhMMC44MTksMjMuMjU1TDAuODYyLDIzLjA3M0wwLjkwOCwyMi44OTFMMC45NTQsMjIuNzA5TDEuMDAxLDIyLjUyOEwxLjA0OSwyMi4zNDhMMS4wOTksMjIuMTY3TDEuMTQ5LDIxLjk4OEwxLjIwMSwyMS44MDhMMS4yNTMsMjEuNjI5TDEuMzA3LDIxLjQ1MUwxLjM2MiwyMS4yNzNMMS40MTgsMjEuMDk2TDEuNDc1LDIwLjkxOUwxLjUzMywyMC43NDJMMS41OTIsMjAuNTY2TDEuNjUyLDIwLjM5MUwxLjcxMywyMC4yMTZMMS43NzUsMjAuMDQxTDEuODM4LDE5Ljg2N0wxLjkwMiwxOS42OTNMMS45NjgsMTkuNTJMMi4wMzQsMTkuMzQ4TDIuMTAxLDE5LjE3NkwyLjE2OSwxOS4wMDRMMi4yMzksMTguODMzTDIuMzA5LDE4LjY2M0wyLjM4LDE4LjQ5M0wyLjQ1MywxOC4zMjNMMi41MjYsMTguMTU0TDIuNiwxNy45ODZMMi42NzYsMTcuODE4TDIuNzUyLDE3LjY1MUwyLjgyOSwxNy40ODRMMi45MDgsMTcuMzE4TDIuOTg3LDE3LjE1MkwzLjA2NywxNi45ODdMMy4xNDgsMTYuODIyTDMuMjMxLDE2LjY1OEwzLjMxNCwxNi40OTVMMy4zOTgsMTYuMzMyTDMuNDgzLDE2LjE3TDMuNTY5LDE2LjAwOEwzLjY1NiwxNS44NDdMMy43NDQsMTUuNjg2TDMuODMyLDE1LjUyNkwzLjkyMiwxNS4zNjdMNC4wMTMsMTUuMjA4TDQuMTA1LDE1LjA1TDQuMTk3LDE0Ljg5Mkw0LjI5MSwxNC43MzVMNC4zODUsMTQuNTc5TDQuNDgsMTQuNDIzTDQuNTc2LDE0LjI2OEw0LjY3NCwxNC4xMTRMNC43NzIsMTMuOTZMNC44NzEsMTMuODA3TDQuOTcsMTMuNjU0TDUuMDcxLDEzLjUwMkw1LjE3MywxMy4zNTFMNS4yNzUsMTMuMkw1LjM3OSwxMy4wNUw1LjQ4MywxMi45MDFMNS41ODgsMTIuNzUyTDUuNjk0LDEyLjYwNEw1LjgwMSwxMi40NTdMNS45MDgsMTIuMzFMNi4wMTcsMTIuMTY0TDYuMTI2LDEyLjAxOUw2LjIzNywxMS44NzRMNi4zNDgsMTEuNzNMNi40NiwxMS41ODdMNi41NzMsMTEuNDQ0TDYuNjg2LDExLjMwMkw2LjgwMSwxMS4xNjFMNi45MTYsMTEuMDJMNy4wMzIsMTAuODgxTDcuMTQ5LDEwLjc0MUw3LjI2NywxMC42MDNMNy4zODUsMTAuNDY1TDcuNTA1LDEwLjMyOEw3LjYyNSwxMC4xOTJMNy43NDYsMTAuMDU3TDcuODY4LDkuOTIyTDcuOTksOS43ODhMOC4xMTQsOS42NTRMOC4yMzgsOS41MjJMOC4zNjMsOS4zOUw4LjQ4OCw5LjI1OUw4LjYxNSw5LjEyOUw4Ljc0Miw4Ljk5OUw4Ljg3LDguODdMOC45OTksOC43NDJMOS4xMjksOC42MTVMOS4yNTksOC40ODhMOS4zOSw4LjM2M0w5LjUyMiw4LjIzOEw5LjY1NCw4LjExNEw5Ljc4OCw3Ljk5TDkuOTIyLDcuODY4TDEwLjA1Nyw3Ljc0NkwxMC4xOTIsNy42MjVMMTAuMzI4LDcuNTA1TDEwLjQ2NSw3LjM4NUwxMC42MDMsNy4yNjdMMTAuNzQxLDcuMTQ5TDEwLjg4MSw3LjAzMkwxMS4wMiw2LjkxNkwxMS4xNjEsNi44MDFMMTEuMzAyLDYuNjg2TDExLjQ0NCw2LjU3M0wxMS41ODcsNi40NkwxMS43Myw2LjM0OEwxMS44NzQsNi4yMzdMMTIuMDE5LDYuMTI2TDEyLjE2NCw2LjAxN0wxMi4zMSw1LjkwOEwxMi40NTcsNS44MDFMMTIuNjA0LDUuNjk0TDEyLjc1Miw1LjU4OEwxMi45MDEsNS40ODNMMTMuMDUsNS4zNzlMMTMuMiw1LjI3NUwxMy4zNTEsNS4xNzNMMTMuNTAyLDUuMDcxTDEzLjY1NCw0Ljk3TDEzLjgwNyw0Ljg3MUwxMy45Niw0Ljc3MkwxNC4xMTQsNC42NzRMMTQuMjY4LDQuNTc2TDE0LjQyMyw0LjQ4TDE0LjU3OSw0LjM4NUwxNC43MzUsNC4yOTFMMTQuODkyLDQuMTk3TDE1LjA1LDQuMTA1TDE1LjIwOCw0LjAxM0wxNS4zNjcsMy45MjJMMTUuNTI2LDMuODMyTDE1LjY4NiwzLjc0NEwxNS44NDcsMy42NTZMMTYuMDA4LDMuNTY5TDE2LjE3LDMuNDgzTDE2LjMzMiwzLjM5OEwxNi40OTUsMy4zMTRMMTYuNjU4LDMuMjMxTDE2LjgyMiwzLjE0OEwxNi45ODcsMy4wNjdMMTcuMTUyLDIuOTg3TDE3LjMxOCwyLjkwOEwxNy40ODQsMi44MjlMMTcuNjUxLDIuNzUyTDE3LjgxOCwyLjY3NkwxNy45ODYsMi42TDE4LjE1NCwyLjUyNkwxOC4zMjMsMi40NTNMMTguNDkzLDIuMzhMMTguNjYzLDIuMzA5TDE4LjgzMywyLjIzOUwxOS4wMDQsMi4xNjlMMTkuMTc2LDIuMTAxTDE5LjM0OCwyLjAzNEwxOS41MiwxLjk2OEwxOS42OTMsMS45MDJMMTkuODY3LDEuODM4TDIwLjA0MSwxLjc3NUwyMC4yMTYsMS43MTNMMjAuMzkxLDEuNjUyTDIwLjU2NiwxLjU5MkwyMC43NDIsMS41MzNMMjAuOTE5LDEuNDc1TDIxLjA5NiwxLjQxOEwyMS4yNzMsMS4zNjJMMjEuNDUxLDEuMzA3TDIxLjYyOSwxLjI1M0wyMS44MDgsMS4yMDFMMjEuOTg4LDEuMTQ5TDIyLjE2NywxLjA5OUwyMi4zNDgsMS4wNDlMMjIuNTI4LDEuMDAxTDIyLjcwOSwwLjk1NEwyMi44OTEsMC45MDhMMjMuMDczLDAuODYyTDIzLjI1NSwwLjgxOUwyMy40MzgsMC43NzZMMjMuNjIxLDAuNzM0TDIzLjgwNSwwLjY5M0wyMy45ODksMC42NTRMMjQuMTczLDAuNjE1TDI0LjM1OCwwLjU3OEwyNC41NDMsMC41NDJMMjQuNzI5LDAuNTA3TDI0LjkxNSwwLjQ3M0wyNS4xMDIsMC40NEwyNS4yODgsMC40MDlMMjUuNDc2LDAuMzc4TDI1LjY2MywwLjM0OUwyNS44NTEsMC4zMjFMMjYuMDQsMC4yOTRMMjYuMjI4LDAuMjY4TDI2LjQxNywwLjI0M0wyNi42MDcsMC4yMkwyNi43OTcsMC4xOThMMjYuOTg3LDAuMTc2TDI3LjE3NywwLjE1NkwyNy4zNjgsMC4xMzhMMjcuNTYsMC4xMkwyNy43NTEsMC4xMDRMMjcuOTQzLDAuMDg4TDI4LjEzNSwwLjA3NEwyOC4zMjgsMC4wNjFMMjguNTIxLDAuMDVMMjguNzE0LDAuMDM5TDI4LjkwNywwLjAzTDI5LjEwMSwwLjAyMkwyOS4yOTUsMC4wMTVMMjkuNDksMC4wMUwyOS42ODUsMC4wMDZMMjkuODgsMC4wMDJMMzAuMDc1LDAuMDAxTDMwLjI3MSwwTDI2OS43MjksMEwyNjkuOTI1LDAuMDAxWk0zMC4yOTYsMTZMMzAuMTc2LDE2TDMwLjA4MywxNi4wMDFMMjkuOTg5LDE2LjAwM0wyOS44OTYsMTYuMDA1TDI5LjgwMywxNi4wMDdMMjkuNzEsMTYuMDExTDI5LjYxNywxNi4wMTVMMjkuNTI1LDE2LjAxOUwyOS40MzMsMTYuMDI0TDI5LjM0MSwxNi4wMjlMMjkuMjUsMTYuMDM2TDI5LjE1OSwxNi4wNDJMMjkuMDY4LDE2LjA0OUwyOC45NzcsMTYuMDU3TDI4Ljg4NiwxNi4wNjZMMjguNzk2LDE2LjA3NEwyOC43MDYsMTYuMDg0TDI4LjYxNiwxNi4wOTRMMjguNTI3LDE2LjEwNEwyOC40MzgsMTYuMTE1TDI4LjM0OCwxNi4xMjdMMjguMjYsMTYuMTM5TDI4LjE3MSwxNi4xNTJMMjguMDgzLDE2LjE2NUwyNy45OTUsMTYuMTc5TDI3LjkwNywxNi4xOTNMMjcuODE5LDE2LjIwOEwyNy43MzIsMTYuMjIzTDI3LjY0NCwxNi4yMzlMMjcuNTU3LDE2LjI1NkwyNy40NzEsMTYuMjczTDI3LjM4NCwxNi4yOUwyNy4yOTgsMTYuMzA4TDI3LjIxMiwxNi4zMjZMMjcuMTI2LDE2LjM0NUwyNy4wNCwxNi4zNjVMMjYuOTU1LDE2LjM4NUwyNi44NywxNi40MDZMMjYuNzg1LDE2LjQyN0wyNi43LDE2LjQ0OEwyNi42MTUsMTYuNDdMMjYuNTMxLDE2LjQ5M0wyNi40NDcsMTYuNTE2TDI2LjM2MywxNi41MzlMMjYuMjc5LDE2LjU2NEwyNi4xOTUsMTYuNTg4TDI2LjExMiwxNi42MTNMMjYuMDI5LDE2LjYzOUwyNS45NDYsMTYuNjY1TDI1Ljg2NCwxNi42OTFMMjUuNzgxLDE2LjcxOUwyNS42OTksMTYuNzQ2TDI1LjYxNywxNi43NzRMMjUuNTM1LDE2LjgwM0wyNS40NTQsMTYuODMyTDI1LjM3MiwxNi44NjFMMjUuMjkxLDE2Ljg5MUwyNS4yMSwxNi45MjJMMjUuMTI5LDE2Ljk1M0wyNS4wNDksMTYuOTg0TDI0Ljk2OSwxNy4wMTZMMjQuODg5LDE3LjA0OUwyNC44MDksMTcuMDgyTDI0LjcyOSwxNy4xMTVMMjQuNjUsMTcuMTQ5TDI0LjU3MSwxNy4xODNMMjQuNDkyLDE3LjIxOEwyNC40MTMsMTcuMjUzTDI0LjMzNSwxNy4yODlMMjQuMjU3LDE3LjMyNUwyNC4xNzksMTcuMzYyTDI0LjEwMSwxNy4zOTlMMjQuMDIzLDE3LjQzN0wyMy45NDYsMTcuNDc1TDIzLjg2OSwxNy41MTRMMjMuNzkyLDE3LjU1M0wyMy43MTYsMTcuNTkyTDIzLjYzOSwxNy42MzJMMjMuNTYzLDE3LjY3M0wyMy40ODcsMTcuNzE0TDIzLjQxMiwxNy43NTVMMjMuMzM3LDE3Ljc5N0wyMy4yNjIsMTcuODM5TDIzLjE4NywxNy44ODJMMjMuMTEyLDE3LjkyNUwyMy4wMzgsMTcuOTY5TDIyLjk2NCwxOC4wMTNMMjIuODksMTguMDU3TDIyLjgxNywxOC4xMDJMMjIuNzQ0LDE4LjE0OEwyMi42NzEsMTguMTkzTDIyLjU5OCwxOC4yNEwyMi41MjYsMTguMjg2TDIyLjQ1MywxOC4zMzRMMjIuMzgyLDE4LjM4MUwyMi4zMSwxOC40MjlMMjIuMjM5LDE4LjQ3OEwyMi4xNjgsMTguNTI3TDIyLjA5NywxOC41NzZMMjIuMDI3LDE4LjYyNkwyMS45NTcsMTguNjc2TDIxLjg4NywxOC43MjdMMjEuODE3LDE4Ljc3OEwyMS43NDgsMTguODI5TDIxLjY3OSwxOC44ODFMMjEuNjExLDE4LjkzM0wyMS41NDIsMTguOTg2TDIxLjQ3NCwxOS4wMzlMMjEuNDA3LDE5LjA5MkwyMS4zMzksMTkuMTQ2TDIxLjI3MiwxOS4yMDFMMjEuMjA2LDE5LjI1NUwyMS4xMzksMTkuMzExTDIxLjA3MywxOS4zNjZMMjEuMDA3LDE5LjQyMkwyMC45NDIsMTkuNDc4TDIwLjg3NywxOS41MzVMMjAuODEyLDE5LjU5MkwyMC43NDgsMTkuNjVMMjAuNjg0LDE5LjcwN0wyMC42MiwxOS43NjZMMjAuNTU3LDE5LjgyNEwyMC40OTQsMTkuODgzTDIwLjQzMSwxOS45NDNMMjAuMzY5LDIwLjAwM0wyMC4zMDcsMjAuMDYzTDIwLjI0NSwyMC4xMjNMMjAuMTg0LDIwLjE4NEwyMC4xMjMsMjAuMjQ1TDIwLjA2MywyMC4zMDdMMjAuMDAzLDIwLjM2OUwxOS45NDMsMjAuNDMxTDE5Ljg4MywyMC40OTRMMTkuODI0LDIwLjU1N0wxOS43NjYsMjAuNjJMMTkuNzA3LDIwLjY4NEwxOS42NSwyMC43NDhMMTkuNTkyLDIwLjgxMkwxOS41MzUsMjAuODc3TDE5LjQ3OCwyMC45NDJMMTkuNDIyLDIxLjAwN0wxOS4zNjYsMjEuMDczTDE5LjMxMSwyMS4xMzlMMTkuMjU1LDIxLjIwNkwxOS4yMDEsMjEuMjcyTDE5LjE0NiwyMS4zMzlMMTkuMDkyLDIxLjQwN0wxOS4wMzksMjEuNDc0TDE4Ljk4NiwyMS41NDJMMTguOTMzLDIxLjYxMUwxOC44ODEsMjEuNjc5TDE4LjgyOSwyMS43NDhMMTguNzc4LDIxLjgxN0wxOC43MjcsMjEuODg3TDE4LjY3NiwyMS45NTdMMTguNjI2LDIyLjAyN0wxOC41NzYsMjIuMDk3TDE4LjUyNywyMi4xNjhMMTguNDc4LDIyLjIzOUwxOC40MjksMjIuMzFMMTguMzgxLDIyLjM4MkwxOC4zMzQsMjIuNDUzTDE4LjI4NiwyMi41MjZMMTguMjQsMjIuNTk4TDE4LjE5MywyMi42NzFMMTguMTQ4LDIyLjc0NEwxOC4xMDIsMjIuODE3TDE4LjA1NywyMi44OUwxOC4wMTMsMjIuOTY0TDE3Ljk2OSwyMy4wMzhMMTcuOTI1LDIzLjExMkwxNy44ODIsMjMuMTg3TDE3LjgzOSwyMy4yNjJMMTcuNzk3LDIzLjMzN0wxNy43NTUsMjMuNDEyTDE3LjcxNCwyMy40ODdMMTcuNjczLDIzLjU2M0wxNy42MzIsMjMuNjM5TDE3LjU5MiwyMy43MTZMMTcuNTUzLDIzLjc5MkwxNy41MTQsMjMuODY5TDE3LjQ3NSwyMy45NDZMMTcuNDM3LDI0LjAyM0wxNy4zOTksMjQuMTAxTDE3LjM2MiwyNC4xNzlMMTcuMzI1LDI0LjI1N0wxNy4yODksMjQuMzM1TDE3LjI1MywyNC40MTNMMTcuMjE4LDI0LjQ5MkwxNy4xODMsMjQuNTcxTDE3LjE0OSwyNC42NUwxNy4xMTUsMjQuNzI5TDE3LjA4MiwyNC44MDlMMTcuMDQ5LDI0Ljg4OUwxNy4wMTYsMjQuOTY5TDE2Ljk4NCwyNS4wNDlMMTYuOTUzLDI1LjEyOUwxNi45MjIsMjUuMjFMMTYuODkxLDI1LjI5MUwxNi44NjEsMjUuMzcyTDE2LjgzMiwyNS40NTRMMTYuODAzLDI1LjUzNUwxNi43NzQsMjUuNjE3TDE2Ljc0NiwyNS42OTlMMTYuNzE5LDI1Ljc4MUwxNi42OTEsMjUuODY0TDE2LjY2NSwyNS45NDZMMTYuNjM5LDI2LjAyOUwxNi42MTMsMjYuMTEyTDE2LjU4OCwyNi4xOTVMMTYuNTY0LDI2LjI3OUwxNi41MzksMjYuMzYzTDE2LjUxNiwyNi40NDdMMTYuNDkzLDI2LjUzMUwxNi40NywyNi42MTVMMTYuNDQ4LDI2LjdMMTYuNDI3LDI2Ljc4NUwxNi40MDYsMjYuODdMMTYuMzg1LDI2Ljk1NUwxNi4zNjUsMjcuMDRMMTYuMzQ1LDI3LjEyNkwxNi4zMjYsMjcuMjEyTDE2LjMwOCwyNy4yOThMMTYuMjksMjcuMzg0TDE2LjI3MywyNy40NzFMMTYuMjU2LDI3LjU1N0wxNi4yMzksMjcuNjQ0TDE2LjIyMywyNy43MzJMMTYuMjA4LDI3LjgxOUwxNi4xOTMsMjcuOTA3TDE2LjE3OSwyNy45OTVMMTYuMTY1LDI4LjA4M0wxNi4xNTIsMjguMTcxTDE2LjEzOSwyOC4yNkwxNi4xMjcsMjguMzQ4TDE2LjExNSwyOC40MzhMMTYuMTA0LDI4LjUyN0wxNi4wOTQsMjguNjE2TDE2LjA4NCwyOC43MDZMMTYuMDc0LDI4Ljc5NkwxNi4wNjYsMjguODg2TDE2LjA1NywyOC45NzdMMTYuMDQ5LDI5LjA2OEwxNi4wNDIsMjkuMTU5TDE2LjAzNiwyOS4yNUwxNi4wMjksMjkuMzQxTDE2LjAyNCwyOS40MzNMMTYuMDE5LDI5LjUyNUwxNi4wMTUsMjkuNjE3TDE2LjAxMSwyOS43MUwxNi4wMDcsMjkuODAzTDE2LjAwNSwyOS44OTZMMTYuMDAzLDI5Ljk4OUwxNi4wMDEsMzAuMDgzTDE2LDMwLjE3NkwxNiwyNjkuODI0TDE2LjAwMSwyNjkuOTE3TDE2LjAwNSwyNzAuMTA0TDE2LjAwNywyNzAuMTk3TDE2LjAxNSwyNzAuMzgzTDE2LjAxOSwyNzAuNDc1TDE2LjAyOSwyNzAuNjU5TDE2LjAzNiwyNzAuNzVMMTYuMDQyLDI3MC44NDFMMTYuMDQ5LDI3MC45MzJMMTYuMDU3LDI3MS4wMjNMMTYuMDY2LDI3MS4xMTRMMTYuMDc0LDI3MS4yMDRMMTYuMDk0LDI3MS4zODRMMTYuMTA0LDI3MS40NzNMMTYuMTE1LDI3MS41NjJMMTYuMTI3LDI3MS42NTJMMTYuMTM5LDI3MS43NEwxNi4xNTIsMjcxLjgyOUwxNi4xNjUsMjcxLjkxN0wxNi4xOTMsMjcyLjA5M0wxNi4yMDgsMjcyLjE4MUwxNi4yMjMsMjcyLjI2OEwxNi4yMzksMjcyLjM1NUwxNi4yOSwyNzIuNjE2TDE2LjMwOCwyNzIuNzAyTDE2LjMyNywyNzIuNzg4TDE2LjM0NSwyNzIuODc0TDE2LjM2NSwyNzIuOTZMMTYuMzg1LDI3My4wNDVMMTYuNDA2LDI3My4xM0wxNi40MjcsMjczLjIxNkwxNi40NDgsMjczLjNMMTYuNDcsMjczLjM4NUwxNi41MzksMjczLjYzN0wxNi41NjQsMjczLjcyMUwxNi41ODgsMjczLjgwNUwxNi42MTMsMjczLjg4OEwxNi42OTEsMjc0LjEzN0wxNi43MTksMjc0LjIxOUwxNi43NDYsMjc0LjMwMUwxNi43NzQsMjc0LjM4M0wxNi44MDMsMjc0LjQ2NUwxNi44MzIsMjc0LjU0NkwxNi44NjEsMjc0LjYyOEwxNi44OTEsMjc0LjcwOUwxNi45NTMsMjc0Ljg3MUwxNi45ODQsMjc0Ljk1MUwxNy4wMTYsMjc1LjAzMUwxNy4xMTUsMjc1LjI3MUwxNy4xNDksMjc1LjM1MUwxNy4xODMsMjc1LjQyOUwxNy4yNTMsMjc1LjU4N0wxNy4zMjUsMjc1Ljc0M0wxNy4zOTksMjc1Ljg5OUwxNy40MzcsMjc1Ljk3N0wxNy40NzUsMjc2LjA1NEwxNy41OTIsMjc2LjI4NUwxNy42MzIsMjc2LjM2MUwxNy42NzIsMjc2LjQzNkwxNy43MTMsMjc2LjUxMkwxNy43NTUsMjc2LjU4OUwxNy43OTcsMjc2LjY2M0wxNy44MzksMjc2LjczOEwxNy44ODIsMjc2LjgxM0wxNy45MjUsMjc2Ljg4N0wxNy45NjksMjc2Ljk2MkwxOC4wNTcsMjc3LjExTDE4LjE0NywyNzcuMjU2TDE4LjE5NCwyNzcuMzNMMTguMjg2LDI3Ny40NzRMMTguMzM0LDI3Ny41NDdMMTguMzgyLDI3Ny42MTlMMTguNDI5LDI3Ny42OUwxOC40NzgsMjc3Ljc2MUwxOC41MjYsMjc3LjgzMkwxOC41NzYsMjc3LjkwM0wxOC42MjYsMjc3Ljk3M0wxOC42NzYsMjc4LjA0NEwxOC43MjcsMjc4LjExM0wxOC43NzcsMjc4LjE4MkwxOC44MjksMjc4LjI1MkwxOC44ODEsMjc4LjMyMUwxOC45MzMsMjc4LjM4OUwxOC45ODYsMjc4LjQ1OEwxOS4wMzksMjc4LjUyNkwxOS4wOTIsMjc4LjU5M0wxOS4xNDcsMjc4LjY2MUwxOS4yMDEsMjc4LjcyOEwxOS4yNTYsMjc4Ljc5NUwxOS4zMSwyNzguODZMMTkuMzY2LDI3OC45MjdMMTkuNDIyLDI3OC45OTNMMTkuNDc4LDI3OS4wNThMMTkuNTkyLDI3OS4xODhMMTkuNjQ5LDI3OS4yNTJMMTkuNzA3LDI3OS4zMTZMMTkuODI1LDI3OS40NDRMMTkuODg0LDI3OS41MDZMMTkuOTQyLDI3OS41NjhMMjAuMDAzLDI3OS42MzJMMjAuMDYzLDI3OS42OTNMMjAuMTIzLDI3OS43NTVMMjAuMjQ1LDI3OS44NzdMMjAuMzA3LDI3OS45MzhMMjAuMzY4LDI3OS45OTdMMjAuNDk0LDI4MC4xMTdMMjAuNTU3LDI4MC4xNzZMMjAuNjIsMjgwLjIzNEwyMC42ODQsMjgwLjI5M0wyMC43NDgsMjgwLjM1TDIwLjgxMiwyODAuNDA4TDIwLjk0MiwyODAuNTIyTDIxLjAwNywyODAuNTc4TDIxLjA3MywyODAuNjM0TDIxLjEzOSwyODAuNjg5TDIxLjIwNiwyODAuNzQ1TDIxLjI3MiwyODAuNzk5TDIxLjM0LDI4MC44NTRMMjEuNDA3LDI4MC45MDhMMjEuNDc0LDI4MC45NjFMMjEuNjEsMjgxLjA2N0wyMS42NzgsMjgxLjExOUwyMS43NDgsMjgxLjE3MUwyMS44MTcsMjgxLjIyM0wyMS44ODYsMjgxLjI3M0wyMS45NTcsMjgxLjMyNEwyMi4wOTcsMjgxLjQyNEwyMi4xNjgsMjgxLjQ3NEwyMi4yMzksMjgxLjUyMkwyMi4zMSwyODEuNTcxTDIyLjM4MSwyODEuNjE5TDIyLjQ1NCwyODEuNjY2TDIyLjUyNiwyODEuNzE0TDIyLjU5OCwyODEuNzYxTDIyLjY3LDI4MS44MDZMMjIuNzQzLDI4MS44NTJMMjIuODE3LDI4MS44OThMMjIuODksMjgxLjk0M0wyMi45NjQsMjgxLjk4N0wyMy4wMzgsMjgyLjAzMkwyMy4xODYsMjgyLjExOEwyMy4yNjIsMjgyLjE2MUwyMy4zMzYsMjgyLjIwM0wyMy40MTEsMjgyLjI0NUwyMy41NjMsMjgyLjMyN0wyMy42NCwyODIuMzY4TDIzLjcxNiwyODIuNDA4TDIzLjc5MywyODIuNDQ3TDIzLjg2OSwyODIuNDg3TDI0LjEsMjgyLjYwMUwyNC4xNzgsMjgyLjYzOEwyNC4yNTYsMjgyLjY3NEwyNC4zMzUsMjgyLjcxMUwyNC40MTQsMjgyLjc0N0wyNC41NywyODIuODE3TDI0LjY0OSwyODIuODUxTDI0LjcyOSwyODIuODg1TDI0LjgxLDI4Mi45MTlMMjQuODg4LDI4Mi45NTFMMjQuOTY5LDI4Mi45ODRMMjUuMDUsMjgzLjAxNkwyNS4xMjksMjgzLjA0N0wyNS4yOTEsMjgzLjEwOUwyNS4zNzMsMjgzLjEzOUwyNS40NTQsMjgzLjE2OEwyNS41MzQsMjgzLjE5N0wyNS42MTcsMjgzLjIyNkwyNS43ODEsMjgzLjI4MkwyNS44NjQsMjgzLjMwOUwyNi4wMjgsMjgzLjM2MUwyNi4xMTMsMjgzLjM4N0wyNi4xOTYsMjgzLjQxMkwyNi4yNzgsMjgzLjQzNkwyNi4zNjIsMjgzLjQ2TDI2LjQ0NywyODMuNDg0TDI2LjYxNSwyODMuNTNMMjYuNywyODMuNTUyTDI2Ljc4NiwyODMuNTc0TDI2Ljg2OSwyODMuNTk0TDI2Ljk1NSwyODMuNjE1TDI3LjA0LDI4My42MzVMMjcuMTI1LDI4My42NTRMMjcuMjEyLDI4My42NzRMMjcuMzg0LDI4My43MUwyNy40NywyODMuNzI3TDI3LjU1OCwyODMuNzQ0TDI3LjY0NSwyODMuNzYxTDI3LjczMiwyODMuNzc3TDI3LjkwNiwyODMuODA3TDI3Ljk5NCwyODMuODIxTDI4LjA4MywyODMuODM1TDI4LjI1OSwyODMuODYxTDI4LjM1LDI4My44NzNMMjguNDM4LDI4My44ODVMMjguNTI3LDI4My44OTZMMjguNjE2LDI4My45MDZMMjguNzk2LDI4My45MjZMMjguODg2LDI4My45MzRMMjguOTc2LDI4My45NDNMMjkuMDY3LDI4My45NTFMMjkuMjUxLDI4My45NjVMMjkuMzQyLDI4My45NzFMMjkuNDMyLDI4My45NzZMMjkuNTI1LDI4My45ODFMMjkuNjE4LDI4My45ODVMMjkuNzEsMjgzLjk4OUwyOS44MDMsMjgzLjk5M0wyOS44OTUsMjgzLjk5NUwzMC4wODMsMjgzLjk5OUwzMC4xNzYsMjg0TDI2OS44MjQsMjg0TDI2OS45MTcsMjgzLjk5OUwyNzAuMDExLDI4My45OTdMMjcwLjEwNSwyODMuOTk1TDI3MC4xOTcsMjgzLjk5M0wyNzAuMjksMjgzLjk4OUwyNzAuMzgyLDI4My45ODVMMjcwLjQ3NSwyODMuOTgxTDI3MC41NjgsMjgzLjk3NkwyNzAuNjU4LDI4My45NzFMMjcwLjc0OSwyODMuOTY1TDI3MC44NDEsMjgzLjk1OEwyNzAuOTMzLDI4My45NTFMMjcxLjAyNCwyODMuOTQzTDI3MS4xMTQsMjgzLjkzNEwyNzEuMjA0LDI4My45MjZMMjcxLjI5NCwyODMuOTE2TDI3MS4zODQsMjgzLjkwNkwyNzEuNDczLDI4My44OTZMMjcxLjU2MiwyODMuODg1TDI3MS42NSwyODMuODczTDI3MS43NDEsMjgzLjg2MUwyNzEuODI5LDI4My44NDhMMjcxLjkxNywyODMuODM1TDI3Mi4wMDYsMjgzLjgyMUwyNzIuMDk0LDI4My44MDdMMjcyLjE4MSwyODMuNzkyTDI3Mi4yNjgsMjgzLjc3N0wyNzIuMzU1LDI4My43NjFMMjcyLjQ0MiwyODMuNzQ0TDI3Mi41MywyODMuNzI3TDI3Mi42MTYsMjgzLjcxTDI3Mi43MDIsMjgzLjY5MkwyNzIuNzg4LDI4My42NzRMMjcyLjg3NSwyODMuNjU0TDI3Mi45NiwyODMuNjM1TDI3My4wNDUsMjgzLjYxNUwyNzMuMTMxLDI4My41OTRMMjczLjIxNSwyODMuNTc0TDI3My4zLDI4My41NTJMMjczLjM4NSwyODMuNTNMMjczLjQ2OSwyODMuNTA3TDI3My41NTMsMjgzLjQ4NEwyNzMuNjM4LDI4My40NkwyNzMuNzIyLDI4My40MzZMMjczLjgwNCwyODMuNDEyTDI3My44ODcsMjgzLjM4N0wyNzMuOTcyLDI4My4zNjFMMjc0LjA1NCwyODMuMzM1TDI3NC4xMzYsMjgzLjMwOUwyNzQuMjE5LDI4My4yODFMMjc0LjMwMSwyODMuMjU0TDI3NC4zODMsMjgzLjIyNkwyNzQuNDY1LDI4My4xOTdMMjc0LjU0NiwyODMuMTY4TDI3NC42MjcsMjgzLjEzOUwyNzQuNzA5LDI4My4xMDlMMjc0Ljc5LDI4My4wNzhMMjc0Ljg3MSwyODMuMDQ3TDI3NC45NSwyODMuMDE2TDI3NS4wMzEsMjgyLjk4NEwyNzUuMTEyLDI4Mi45NTFMMjc1LjE5LDI4Mi45MTlMMjc1LjI3MSwyODIuODg1TDI3NS4zNTIsMjgyLjg1MUwyNzUuNDI5LDI4Mi44MTdMMjc1LjUwNywyODIuNzgyTDI3NS41ODYsMjgyLjc0N0wyNzUuNjY1LDI4Mi43MTFMMjc1Ljc0NCwyODIuNjc1TDI3NS44MjIsMjgyLjYzOEwyNzUuOSwyODIuNjAxTDI3NS45NzcsMjgyLjU2M0wyNzYuMDUzLDI4Mi41MjVMMjc2LjEzMSwyODIuNDg2TDI3Ni4yMDgsMjgyLjQ0N0wyNzYuMjg0LDI4Mi40MDhMMjc2LjM2MSwyODIuMzY4TDI3Ni40MzYsMjgyLjMyOEwyNzYuNTEyLDI4Mi4yODdMMjc2LjU4OSwyODIuMjQ0TDI3Ni42NjMsMjgyLjIwM0wyNzYuNzM4LDI4Mi4xNjFMMjc2LjgxNCwyODIuMTE4TDI3Ni44ODgsMjgyLjA3NUwyNzYuOTYyLDI4Mi4wMzJMMjc3LjAzNiwyODEuOTg3TDI3Ny4xMSwyODEuOTQzTDI3Ny4xODMsMjgxLjg5OEwyNzcuMjU2LDI4MS44NTJMMjc3LjMzLDI4MS44MDZMMjc3LjQwMiwyODEuNzYxTDI3Ny40NzMsMjgxLjcxNEwyNzcuNTQ3LDI4MS42NjZMMjc3LjYxOSwyODEuNjE4TDI3Ny42OSwyODEuNTcxTDI3Ny43NjEsMjgxLjUyMkwyNzcuODMxLDI4MS40NzRMMjc3LjkwMywyODEuNDI0TDI3Ny45NzMsMjgxLjM3NEwyNzguMDQ0LDI4MS4zMjRMMjc4LjExNCwyODEuMjczTDI3OC4xODIsMjgxLjIyM0wyNzguMjUyLDI4MS4xNzFMMjc4LjMyMiwyODEuMTE4TDI3OC4zODksMjgxLjA2N0wyNzguNDU4LDI4MS4wMTRMMjc4LjUyNiwyODAuOTYxTDI3OC41OTMsMjgwLjkwOEwyNzguNjYsMjgwLjg1NEwyNzguNzI4LDI4MC43OTlMMjc4Ljc5NSwyODAuNzQ0TDI3OC44NiwyODAuNjlMMjc4LjkyNywyODAuNjMzTDI3OC45OTMsMjgwLjU3OEwyNzkuMDU4LDI4MC41MjJMMjc5LjEyMywyODAuNDY1TDI3OS4xODcsMjgwLjQwOEwyNzkuMjUyLDI4MC4zNUwyNzkuMzE2LDI4MC4yOTNMMjc5LjM4LDI4MC4yMzRMMjc5LjQ0NCwyODAuMTc1TDI3OS41MDYsMjgwLjExN0wyNzkuNTY5LDI4MC4wNTdMMjc5LjYzMiwyNzkuOTk3TDI3OS42OTMsMjc5LjkzOEwyNzkuNzU1LDI3OS44NzdMMjc5LjgxNiwyNzkuODE2TDI3OS44NzcsMjc5Ljc1NUwyNzkuOTM4LDI3OS42OTNMMjc5Ljk5NywyNzkuNjMyTDI4MC4wNTcsMjc5LjU2OUwyODAuMTE3LDI3OS41MDZMMjgwLjE3NSwyNzkuNDQ0TDI4MC4yMzQsMjc5LjM4TDI4MC4yOTMsMjc5LjMxNkwyODAuMzUsMjc5LjI1MkwyODAuNDA4LDI3OS4xODdMMjgwLjQ2NSwyNzkuMTIzTDI4MC41MjIsMjc5LjA1OEwyODAuNTc4LDI3OC45OTNMMjgwLjYzMywyNzguOTI3TDI4MC42OSwyNzguODZMMjgwLjc0NCwyNzguNzk1TDI4MC43OTksMjc4LjcyOEwyODAuODU0LDI3OC42NkwyODAuOTA4LDI3OC41OTNMMjgwLjk2MSwyNzguNTI2TDI4MS4wMTQsMjc4LjQ1OEwyODEuMDY3LDI3OC4zODlMMjgxLjExOCwyNzguMzIyTDI4MS4xNzEsMjc4LjI1MkwyODEuMjIzLDI3OC4xODJMMjgxLjI3MywyNzguMTE0TDI4MS4zMjQsMjc4LjA0NEwyODEuMzc0LDI3Ny45NzNMMjgxLjQyNCwyNzcuOTAzTDI4MS40NzQsMjc3LjgzMUwyODEuNTIyLDI3Ny43NjFMMjgxLjU3MSwyNzcuNjlMMjgxLjYxOCwyNzcuNjE5TDI4MS42NjYsMjc3LjU0N0wyODEuNzE0LDI3Ny40NzNMMjgxLjc2MSwyNzcuNDAyTDI4MS44MDYsMjc3LjMzTDI4MS44NTIsMjc3LjI1NkwyODEuODk4LDI3Ny4xODNMMjgxLjk0MywyNzcuMTFMMjgxLjk4NywyNzcuMDM2TDI4Mi4wMzIsMjc2Ljk2MkwyODIuMDc1LDI3Ni44ODhMMjgyLjExOCwyNzYuODE0TDI4Mi4xNjEsMjc2LjczOEwyODIuMjAzLDI3Ni42NjNMMjgyLjI0NCwyNzYuNTg5TDI4Mi4yODcsMjc2LjUxMkwyODIuMzI4LDI3Ni40MzZMMjgyLjM2OCwyNzYuMzYxTDI4Mi40MDgsMjc2LjI4NEwyODIuNDQ3LDI3Ni4yMDhMMjgyLjQ4NiwyNzYuMTMxTDI4Mi41MjUsMjc2LjA1M0wyODIuNTYzLDI3NS45NzdMMjgyLjYwMSwyNzUuOUwyODIuNjM4LDI3NS44MjJMMjgyLjY3NSwyNzUuNzQ0TDI4Mi43MTEsMjc1LjY2NUwyODIuNzQ3LDI3NS41ODZMMjgyLjc4MiwyNzUuNTA3TDI4Mi44MTcsMjc1LjQyOUwyODIuODUxLDI3NS4zNTJMMjgyLjg4NSwyNzUuMjcxTDI4Mi45MTksMjc1LjE5TDI4Mi45NTEsMjc1LjExMkwyODIuOTg0LDI3NS4wMzFMMjgzLjAxNiwyNzQuOTVMMjgzLjA0NywyNzQuODcxTDI4My4wNzgsMjc0Ljc5TDI4My4xMDksMjc0LjcwOUwyODMuMTM5LDI3NC42MjdMMjgzLjE2OCwyNzQuNTQ2TDI4My4xOTcsMjc0LjQ2NUwyODMuMjI2LDI3NC4zODNMMjgzLjI1NCwyNzQuMzAxTDI4My4yODEsMjc0LjIxOUwyODMuMzA5LDI3NC4xMzZMMjgzLjMzNSwyNzQuMDU0TDI4My4zNjEsMjczLjk3MkwyODMuMzg3LDI3My44ODdMMjgzLjQxMiwyNzMuODA0TDI4My40MzYsMjczLjcyMkwyODMuNDYsMjczLjYzOEwyODMuNDg0LDI3My41NTNMMjgzLjUwNywyNzMuNDY5TDI4My41MywyNzMuMzg1TDI4My41NTIsMjczLjNMMjgzLjU3NCwyNzMuMjE1TDI4My41OTQsMjczLjEzMUwyODMuNjE1LDI3My4wNDVMMjgzLjYzNSwyNzIuOTZMMjgzLjY1NCwyNzIuODc1TDI4My42NzQsMjcyLjc4OEwyODMuNjkyLDI3Mi43MDJMMjgzLjcxLDI3Mi42MTZMMjgzLjcyNywyNzIuNTNMMjgzLjc0NCwyNzIuNDQyTDI4My43NjEsMjcyLjM1NUwyODMuNzc3LDI3Mi4yNjhMMjgzLjc5MiwyNzIuMTgxTDI4My44MDcsMjcyLjA5NEwyODMuODIxLDI3Mi4wMDZMMjgzLjgzNSwyNzEuOTE3TDI4My44NDgsMjcxLjgyOUwyODMuODYxLDI3MS43NDFMMjgzLjg3MywyNzEuNjVMMjgzLjg4NSwyNzEuNTYyTDI4My44OTYsMjcxLjQ3M0wyODMuOTA2LDI3MS4zODRMMjgzLjkxNiwyNzEuMjk0TDI4My45MjYsMjcxLjIwNEwyODMuOTM0LDI3MS4xMTRMMjgzLjk0MywyNzEuMDI0TDI4My45NTEsMjcwLjkzM0wyODMuOTU4LDI3MC44NDFMMjgzLjk2NSwyNzAuNzQ5TDI4My45NzEsMjcwLjY1OEwyODMuOTc2LDI3MC41NjhMMjgzLjk4MSwyNzAuNDc1TDI4My45ODUsMjcwLjM4MkwyODMuOTg5LDI3MC4yOUwyODMuOTkzLDI3MC4xOTdMMjgzLjk5NSwyNzAuMTA1TDI4My45OTcsMjcwLjAxMUwyODMuOTk5LDI2OS45MTdMMjg0LDI2OS44MjRMMjg0LDI2OS43MDRMMjg0LDMwLjI5NkwyODQsMzAuMTc2TDI4My45OTksMzAuMDgzTDI4My45OTcsMjkuOTg5TDI4My45OTUsMjkuODk1TDI4My45OTMsMjkuODAzTDI4My45ODksMjkuNzFMMjgzLjk4NSwyOS42MThMMjgzLjk4MSwyOS41MjVMMjgzLjk3NiwyOS40MzJMMjgzLjk3MSwyOS4zNDJMMjgzLjk2NSwyOS4yNTFMMjgzLjk1OCwyOS4xNTlMMjgzLjk1MSwyOS4wNjdMMjgzLjk0MywyOC45NzZMMjgzLjkzNCwyOC44ODZMMjgzLjkyNiwyOC43OTZMMjgzLjkxNiwyOC43MDZMMjgzLjkwNiwyOC42MTZMMjgzLjg5NiwyOC41MjdMMjgzLjg4NSwyOC40MzhMMjgzLjg3MywyOC4zNUwyODMuODYxLDI4LjI1OUwyODMuODQ4LDI4LjE3MUwyODMuODM1LDI4LjA4M0wyODMuODIxLDI3Ljk5NEwyODMuODA3LDI3LjkwNkwyODMuNzkyLDI3LjgxOUwyODMuNzc3LDI3LjczMkwyODMuNzYxLDI3LjY0NUwyODMuNzQ0LDI3LjU1OEwyODMuNzI3LDI3LjQ3TDI4My43MSwyNy4zODRMMjgzLjY5MiwyNy4yOThMMjgzLjY3NCwyNy4yMTJMMjgzLjY1NCwyNy4xMjVMMjgzLjYzNSwyNy4wNEwyODMuNjE1LDI2Ljk1NUwyODMuNTk0LDI2Ljg2OUwyODMuNTc0LDI2Ljc4NkwyODMuNTUyLDI2LjdMMjgzLjUzLDI2LjYxNUwyODMuNTA3LDI2LjUzMUwyODMuNDg0LDI2LjQ0N0wyODMuNDYsMjYuMzYyTDI4My40MzYsMjYuMjc4TDI4My40MTIsMjYuMTk2TDI4My4zODcsMjYuMTEzTDI4My4zNjEsMjYuMDI4TDI4My4zMzUsMjUuOTQ2TDI4My4zMDksMjUuODY0TDI4My4yODIsMjUuNzgxTDI4My4yNTQsMjUuNjk5TDI4My4yMjYsMjUuNjE3TDI4My4xOTcsMjUuNTM0TDI4My4xNjgsMjUuNDU0TDI4My4xMzksMjUuMzczTDI4My4xMDksMjUuMjkxTDI4My4wNzgsMjUuMjFMMjgzLjA0NywyNS4xMjlMMjgzLjAxNiwyNS4wNUwyODIuOTg0LDI0Ljk2OUwyODIuOTUxLDI0Ljg4OEwyODIuOTE5LDI0LjgxTDI4Mi44ODUsMjQuNzI5TDI4Mi44NTEsMjQuNjQ5TDI4Mi44MTcsMjQuNTdMMjgyLjc4MiwyNC40OTJMMjgyLjc0NywyNC40MTRMMjgyLjcxMSwyNC4zMzVMMjgyLjY3NCwyNC4yNTZMMjgyLjYzOCwyNC4xNzhMMjgyLjYwMSwyNC4xTDI4Mi41NjMsMjQuMDIzTDI4Mi41MjUsMjMuOTQ2TDI4Mi40ODcsMjMuODY5TDI4Mi40NDcsMjMuNzkzTDI4Mi40MDgsMjMuNzE2TDI4Mi4zNjgsMjMuNjRMMjgyLjMyNywyMy41NjNMMjgyLjI4NiwyMy40ODdMMjgyLjI0NSwyMy40MTFMMjgyLjIwMywyMy4zMzZMMjgyLjE2MSwyMy4yNjJMMjgyLjExOCwyMy4xODZMMjgyLjA3NSwyMy4xMTJMMjgyLjAzMiwyMy4wMzhMMjgxLjk4NywyMi45NjRMMjgxLjk0MywyMi44OUwyODEuODk4LDIyLjgxN0wyODEuODUyLDIyLjc0M0wyODEuODA2LDIyLjY3TDI4MS43NjEsMjIuNTk4TDI4MS43MTQsMjIuNTI2TDI4MS42NjYsMjIuNDU0TDI4MS42MTksMjIuMzgxTDI4MS41NzEsMjIuMzFMMjgxLjUyMiwyMi4yMzlMMjgxLjQ3NCwyMi4xNjhMMjgxLjQyNCwyMi4wOTdMMjgxLjM3NCwyMi4wMjdMMjgxLjMyNCwyMS45NTdMMjgxLjI3MywyMS44ODZMMjgxLjIyMywyMS44MTdMMjgxLjE3MSwyMS43NDhMMjgxLjExOSwyMS42NzhMMjgxLjA2NywyMS42MUwyODEuMDE0LDIxLjU0MkwyODAuOTYxLDIxLjQ3NEwyODAuOTA4LDIxLjQwN0wyODAuODU0LDIxLjM0TDI4MC43OTksMjEuMjcyTDI4MC43NDUsMjEuMjA2TDI4MC42ODksMjEuMTM5TDI4MC42MzQsMjEuMDczTDI4MC41NzgsMjEuMDA3TDI4MC41MjIsMjAuOTQyTDI4MC40NjUsMjAuODc3TDI4MC40MDgsMjAuODEyTDI4MC4zNSwyMC43NDhMMjgwLjI5MywyMC42ODRMMjgwLjIzNCwyMC42MkwyODAuMTc2LDIwLjU1N0wyODAuMTE3LDIwLjQ5NEwyODAuMDU3LDIwLjQzMUwyNzkuOTk3LDIwLjM2OEwyNzkuOTM4LDIwLjMwN0wyNzkuODc3LDIwLjI0NUwyNzkuODE2LDIwLjE4NEwyNzkuNzU1LDIwLjEyM0wyNzkuNjkzLDIwLjA2M0wyNzkuNjMyLDIwLjAwM0wyNzkuNTY4LDE5Ljk0MkwyNzkuNTA2LDE5Ljg4NEwyNzkuNDQ0LDE5LjgyNUwyNzkuMzgsMTkuNzY2TDI3OS4zMTYsMTkuNzA3TDI3OS4yNTIsMTkuNjQ5TDI3OS4xODgsMTkuNTkyTDI3OS4xMjMsMTkuNTM1TDI3OS4wNTgsMTkuNDc4TDI3OC45OTMsMTkuNDIyTDI3OC45MjcsMTkuMzY2TDI3OC44NiwxOS4zMUwyNzguNzk1LDE5LjI1NkwyNzguNzI4LDE5LjIwMUwyNzguNjYxLDE5LjE0N0wyNzguNTkzLDE5LjA5MkwyNzguNTI2LDE5LjAzOUwyNzguNDU4LDE4Ljk4NkwyNzguMzg5LDE4LjkzM0wyNzguMzIxLDE4Ljg4MUwyNzguMjUyLDE4LjgyOUwyNzguMTgyLDE4Ljc3N0wyNzguMTEzLDE4LjcyN0wyNzguMDQ0LDE4LjY3NkwyNzcuOTczLDE4LjYyNkwyNzcuOTAzLDE4LjU3NkwyNzcuODMyLDE4LjUyNkwyNzcuNzYxLDE4LjQ3OEwyNzcuNjksMTguNDI5TDI3Ny42MTksMTguMzgyTDI3Ny41NDcsMTguMzM0TDI3Ny40NzQsMTguMjg2TDI3Ny40MDIsMTguMjRMMjc3LjMzLDE4LjE5NEwyNzcuMjU2LDE4LjE0N0wyNzcuMTgzLDE4LjEwMkwyNzcuMTEsMTguMDU3TDI3Ny4wMzYsMTguMDEzTDI3Ni45NjIsMTcuOTY5TDI3Ni44ODcsMTcuOTI1TDI3Ni44MTMsMTcuODgyTDI3Ni43MzgsMTcuODM5TDI3Ni42NjMsMTcuNzk3TDI3Ni41ODksMTcuNzU1TDI3Ni41MTIsMTcuNzEzTDI3Ni40MzYsMTcuNjcyTDI3Ni4zNjEsMTcuNjMyTDI3Ni4yODUsMTcuNTkyTDI3Ni4yMDgsMTcuNTUzTDI3Ni4xMzEsMTcuNTE0TDI3Ni4wNTQsMTcuNDc1TDI3NS45NzcsMTcuNDM3TDI3NS44OTksMTcuMzk5TDI3NS44MjEsMTcuMzYyTDI3NS43NDMsMTcuMzI1TDI3NS42NjUsMTcuMjg5TDI3NS41ODcsMTcuMjUzTDI3NS41MDgsMTcuMjE4TDI3NS40MjksMTcuMTgzTDI3NS4zNTEsMTcuMTQ5TDI3NS4yNzEsMTcuMTE1TDI3NS4xOTEsMTcuMDgyTDI3NS4xMTEsMTcuMDQ5TDI3NS4wMzEsMTcuMDE2TDI3NC45NTEsMTYuOTg0TDI3NC44NzEsMTYuOTUzTDI3NC43OSwxNi45MjJMMjc0LjcwOSwxNi44OTFMMjc0LjYyOCwxNi44NjFMMjc0LjU0NiwxNi44MzJMMjc0LjQ2NSwxNi44MDNMMjc0LjM4MywxNi43NzRMMjc0LjMwMSwxNi43NDZMMjc0LjIxOSwxNi43MTlMMjc0LjEzNywxNi42OTFMMjc0LjA1NCwxNi42NjVMMjczLjk3MSwxNi42MzlMMjczLjg4OCwxNi42MTNMMjczLjgwNSwxNi41ODhMMjczLjcyMSwxNi41NjRMMjczLjYzNywxNi41MzlMMjczLjU1MywxNi41MTZMMjczLjQ2OSwxNi40OTNMMjczLjM4NSwxNi40N0wyNzMuMywxNi40NDhMMjczLjIxNiwxNi40MjdMMjczLjEzLDE2LjQwNkwyNzMuMDQ1LDE2LjM4NUwyNzIuOTYsMTYuMzY1TDI3Mi44NzQsMTYuMzQ1TDI3Mi43ODgsMTYuMzI3TDI3Mi43MDIsMTYuMzA4TDI3Mi42MTYsMTYuMjlMMjcyLjUyOSwxNi4yNzNMMjcyLjQ0MiwxNi4yNTZMMjcyLjM1NSwxNi4yMzlMMjcyLjI2OCwxNi4yMjNMMjcyLjE4MSwxNi4yMDhMMjcyLjA5MywxNi4xOTNMMjcyLjAwNSwxNi4xNzlMMjcxLjkxNywxNi4xNjVMMjcxLjgyOSwxNi4xNTJMMjcxLjc0LDE2LjEzOUwyNzEuNjUyLDE2LjEyN0wyNzEuNTYyLDE2LjExNUwyNzEuNDczLDE2LjEwNEwyNzEuMzg0LDE2LjA5NEwyNzEuMjk0LDE2LjA4NEwyNzEuMjA0LDE2LjA3NEwyNzEuMTE0LDE2LjA2NkwyNzEuMDIzLDE2LjA1N0wyNzAuOTMyLDE2LjA0OUwyNzAuODQxLDE2LjA0MkwyNzAuNzUsMTYuMDM2TDI3MC42NTksMTYuMDI5TDI3MC41NjcsMTYuMDI0TDI3MC40NzUsMTYuMDE5TDI3MC4zODMsMTYuMDE1TDI3MC4yOSwxNi4wMTFMMjcwLjE5NywxNi4wMDdMMjcwLjEwNCwxNi4wMDVMMjcwLjAxMSwxNi4wMDNMMjY5LjkxNywxNi4wMDFMMjY5LjgyNCwxNkwyNjkuNzA0LDE2TDMwLjI5NiwxNloiLz4mI3hhOyAgICAgICAgPC9nPiYjeGE7ICAgICAgICA8Zz4mI3hhOyAgICAgICAgICAgIDxwYXRoIHN0eWxlPSJmaWxsOnJnYigyMjcsNDEsNDYpOyIgZD0iTTk2LjU3OSwxMjEuMzE5TDE1MCwxMjEuMzE5TDE1MCwxNDEuNjY1TDk2LjY4NSwxNDEuNjY1TDExNS41OTcsMTYwLjU3N0w4Ni4zMDcsMTYwLjU3N0w1Ny4yMTEsMTMxLjQ4MUw4Ni4zMDcsMTAyLjM4NUwxMTUuNTEzLDEwMi4zODVMOTYuNTc5LDEyMS4zMTlaIi8+JiN4YTsgICAgICAgICAgICA8ZyB0cmFuc2Zvcm09Im1hdHJpeCgxLDAsMCwxLDAsNjguNTMxMSkiPiYjeGE7ICAgICAgICAgICAgICAgIDxwYXRoIHN0eWxlPSJmaWxsOnJnYigyMjcsNDEsNDYpOyIgZD0iTTk2LjU3OSwxMjEuMzE5TDE1MCwxMjEuMzE5TDE1MCwxNDEuNjY1TDk2LjY4NSwxNDEuNjY1TDExNS41OTcsMTYwLjU3N0w4Ni4zMDcsMTYwLjU3N0w1Ny4yMTEsMTMxLjQ4MUw4Ni4zMDcsMTAyLjM4NUwxMTUuNTEzLDEwMi4zODVMOTYuNTc5LDEyMS4zMTlaIi8+JiN4YTsgICAgICAgICAgICA8L2c+JiN4YTsgICAgICAgICAgICA8ZyB0cmFuc2Zvcm09Im1hdHJpeCgtMSwwLDAsMSwzMDAsMzcuMDE3NykiPiYjeGE7ICAgICAgICAgICAgICAgIDxwYXRoIHN0eWxlPSJmaWxsOnJnYigyMjcsNDEsNDYpOyIgZD0iTTk2LjU3OSwxMjEuMzE5TDE1MCwxMjEuMzE5TDE1MCwxNDEuNjY1TDk2LjY4NSwxNDEuNjY1TDExNS41OTcsMTYwLjU3N0w4Ni4zMDcsMTYwLjU3N0w1Ny4yMTEsMTMxLjQ4MUw4Ni4zMDcsMTAyLjM4NUwxMTUuNTEzLDEwMi4zODVMOTYuNTc5LDEyMS4zMTlaIi8+JiN4YTsgICAgICAgICAgICA8L2c+JiN4YTsgICAgICAgICAgICA8ZyB0cmFuc2Zvcm09Im1hdHJpeCgtMSwwLDAsMSwzMDAsLTMxLjUxMzUpIj4mI3hhOyAgICAgICAgICAgICAgICA8cGF0aCBzdHlsZT0iZmlsbDpyZ2IoMjI3LDQxLDQ2KTsiIGQ9Ik05Ni41NzksMTIxLjMxOUwxNTAsMTIxLjMxOUwxNTAsMTQxLjY2NUw5Ni42ODUsMTQxLjY2NUwxMTUuNTk3LDE2MC41NzdMODYuMzA3LDE2MC41NzdMNTcuMjExLDEzMS40ODFMODYuMzA3LDEwMi4zODVMMTE1LjUxMywxMDIuMzg1TDk2LjU3OSwxMjEuMzE5WiIvPiYjeGE7ICAgICAgICAgICAgPC9nPiYjeGE7ICAgICAgICA8L2c+JiN4YTsgICAgPC9nPiYjeGE7PC9zdmc+;" vertex="1" parent="1">
          <mxGeometry x="580" y="610" width="220" height="220" as="geometry" />
        </mxCell>
      </root>
    </mxGraphModel>
  </diagram>
</mxfile>
